<svg width="132" height="133" viewBox="0 0 132 133" fill="none" xmlns="http://www.w3.org/2000/svg">
<path d="M66.1673 54.1321C66.1138 54.5416 65.7994 54.6423 65.4381 54.5953C65.0768 54.5483 64.7958 54.3738 64.8493 53.9575C64.9029 53.548 65.2708 53.0512 65.6321 53.0982C65.9934 53.1452 66.2209 53.7159 66.1673 54.1321Z" fill="#E59A48"/>
<path d="M63.1099 50.7484C63.1099 50.7484 63.9195 49.6675 63.9262 49.2445C63.9262 48.8216 64.4614 46.6329 65.0769 46.4852C65.6924 46.3308 66.0202 46.1898 66.1741 46.4852C66.3213 46.7806 66.4752 47.7877 66.8632 48.1099C67.2579 48.4322 71.4862 49.4124 71.62 50.1442C71.7003 50.5604 71.0045 51.0841 70.9978 51.3123C70.9911 51.5406 70.9777 52.0106 70.8038 52.2858C70.6365 52.5611 69.9943 52.7088 69.9274 52.9102C69.8605 53.1116 69.633 53.6621 69.3654 53.9038C69.0978 54.1455 65.1572 53.9911 64.8829 53.5413C64.6086 53.0915 63.1032 50.7551 63.1032 50.7551L63.1099 50.7484Z" fill="#F7BE79"/>
<path d="M61.5712 51.0304C61.5712 51.0304 62.461 50.6611 62.7821 50.6611C63.1033 50.6611 64.0667 51.2922 64.4346 52.0039C64.8026 52.7155 65.01 53.6152 64.9632 53.877C64.9096 54.1388 63.9931 55.0116 63.9931 55.0116C63.9931 55.0116 64.5417 52.3463 61.5779 51.0304H61.5712Z" fill="white"/>
<path d="M33.619 42.598C32.7225 44.4846 28.4139 53.3869 28.4875 54.065C28.5477 54.6021 31.3509 59.3621 32.5151 61.3359C32.8295 61.8663 33.0235 62.1885 33.0235 62.1885L31.0699 66.257L22.4729 58.4289C22.4729 58.4289 21.2887 57.5561 21.0077 54.582C20.8271 52.635 23.8645 43.5044 25.2895 39.362C26.7146 35.2197 27.9121 35.2936 27.9121 35.2936C34.1475 34.9914 34.5221 40.7182 33.619 42.598Z" fill="#7C1631"/>
<g style="mix-blend-mode:overlay" opacity="0.2">
<path d="M32.5151 61.3359C32.4348 61.6313 32.3144 61.8596 32.1271 61.9603C31.2975 62.4302 28.7552 58.0664 28.3404 57.0459C27.9925 56.1865 28.4876 54.065 28.4876 54.065C28.5478 54.6021 31.351 59.3621 32.5151 61.3359Z" fill="white"/>
</g>
<path d="M28.9893 112.346L28.5611 115.502C28.4741 117.301 30.2605 117.986 33.7595 116.65L33.8665 116.267C33.8665 116.267 34.763 116.267 35.2983 116.207C35.4388 116.193 39.9079 115.072 40.0952 113.83C40.2892 112.588 39.3392 112.286 38.8508 112.152C38.2755 111.997 35.9405 112.628 34.2947 111.494C32.388 110.185 29.8858 109.95 28.9826 112.34L28.9893 112.346Z" fill="#1B2028"/>
<g style="mix-blend-mode:overlay" opacity="0.5">
<path d="M34.1475 113.904C35.4856 114.575 39.9815 113.481 39.1251 112.239C39.0315 112.205 38.9378 112.179 38.8575 112.158C38.2822 112.004 35.9472 112.635 34.3014 111.501C34.1007 111.366 33.9 111.245 33.6926 111.131C33.0102 112.266 33.5789 113.333 34.1475 113.904Z" fill="white"/>
</g>
<path d="M30.8424 76.6364L31.7188 89.7751C31.7188 89.7751 30.9361 90.5606 31.2304 91.3461C31.2304 91.3461 28.6881 94.9715 28.4004 97.7174C28.1128 100.463 28.5945 112.91 28.5945 112.91C28.5945 112.91 30.2537 115.656 35.0439 112.031C35.0439 112.031 35.3383 103.014 36.0207 98.993C36.7031 94.9715 41.199 86.8345 40.9046 80.0738C40.6103 73.3064 31.0364 69.2917 30.8424 76.6431V76.6364Z" fill="#1C1C51"/>
<g style="mix-blend-mode:multiply" opacity="0.3">
<path d="M40.9047 80.0671C40.7509 76.5559 38.1015 73.7898 35.5592 72.9641C35.6796 78.7378 33.8732 88.4928 38.5966 91.2118C39.861 87.6603 41.0586 83.6724 40.9047 80.0671Z" fill="#1C1C51"/>
</g>
<path d="M38.155 77.3547C38.8575 80.3356 39.0181 83.444 38.6033 86.4853C38.3892 88.0026 38.0212 89.5065 37.4592 90.9432C37.1849 91.6616 36.8169 92.3598 36.5159 93.0312C36.2215 93.7159 35.9873 94.4343 35.7733 95.1594C34.9303 98.0664 34.5222 101.094 34.2144 104.115C34.0672 105.626 33.9535 107.143 33.8732 108.667C33.7795 110.185 33.706 111.709 33.6792 113.226C33.6792 113.273 33.639 113.313 33.5922 113.313C33.5454 113.313 33.5052 113.273 33.5052 113.226C33.4718 110.171 33.5922 107.123 33.8665 104.082C34.1542 101.047 34.5289 97.9993 35.3585 95.0385C35.5792 94.3 35.8268 93.575 36.1412 92.8633C36.4757 92.1517 36.8236 91.5004 37.0979 90.7955C37.6666 89.3991 38.0346 87.9288 38.2621 86.4316C38.4828 84.9345 38.5497 83.4172 38.5029 81.9066C38.4628 80.396 38.3089 78.872 37.9877 77.395C37.9811 77.3413 38.0078 77.301 38.0547 77.2876C38.1015 77.2809 38.1483 77.3077 38.155 77.3547Z" fill="#181135"/>
<path d="M54.9142 127.378C54.6265 128.735 49.582 129.587 49.388 129.587C49.2274 129.58 47.9697 129.587 47.9697 129.587L47.7154 130.071C47.7154 130.071 45.7619 131.427 43.4805 130.863C41.6206 130.406 42.0421 128.459 42.0421 128.459L42.7312 125.002C43.8685 122.464 46.5513 122.84 48.5584 124.35C48.5919 124.371 48.6253 124.397 48.6588 124.424C50.4049 125.78 53.0209 125.243 53.6497 125.452C53.7902 125.499 53.9642 125.559 54.1448 125.646C54.6332 125.901 55.1283 126.378 54.9142 127.378Z" fill="#1B2028"/>
<g style="mix-blend-mode:overlay" opacity="0.5">
<path d="M54.1448 125.646C54.2251 126.761 50.2979 127.647 49.0602 127.029C48.5049 126.472 47.9563 125.452 48.5584 124.351C48.5919 124.371 48.6253 124.398 48.6588 124.424C50.4049 125.781 53.0209 125.243 53.6497 125.452C53.7902 125.499 53.9642 125.559 54.1448 125.646Z" fill="white"/>
</g>
<path d="M35.8267 77.912C35.8267 77.912 40.2223 82.1282 40.617 83.0077C41.005 83.8871 43.5474 98.6908 43.3533 99.8724C43.1593 101.047 42.3766 104.478 42.0822 106.049C41.7878 107.62 42.2762 125.559 42.2762 125.559C42.2762 125.559 43.7414 126.929 46.5781 126.244C49.4148 125.559 49.1204 125.364 49.1204 125.364C49.1204 125.364 48.632 120.463 48.9264 117.127C49.2207 113.79 52.7398 93.105 53.1279 86.9284C53.5159 80.7519 53.0275 74.9647 53.0275 74.9647L37.2986 72.6149L35.8334 77.912H35.8267Z" fill="#363684"/>
<path d="M50.1039 77.8784C50.6859 79.832 50.9067 81.8461 51.0539 83.8602C51.1743 85.8743 51.1677 87.9019 51.0673 89.916C50.8867 93.9509 50.2912 97.959 49.6356 101.927C48.9665 105.888 48.4246 109.876 48.0633 113.877C47.8961 115.878 47.7623 117.885 47.7021 119.893C47.6352 121.9 47.6017 123.914 47.7623 125.908C47.7623 125.968 47.7288 126.015 47.6686 126.022C47.6151 126.022 47.5683 125.989 47.5616 125.935C47.1735 121.907 47.3609 117.865 47.6686 113.844C47.9964 109.822 48.5049 105.821 49.1405 101.839C49.8296 97.8717 50.4518 93.9039 50.6659 89.8891C50.7796 87.8885 50.7997 85.8744 50.706 83.8737C50.6124 81.8797 50.4384 79.8522 49.9166 77.9321C49.9032 77.8716 49.9299 77.8112 49.9835 77.7978C50.037 77.7844 50.0905 77.8112 50.1039 77.8649V77.8784Z" fill="#1C1C51"/>
<path d="M48.5318 20.4698C49.0737 21.5842 49.1406 24.3503 49.0001 25.0552C48.8529 25.7601 48.1705 26.2502 48.1303 26.5792C48.0902 26.9082 48.3444 27.6668 48.1638 28.3583C47.9831 29.0498 46.3775 32.7558 45.3338 33.2325C44.2834 33.7024 43.5274 33.1586 43.2732 33.4137C43.0189 33.6688 43.6813 36.3409 43.32 36.4819C42.9587 36.6296 39.8879 37.1331 37.6801 36.4483C35.4723 35.7635 34.4286 34.3066 34.4286 33.9441C34.4286 33.5816 36.235 30.7148 36.235 30.7148C36.235 30.7148 34.5825 26.5859 34.9103 23.1821C35.3786 18.3482 44.6848 12.561 48.5251 20.4698H48.5318Z" fill="#F7BE79"/>
<path d="M48.2241 25.5789C48.2241 25.5789 48.5987 25.8139 48.7526 25.7266C48.9065 25.6393 49.0269 25.1223 49.0269 25.1223C49.0269 25.1223 48.7058 25.0284 48.5854 25.0754C48.4716 25.1223 48.2241 25.5789 48.2241 25.5789Z" fill="#181135"/>
<path d="M42.6176 28.9962C42.6176 28.9962 42.6778 30.0166 43.5609 30.7283C43.5609 30.7283 43.5007 31.064 43.1126 31.0908C42.7179 31.1177 42.1091 29.9092 42.6176 28.9894V28.9962Z" fill="#E59A48"/>
<path d="M45.0327 28.5531C45.0327 28.5531 45.1263 27.3245 44.5175 27.3245C43.9087 27.3245 43.4136 28.1301 43.3868 28.7142C43.3601 29.305 44.1161 30.2046 44.2098 30.1308C44.7584 29.7212 44.0893 29.493 44.3971 29.211C44.7048 28.929 45.0327 28.5531 45.0327 28.5531Z" fill="#E59A48"/>
<path d="M49.1004 19.6171C49.2208 19.8051 50.3916 21.6715 49.8363 23.3231L49.4416 22.5309L49.4014 23.7192C49.4014 23.7192 48.2975 21.5842 47.943 21.4634C47.5884 21.3425 47.5482 23.5581 47.3542 23.9944C47.1602 24.4308 46.2503 25.5386 46.2503 25.5386L45.7418 28.1032L45.4608 28.0697C45.4608 28.0697 45.3873 26.6799 44.3235 26.6799C43.2597 26.6799 42.584 28.1435 42.584 29.2513C42.584 30.359 41.4199 31.836 41.4199 31.836C41.4199 31.836 39.3526 32.6551 39.1987 32.4134C39.0582 32.2053 39.5132 31.93 39.6135 31.8763C39.4463 31.9367 38.1283 32.4403 38.0547 32.259C37.9811 32.0777 38.4293 31.7353 38.5163 31.6682C38.349 31.7152 36.7032 32.165 36.5159 31.9434C36.3687 31.7555 36.6832 31.4735 36.837 31.3526C36.5694 31.5071 35.6395 31.9636 35.5726 30.9498C35.5726 30.9498 31.9999 25.2298 34.0873 20.6376C34.3549 20.0535 34.7028 19.4761 35.0842 18.9458C36.2215 17.3412 37.6198 16.126 37.7402 16.2401C37.8874 16.3946 37.5797 17.509 37.5462 17.65C37.6332 17.5292 38.3691 16.5557 39.5934 15.9649C40.8914 15.3338 42.5104 15.2532 42.584 15.3741C42.6576 15.4882 41.3396 16.4348 41.179 16.5557C41.3931 16.4684 44.009 15.4614 46.8056 16.5624L45.7418 16.9182C45.7418 16.9182 49.0067 17.6634 49.9969 20.1945L49.1004 19.6171Z" fill="#181135"/>
<path d="M45.8555 17.885C46.1365 17.9119 46.8858 18.12 47.8827 19.5768C49.1605 21.4365 41.4533 22.7188 41.2258 22.4839C41.005 22.269 42.3297 21.4298 42.4836 21.3291C38.4962 22.5443 35.6059 21.6111 34.9102 20.4496C34.6894 20.0871 34.8165 19.5366 35.0841 18.9458C36.2215 17.3412 37.6197 16.126 37.7402 16.2401C37.8873 16.3946 37.5796 17.509 37.5461 17.65C37.6331 17.5292 38.369 16.5557 39.5934 15.9649C40.8913 15.3338 42.5103 15.2532 42.5839 15.3741C42.6575 15.4882 41.3395 16.4348 41.179 16.5557C41.3931 16.4684 44.009 15.4614 46.8055 16.5624L45.7418 16.9182C45.7418 16.9182 49.0066 17.6634 49.9968 20.1945C48.6387 17.932 46.384 17.8649 45.8555 17.885Z" fill="#272051"/>
<g style="mix-blend-mode:multiply" opacity="0.5">
<path d="M30.742 75.7569C30.742 75.7569 29.9927 78.8385 36.1277 81.8462L38.0345 76.2336C38.0345 76.2336 39.9412 81.5709 40.5567 81.8462C41.1722 82.1215 45.1931 82.9405 48.3978 81.5709C51.6024 80.2014 53.4423 79.0399 52.9003 76.9855C52.3517 74.9311 33.8798 69.3252 30.742 75.7569Z" fill="#1C1C51"/>
</g>
<path d="M27.5441 34.9243C29.1297 33.6151 31.5984 33.689 33.9334 33.877C36.2683 34.065 45.2935 35.2331 51.2479 42.5041C51.2479 42.5041 50.4518 59.6374 50.6324 62.4705C50.8197 65.3037 54.1314 75.7166 54.1314 76.3343C54.1314 76.9519 51.3081 79.7247 47.9295 80.772C44.5509 81.8194 39.58 80.96 39.3927 80.5236C39.2053 80.0939 37.2451 74.9177 37.2451 74.9177C37.2451 74.9177 36.081 80.2819 35.713 80.3424C35.345 80.4028 30.4745 77.1601 29.8857 75.9852C29.6716 75.5555 29.6315 71.0976 30.4879 67.7072C31.3442 64.3168 32.1471 60.4967 32.0868 59.6374C32.0266 58.778 27.9121 49.5937 27.3568 46.7001C26.8015 43.8065 25.2025 36.8646 27.5441 34.931V34.9243Z" fill="#A02545"/>
<g style="mix-blend-mode:multiply" opacity="0.2">
<path d="M39.0247 61.9536C38.2887 59.8723 28.8755 47.0559 27.3902 46.8075C28.0191 49.8152 32.0333 58.7847 32.0935 59.6373C32.147 60.4161 31.6453 63.0412 30.8826 66.1563C34.2344 65.2097 38.543 63.4104 39.0247 61.9536Z" fill="#841E34"/>
</g>
<g style="mix-blend-mode:overlay" opacity="0.2">
<path d="M45.5209 44.7531C47.5213 45.6125 49.5151 45.4849 51.1475 44.6524C51.2077 43.3298 51.2412 42.4973 51.2412 42.4973C45.2868 35.2264 36.2615 34.0582 33.9266 33.8703C31.5917 33.6823 29.1297 33.6084 27.5374 34.9176C26.7881 35.5353 26.4469 36.6632 26.3398 38.0059C33.5921 36.8041 39.5532 41.4299 45.5143 44.7531H45.5209Z" fill="white"/>
</g>
<path d="M27.7248 34.7766C30.1935 34.2932 32.7291 34.2328 35.2179 34.5551C37.7134 34.884 40.1219 35.7501 42.3297 36.9518C43.4336 37.5494 44.5041 38.2207 45.5143 38.9659C46.5245 39.7179 47.5013 40.5168 48.3376 41.4836C48.5316 41.732 48.7725 41.9804 48.8461 42.3563C48.8929 42.7256 48.8528 43.0143 48.8528 43.3365C48.826 43.9676 48.7859 44.592 48.7457 45.2164L48.458 48.9693L47.7756 56.4618L47.4478 60.208L47.3809 61.1412C47.3608 61.4568 47.3408 61.7454 47.4144 62.0341C47.5549 62.6317 47.7288 63.2359 47.8961 63.8401C48.5785 66.2503 49.3077 68.6471 50.0303 71.0439L52.2381 78.4021C52.2515 78.4424 52.2247 78.4826 52.1846 78.4961C52.1444 78.5095 52.1043 78.4826 52.0909 78.4491C50.5655 73.6757 49 68.7411 47.6017 63.9274C47.4277 63.3232 47.2538 62.7256 47.1066 62.1013C47.0129 61.779 47.0397 61.4299 47.0598 61.1278L47.12 60.1879L47.4277 56.4349L48.07 48.9425L48.3778 45.1962C48.4246 44.5719 48.4647 43.9475 48.4982 43.3231C48.4982 43.021 48.5316 42.6853 48.4982 42.4302C48.458 42.1885 48.2507 41.9401 48.0633 41.7051C47.2605 40.7786 46.2971 39.973 45.3069 39.2278C44.3101 38.4893 43.2597 37.8112 42.1692 37.2204C37.8338 34.7363 32.6355 34.065 27.7381 34.9243C27.698 34.931 27.6579 34.9042 27.6512 34.8639C27.6445 34.8236 27.6712 34.7833 27.7114 34.7766H27.7248Z" fill="#841E34"/>
<g style="mix-blend-mode:multiply" opacity="0.2">
<path d="M44.4908 48.2979C44.4908 48.2979 45.0327 63.5715 47.9028 63.8468C50.7797 64.1153 50.6392 58.0797 50.6392 58.0797L44.4841 48.2979H44.4908Z" fill="#841E34"/>
</g>
<path d="M35.6728 33.5346C35.6728 33.5346 33.7393 33.2593 33.271 33.6957C32.796 34.1321 33.1907 35.5957 36.2683 37.3345C39.3391 39.0733 44.6245 37.5695 44.8185 37.019C45.0125 36.4684 39.1853 33.7763 35.6795 33.5413L35.6728 33.5346Z" fill="#7C1631"/>
<path d="M29.6181 48.2443C31.2573 50.1913 32.7826 52.2322 34.2679 54.3C35.7264 56.388 37.1581 58.5028 38.3423 60.7653C38.3624 60.8056 38.3423 60.8459 38.3088 60.866C38.2754 60.8861 38.2286 60.866 38.2085 60.8392C37.5461 59.7583 36.837 58.7042 36.1278 57.6502C35.4186 56.5961 34.6894 55.5555 33.9534 54.5283C33.2309 53.4877 32.4749 52.4605 31.7323 51.4333L29.4977 48.345C29.4709 48.3114 29.4776 48.2644 29.5111 48.2376C29.5445 48.2107 29.5914 48.2174 29.6114 48.251L29.6181 48.2443Z" fill="#841E34"/>
<path d="M64.1 55.4682C64.1 55.4682 56.9949 64.3974 54.118 63.0479C51.2412 61.6918 45.6749 52.4672 44.7784 50.5739C43.8752 48.6807 42.885 44.1892 46.2101 42.2959C49.5352 40.4027 51.2479 42.4974 51.2479 42.4974L56.6403 52.4L56.8945 52.3195L61.4306 50.8962C62.1531 50.7485 62.9158 51.2654 63.4912 52.0174C64.3475 53.1251 64.7958 54.7431 64.1 55.4682Z" fill="#BC3150"/>
<g style="mix-blend-mode:overlay" opacity="0.2">
<path d="M63.4911 52.0173C63.3908 52.7156 62.7418 53.5548 61.4037 54.4611C58.6272 56.3342 56.6402 52.494 56.6402 52.494C56.6402 52.494 56.7339 52.4269 56.8945 52.3195L61.4305 50.8962C62.153 50.7485 62.9157 51.2654 63.4911 52.0173Z" fill="white"/>
</g>
<path d="M56.7406 52.4874C56.7406 52.4874 56.667 52.4672 56.6403 52.4941C56.6135 52.5209 56.6135 52.5612 56.6403 52.5881C56.6403 52.5948 56.6403 52.6015 56.6403 52.6082C57.0752 53.4541 57.423 54.3269 57.6037 55.2467C57.8111 56.1597 57.8445 57.0996 57.7843 58.053C57.7843 58.0866 57.8044 58.1201 57.8378 58.1336C57.878 58.147 57.9181 58.1201 57.9315 58.0798C58.1857 57.1399 58.1657 56.1329 57.9717 55.1728C57.8245 54.5283 57.597 53.8972 57.2759 53.3131C58.4467 54.7834 59.0622 56.6565 58.9618 58.5565C58.9618 58.5968 58.9819 58.6304 59.022 58.6371C59.0622 58.6438 59.1023 58.6169 59.109 58.5767C59.5706 56.3343 58.5939 53.8167 56.7339 52.4806L56.7406 52.4874Z" fill="#841E34"/>
<path d="M33.2844 65.3373L34.6827 64.6726C35.151 64.4511 35.6194 64.2362 36.0743 64.008C36.5426 63.7931 36.9909 63.5447 37.4391 63.303C37.8807 63.0479 38.3222 62.7928 38.6902 62.4437C38.6902 62.4437 38.7705 62.4168 38.7973 62.4437C38.824 62.4706 38.824 62.5108 38.7973 62.5444C38.4694 62.9741 38.0413 63.2963 37.5997 63.585C37.1581 63.8737 36.6965 64.1221 36.2349 64.3571C35.2915 64.8002 34.3348 65.203 33.3313 65.485C33.2911 65.4984 33.251 65.4716 33.2376 65.4313C33.2242 65.3977 33.2443 65.3574 33.2777 65.344L33.2844 65.3373Z" fill="#841E34"/>
<path d="M88.9011 26.3576C88.0514 30.5738 84.7932 40.9733 83.9436 42.833C83.0872 44.6994 73.4063 49.9092 73.4063 49.9092C71.232 51.4265 68.2147 46.6866 70.5964 44.5517C70.8841 44.2899 71.2454 44.0012 71.5197 43.7393C74.0888 41.2284 76.4839 39.1472 77.6413 38.167C78.1029 37.7776 78.3639 37.5627 78.3639 37.5627C78.3639 37.5627 80.2706 28.4456 81.5418 24.4174C83.8633 17.0457 89.5501 23.1015 88.9011 26.3576Z" fill="#EF9426"/>
<path d="M73.0517 47.0022C73.4398 48.3315 72.9581 49.7548 72.2288 49.9696C71.4929 50.1845 70.5897 49.2848 70.2017 47.9555C69.8136 46.6262 70.0946 45.3775 70.8239 45.1626C71.5531 44.9478 72.6637 45.6796 73.0517 47.0089V47.0022Z" fill="white"/>
<g style="mix-blend-mode:multiply" opacity="0.4">
<path d="M82.7526 26.1428L80.0631 37.4822C80.0631 37.4822 82.6523 39.2144 82.184 42.2758C81.7223 45.3372 85.6361 41.2956 82.7526 26.1495V26.1428Z" fill="#EF9426"/>
</g>
<path opacity="0.5" d="M82.1772 38.8316C81.8895 38.4623 81.5216 38.1669 81.1202 37.9185C80.7121 37.6902 80.2705 37.5157 79.8089 37.4418C79.3606 37.368 78.899 37.3814 78.4641 37.4955C78.4307 37.4955 78.3905 37.509 78.3771 37.5425C78.3771 37.5493 78.3771 37.5627 78.3771 37.5694C78.3771 37.5694 78.3771 37.5694 78.3771 37.5761C78.3771 37.5895 78.3838 37.5962 78.3905 37.6097C78.3905 37.6164 78.4039 37.6231 78.4106 37.6298C78.9057 37.8044 79.3606 38.0662 79.762 38.3817C80.1634 38.704 80.5113 39.0867 80.7656 39.5298C81.0399 39.9595 81.2138 40.4563 81.3075 40.9598C81.4012 41.4633 81.4212 41.9937 81.3409 42.5107C81.3409 42.5442 81.3543 42.5845 81.3945 42.5979C81.4346 42.6114 81.4747 42.5912 81.4881 42.5509C81.6554 42.0273 81.7022 41.4633 81.6286 40.9128C81.5617 40.3623 81.3677 39.8252 81.0867 39.3351C80.7923 38.8584 80.4043 38.4422 79.9494 38.1199C79.6617 37.9185 79.3539 37.7641 79.0261 37.65C80.5515 37.7708 81.9565 38.704 82.6322 40.1072C82.6456 40.1407 82.6857 40.1609 82.7192 40.1474C82.7593 40.134 82.786 40.0937 82.7727 40.0535C82.6589 39.6036 82.4448 39.1807 82.1505 38.8181L82.1772 38.8316Z" fill="#CC6A27"/>
<path d="M71.0847 44.8807C71.5998 44.639 72.2354 44.7598 72.697 45.0955C73.1654 45.4312 73.4664 45.928 73.6738 46.4315C73.8679 46.9485 73.9682 47.5057 73.9348 48.0495C73.908 48.6001 73.7608 49.1372 73.5066 49.6138C73.4865 49.6541 73.4397 49.6675 73.4062 49.6474C73.3728 49.6273 73.3594 49.587 73.3728 49.5534C73.54 49.0633 73.6136 48.5531 73.6136 48.0495C73.6136 47.546 73.5133 47.0425 73.3259 46.5792C73.152 46.1093 72.8777 45.6729 72.5097 45.3641C72.1417 45.062 71.6333 44.8941 71.1516 45.0284C71.1114 45.0418 71.0713 45.015 71.0579 44.9747C71.0445 44.9411 71.0646 44.9008 71.0981 44.8807H71.0847Z" fill="#FFC043"/>
<g style="mix-blend-mode:overlay" opacity="0.2">
<path d="M73.9147 45.2768C73.2055 43.8199 72.2555 43.6118 71.5195 43.7394C74.0886 41.2285 76.4837 39.1472 77.6412 38.167C78.6715 37.7038 79.7553 38.0395 80.3775 39.4628C80.8592 40.5571 74.5168 46.5054 73.9147 45.2768Z" fill="white"/>
</g>
<path d="M67.1642 48.2509L66.8498 48.8954C65.8061 50.3322 64.3008 49.4661 64.7959 48.8753C65.2843 48.2845 65.8396 45.8004 66.1339 45.6057C66.4283 45.411 67.2378 45.2768 67.9871 45.3103C68.7365 45.3439 70.0745 46.0958 70.0745 46.0958C70.0745 46.0958 70.4291 45.6661 70.7904 45.5789C71.145 45.4916 73.326 46.2301 72.6168 48.8081C72.3626 49.7279 71.0379 49.7279 71.0379 49.7279L67.1776 48.2442L67.1642 48.2509Z" fill="#FFD19F"/>
<path d="M68.9439 49.0633C69.1245 49.0163 69.2784 48.9425 69.4256 48.8485C69.5661 48.7545 69.6999 48.6538 69.7935 48.5195C69.9006 48.3987 69.9742 48.2442 70.0277 48.0831C70.0812 47.922 70.1147 47.7474 70.1213 47.5662C70.1213 47.5259 70.1548 47.4856 70.2016 47.4856C70.2351 47.4856 70.2618 47.5057 70.2752 47.5326C70.3622 47.7206 70.389 47.9421 70.3555 48.157C70.3221 48.3718 70.2284 48.5732 70.1013 48.7545C69.9608 48.9223 69.7801 49.0633 69.5794 49.1439C69.3787 49.2244 69.1579 49.2513 68.9572 49.211C68.9171 49.2043 68.8903 49.164 68.897 49.1237C68.897 49.0902 68.9305 49.07 68.9572 49.0633H68.9439Z" fill="#F7BE79"/>
<path d="M67.3115 54.2865C67.258 54.6961 66.9435 54.7968 66.5822 54.7498C66.221 54.7028 65.94 54.5282 65.9935 54.112C66.047 53.7024 66.415 53.2056 66.7763 53.2526C67.1375 53.2996 67.365 53.8703 67.3115 54.2865Z" fill="#FFD19F"/>
<path d="M68.5358 54.3067C68.5023 54.7229 68.2013 54.837 67.8333 54.8102C67.4653 54.7833 67.1843 54.6222 67.2111 54.2127C67.2445 53.7964 67.5791 53.2862 67.9403 53.313C68.3016 53.3399 68.5625 53.8971 68.5358 54.3134V54.3067Z" fill="#FFD19F"/>
<path d="M98.7292 103.182C98.7292 103.182 98.4482 106.197 97.5986 107.331C96.7489 108.466 94.9826 110.628 94.3805 111.306C93.7784 111.977 93.6713 113.293 94.2066 113.931C94.7351 114.569 97.8461 114.891 100.603 112.722C100.603 112.722 101.907 110.742 102.295 109.54L102.375 109.869C102.375 109.869 103.908 109.292 104.436 107.801C104.965 106.311 103.038 102.544 103.038 102.544L98.7225 103.182H98.7292Z" fill="#1B2028"/>
<g style="mix-blend-mode:overlay" opacity="0.5">
<path d="M101.111 102.833L98.729 103.189C98.729 103.189 98.448 106.203 97.5983 107.338C96.7621 108.452 95.0426 110.561 94.4138 111.272C99.6924 114.052 101.559 105.378 101.111 102.833Z" fill="white"/>
</g>
<path d="M85.1477 92.7156C85.1477 92.7156 85.8836 94.2933 84.4118 96.2805C83.1005 98.0462 81.2405 99.1271 80.8525 99.6709C80.4645 100.215 78.8454 102.645 80.2169 103.216C81.9966 103.954 84.4184 103.363 85.4621 102.585C86.5058 101.806 88.1316 99.201 88.1316 99.201L88.446 99.3554C88.446 99.3554 89.8777 98.6975 90.4197 98.0328C90.9616 97.3749 89.958 93.2929 89.958 93.2929L85.1544 92.7089L85.1477 92.7156Z" fill="#1B2028"/>
<g style="mix-blend-mode:overlay" opacity="0.5">
<path d="M85.7165 98.7176C86.3387 96.8378 87.0813 94.3336 86.1246 92.8297L85.1478 92.7089C85.1478 92.7089 85.8837 94.2866 84.4119 96.2738C83.1006 98.0395 81.2407 99.1204 80.8526 99.6642C80.7389 99.8186 80.5248 100.134 80.3107 100.517C80.3107 101.007 84.3717 101.396 85.7098 98.7109L85.7165 98.7176Z" fill="white"/>
</g>
<path d="M81.3276 51.2787C80.9195 51.46 79.4878 67.1902 81.4681 77.9857C81.4681 77.9857 83.997 88.6941 84.559 94.2396C84.559 94.2396 85.7834 95.9113 86.352 95.9113C86.9207 95.9113 89.6771 95.8844 90.2458 94.0382C90.8145 92.1919 90.5268 86.7941 90.3863 84.9478C90.2458 83.1016 88.406 78.2744 88.406 77.2741C88.406 76.2738 92.6543 65.6259 92.6543 60.3691C92.6543 55.1122 87.844 48.4389 81.3276 51.2787Z" fill="#1C1C51"/>
<path d="M85.3885 58.1335C87.1347 60.1946 88.9678 62.4168 88.9678 62.645C88.9678 63.068 92.226 78.9794 92.6475 81.1144C93.069 83.2426 96.8959 93.4743 97.605 103.417C97.605 103.417 98.0399 105.022 98.8695 105.008C101.311 104.968 103.031 104.082 103.74 103.088C104.449 102.095 104.182 89.8623 103.847 88.3316C103.131 85.0889 100.154 80.6847 100.154 79.2681C100.154 77.8515 102.422 61.7924 99.873 53.9844C97.324 46.1697 85.2948 47.593 85.2948 47.593C83.6223 51.8696 82.1236 56.0791 85.3952 58.1402L85.3885 58.1335Z" fill="#363684"/>
<g style="mix-blend-mode:multiply" opacity="0.5">
<path d="M80.7053 56.6095C80.7053 56.6095 82.873 60.2751 84.1107 60.396C85.3484 60.5168 86.2114 52.447 86.2114 52.447C86.2114 52.447 87.4492 60.3356 87.9442 60.584C88.4393 60.8324 92.7679 61.7656 96.6684 60.396C100.569 59.0331 100.937 55.6158 100.937 55.6158L86.0843 48.9089L80.6986 56.6095H80.7053Z" fill="#1C1C51"/>
</g>
<path d="M83.0002 21.6914C82.8597 21.4497 87.0612 19.0999 92.4737 19.3349C92.4737 19.3349 103.299 22.6783 105.098 25.0684C105.861 26.0822 102.911 37.0993 101.004 41.7049C101.004 41.7049 100.562 46.908 101.546 56.1057C101.546 56.1057 97.7323 61.2484 88.212 59.8318L86.1915 49.8419C86.1915 49.8419 84.6728 59.0463 84.1108 59.0463C83.5488 59.0463 80.3709 56.8577 80.0832 56.0722C79.8089 55.2934 82.9467 39.4357 82.8731 38.724C82.8062 38.0191 81.9632 33.6955 81.8829 32.9167C81.816 32.1379 82.746 26.626 82.746 26.1292C81.9699 24.7193 82.1305 22.8663 82.9935 21.678L83.0002 21.6914Z" fill="#FFAD40"/>
<path d="M91.5036 49.8421L97.8661 49.1439L97.9932 50.0234L91.5839 50.7551L91.5036 49.8421Z" fill="#EF9426"/>
<path d="M84.6194 48.5128L81.1873 47.4117L80.8795 48.251L84.3518 49.3856L84.6194 48.5128Z" fill="#EF9426"/>
<path d="M87.4895 36.737C87.3825 38.9861 87.1952 41.2284 87.0078 43.4708C86.7937 45.7065 86.593 47.9488 86.292 50.1778C86.292 50.2181 86.2518 50.2449 86.205 50.2382C86.1648 50.2382 86.1381 50.1979 86.1381 50.1643C86.2384 47.9153 86.4325 45.6729 86.6198 43.4305C86.8339 41.1949 87.0413 38.9525 87.3357 36.7236C87.3357 36.6833 87.3758 36.6564 87.4226 36.6631C87.4628 36.6631 87.4895 36.7034 87.4895 36.737Z" fill="#EF9426"/>
<path opacity="0.5" d="M99.7394 28.6268C99.7394 28.6268 98.4281 33.3063 98.1739 38.3952C98.1003 39.8857 97.9063 43.4573 99.3982 43.5111C100.883 43.5648 102.482 37.3815 102.482 37.3815L99.7461 28.6268H99.7394Z" fill="#EF9426"/>
<path d="M82.98 21.5977C85.1678 21.0404 87.409 20.7182 89.677 20.6443C91.9384 20.5705 94.2198 20.9196 96.3807 21.5909C97.4646 21.9199 98.5283 22.316 99.5653 22.7726C100.596 23.2492 101.619 23.7192 102.556 24.4443C102.67 24.545 102.79 24.639 102.897 24.8068C102.957 24.8471 102.991 25.0485 102.984 25.1156C102.984 25.1962 102.984 25.2835 102.971 25.3573C102.937 25.6594 102.877 25.9347 102.817 26.2167C102.69 26.7739 102.549 27.3177 102.402 27.8682C102.108 28.9626 101.793 30.0435 101.479 31.1244C100.836 33.2862 100.174 35.4413 99.5586 37.6031C99.2576 38.684 98.9565 39.7716 98.7223 40.8659C98.6153 41.4164 98.4949 41.9468 98.5417 42.4906C98.5685 43.0479 98.6086 43.6118 98.6488 44.1691L99.8062 57.6434L99.6055 57.6635C99.1037 53.1788 98.622 48.6941 98.2473 44.1959C98.2005 43.632 98.1537 43.0747 98.1269 42.5041C98.0734 41.9133 98.2005 41.3292 98.3009 40.7786C98.5283 39.6642 98.8227 38.5698 99.1171 37.4822C99.7125 35.307 100.361 33.1452 100.99 30.9767C101.312 29.8958 101.633 28.8149 101.934 27.734C102.081 27.1902 102.228 26.6531 102.355 26.1093C102.415 25.8407 102.476 25.5654 102.509 25.3036C102.522 25.2365 102.516 25.1828 102.522 25.1223C102.522 25.0821 102.522 25.0821 102.522 25.0753C102.529 25.0753 102.522 25.0552 102.502 25.0351C102.456 24.9612 102.355 24.8739 102.262 24.7867C101.419 24.122 100.395 23.6252 99.3914 23.1552C98.3745 22.6987 97.3308 22.2959 96.267 21.9669C94.1395 21.2888 91.925 20.933 89.6904 20.9867C87.4626 21.0069 85.2213 21.2821 83.0403 21.7856L82.9867 21.5909L82.98 21.5977Z" fill="#EF9426"/>
<path d="M85.4957 24.0481C85.4957 24.1689 83.8967 28.1502 84.1108 28.5463C84.3249 28.9424 85.77 30.5201 85.77 30.5201C85.77 30.5201 83.4685 31.7823 83.4685 31.9367C83.4685 32.0911 87.1683 39.2076 87.1683 39.2076L85.4957 24.0481Z" fill="#EF9426"/>
<path d="M87.215 39.0465C87.1682 39.1808 93.999 35.4077 94.0793 34.4141C94.1596 33.4272 92.5405 31.8025 92.5405 31.8025C92.5405 31.8025 95.3371 31.7219 96.4075 31.3258C97.478 30.9297 98.0266 23.887 98.0266 23.887C98.0266 23.887 88.921 33.8166 87.2217 39.0398L87.215 39.0465Z" fill="#EF9426"/>
<path d="M86.4793 19.8387C86.4793 19.8387 84.2247 27.2707 84.2916 27.6937C84.3652 28.1167 85.8437 30.077 85.8437 30.077C85.8437 30.077 83.937 30.5739 83.7965 30.9968C83.656 31.4198 87.0413 39.1607 87.0413 39.1607C87.0413 39.1607 94.0929 33.9911 94.1665 33.2123C94.2401 32.4335 92.7548 31.4399 92.7548 31.4399C92.7548 31.4399 95.645 31.0841 96.2806 30.5201C96.9162 29.9562 98.3814 21.4433 98.3814 21.4433C98.3814 21.4433 95.3574 18.0529 86.4726 19.832L86.4793 19.8387Z" fill="#FFC043"/>
<path d="M95.4441 20.8457C92.5071 27.4721 91.3697 30.4395 87.3957 36.7571C86.7668 31.0035 88.2855 19.4828 88.2855 19.4694C89.4697 19.3284 90.6873 19.2948 92.4803 19.3418C92.4803 19.3418 93.4036 19.4425 95.1364 20.1072C95.4307 20.2213 95.5712 20.5637 95.4441 20.8524V20.8457Z" fill="white"/>
<path opacity="0.5" d="M95.9259 37.8381C96.9161 38.1603 97.826 38.684 98.6623 39.2949C99.4852 39.9327 100.241 40.6712 100.817 41.5306C100.837 41.5642 100.83 41.6112 100.796 41.638C100.763 41.6582 100.723 41.6514 100.703 41.6313C99.987 40.8995 99.251 40.2013 98.4348 39.6038C97.632 38.9861 96.7622 38.4692 95.8657 37.9791C95.8256 37.9589 95.8122 37.9119 95.8323 37.8784C95.8524 37.8448 95.8858 37.8314 95.9193 37.8448L95.9259 37.8381Z" fill="#CC6A27"/>
<path d="M95.4574 20.6241C92.7144 26.6396 88.3858 25.3304 88.1315 23.2626C87.8572 21.0269 88.4794 16.8913 88.4794 16.8913L94.3803 14.7765C94.3803 14.7765 94.755 16.8779 95.4574 20.6174V20.6241Z" fill="#F7BE79"/>
<path d="M93.4706 14.8369L88.4328 16.8913C88.4328 16.8913 88.0514 19.758 88.0648 22.0138C88.8677 22.1817 89.2557 22.2622 89.5902 22.0138C90.9885 20.9329 92.2931 19.6103 92.8216 18.2877C93.3234 17.039 93.3234 16.2468 93.4706 14.8436V14.8369Z" fill="#E59A48"/>
<path d="M83.5823 10.1844C83.5823 10.1844 83.4551 12.0777 83.7094 12.8363C83.9636 13.5949 84.2111 14.2663 84.2111 14.2663C84.2111 14.2663 84.1643 15.6963 84.171 16.1999C84.1911 19.3754 86.0041 21.7722 87.5764 21.6514C91.0553 21.3828 92.6811 18.1737 92.8885 17.6299C93.0959 17.0861 93.5241 15.7836 93.5241 15.7836C93.5241 15.7836 95.0294 16.0991 95.3706 13.8501C95.7252 11.4869 94.4674 11.0706 93.9656 11.1915C93.4639 11.319 92.661 12.89 92.661 12.89C92.661 12.89 94.3202 6.90141 91.9719 6.18305C89.6236 5.46468 83.9636 5.176 83.5823 10.1844Z" fill="#F7BE79"/>
<path d="M94.8887 13.145C94.8887 13.145 95.0091 11.9836 94.2732 12.0507C93.5373 12.1179 93.4168 13.9708 93.4837 14.2125C93.5506 14.4475 93.9989 14.5482 93.9989 14.5482C93.9989 14.5482 93.8852 15.1591 94.019 15.1927C94.1595 15.2263 94.7549 14.7899 94.8887 13.145Z" fill="#E59A48"/>
<path d="M82.98 11.0169C83.1138 11.0169 84.6192 11.3861 85.7298 10.5134C86.8404 9.64057 88.058 8.47911 89.4897 9.74799C89.4897 9.74799 89.3827 8.05615 87.9108 8.15685C86.4389 8.25756 82.9867 11.0169 82.9867 11.0169H82.98Z" fill="#E59A48"/>
<path d="M86.2651 13.4606C86.2651 13.4606 87.3155 13.0779 88.5666 13.5882L88.6536 13.3666C88.6536 13.3666 87.6567 12.5341 86.8137 12.6885C85.9708 12.843 86.2651 13.4539 86.2651 13.4539V13.4606Z" fill="#181135"/>
<path d="M84.3316 12.8563C84.0974 12.8698 83.8699 12.9637 83.6559 13.0846C83.6559 13.286 83.6625 13.4941 83.803 13.6754C84.5724 13.3867 85.0408 13.4807 85.0408 13.4807C85.0408 13.4807 85.1879 12.816 84.3316 12.863V12.8563Z" fill="#181135"/>
<path d="M97.1501 9.83526C97.0096 10.0501 96.3272 9.18403 96.2536 9.08333C96.2937 9.17061 96.6215 9.90911 96.6215 10.9699C96.6215 12.1112 95.2634 16.8913 94.9623 16.8913C94.6613 16.8913 94.2264 15.5755 94.2264 15.5755C95.2768 15.4009 95.3838 13.3197 95.3838 12.6147C95.3771 11.6748 94.4137 10.755 93.5641 11.4935C92.7144 12.2388 92.594 13.9776 92.594 13.9776L92.1524 14.0179C92.1524 14.0179 91.9249 12.9773 91.557 12.42C91.189 11.8628 91.6105 11.0303 91.3496 10.4731C91.0887 9.91582 89.483 9.74127 89.483 9.74127C89.483 9.74127 88.7203 8.76779 87.69 8.76779C87.2283 8.76779 81.8025 12.0373 81.8025 12.0373C81.4278 11.8829 82.1838 9.90911 82.1838 9.90911C81.7289 9.83526 79.7619 8.69394 79.7619 8.39182C79.7619 8.0897 82.1103 7.71374 82.1103 7.71374C82.1103 7.71374 79.8422 5.96818 80.7454 6.11588C81.6553 6.2703 83.0134 6.11588 83.0134 6.11588C83.0134 6.11588 88.078 3.16186 90.1186 3.00745C90.4999 2.9806 90.9214 3.02759 91.3563 3.1283C91.3696 3.1283 91.383 3.1283 91.3897 3.13501C93.263 3.57811 95.337 4.96784 95.337 5.20954C95.337 5.51165 94.6546 5.4378 94.6546 5.4378C96.4677 6.34415 97.304 9.607 97.1501 9.83526Z" fill="#181135"/>
<path d="M94.2666 7.03566C93.8049 7.87487 92.1323 8.21055 90.627 7.2035C89.1217 6.19645 87.235 7.03566 84.8934 8.17027C82.5518 9.30488 79.7619 8.39182 79.7619 8.39182C79.7619 8.0897 82.1103 7.71374 82.1103 7.71374C82.1103 7.71374 79.8422 5.96818 80.7454 6.11588C81.6553 6.2703 83.0134 6.11588 83.0134 6.11588C83.0134 6.11588 88.078 3.16186 90.1186 3.00745C90.4999 2.9806 90.9214 3.02759 91.3563 3.1283C91.3696 3.1283 91.383 3.1283 91.3897 3.13501C93.8451 4.00779 94.688 6.25016 94.2666 7.03566Z" fill="#272051"/>
<path d="M106.39 62.3699C106.39 62.3699 104.858 63.4911 104.55 63.8536C104.242 64.2161 103.794 65.1963 103.687 65.4246C103.573 65.6461 102.683 66.5458 102.824 66.7673C102.964 66.9889 103.519 67.6065 104.443 66.4854C105.366 65.3642 105.841 64.9748 106.008 65.0822C106.176 65.1963 106.095 66.3981 105.981 66.7338C105.868 67.0694 105.339 68.2443 105.172 68.5263C105.005 68.8083 104.282 69.4797 104.168 69.8153C104.055 70.151 104.643 70.4598 105.225 70.1779C105.225 70.1779 105.446 70.6545 106.115 70.3726C106.784 70.0906 107.647 69.3387 107.647 69.3387C107.647 69.3387 108.51 69.3655 109.681 67.714C110.852 66.0624 109.795 62.2289 109.795 62.2289L106.39 62.3699Z" fill="#F7BE79"/>
<path d="M106.804 62.7928L105.814 62.8599C105.814 62.8599 106.51 64.5115 108.517 63.9207C110.531 63.3231 109.608 61.7387 109.608 61.7387L106.804 62.7995V62.7928Z" fill="#E59A48"/>
<path d="M105.232 70.1308C105.633 69.7347 106.042 69.3587 106.41 68.9425C106.791 68.5397 107.132 68.1033 107.5 67.6736C107.52 67.6467 107.56 67.64 107.594 67.6669C107.614 67.687 107.62 67.7139 107.614 67.7407C107.38 68.2644 107.032 68.7343 106.657 69.164C106.262 69.5803 105.827 69.963 105.326 70.2382C105.292 70.2584 105.259 70.2382 105.239 70.2114C105.225 70.1845 105.232 70.1577 105.252 70.1375L105.232 70.1308Z" fill="#E59A48"/>
<path d="M107.661 69.258C107.855 68.9895 108.116 68.7679 108.31 68.5061C108.524 68.2577 108.664 67.9824 108.892 67.7408C108.912 67.7206 108.945 67.7206 108.965 67.7408C108.979 67.7542 108.985 67.781 108.979 67.7945C108.858 68.11 108.671 68.392 108.464 68.6538C108.243 68.9089 108.015 69.1506 107.728 69.3319C107.701 69.3453 107.674 69.3386 107.654 69.3185C107.641 69.2983 107.647 69.2782 107.654 69.258H107.661Z" fill="#E59A48"/>
<path d="M105.426 60.9264C105.426 60.9264 105.232 62.2221 105.386 62.6518C105.54 63.0815 106.952 63.7126 108.089 63.4373C109.226 63.162 110.043 62.6115 110.203 62.2221C110.357 61.8327 110.518 60.3759 110.518 60.3759L105.433 60.9264H105.426Z" fill="white"/>
<path d="M110.819 60.5235C110.511 61.8528 107.694 62.6786 106.122 62.3765C105.506 62.2557 105.078 61.967 105.072 61.4702L104.757 46.6061C104.757 46.6061 101.813 39.5836 100.301 35.3405C100.054 34.649 99.8464 34.0314 99.6925 33.5278C99.0302 31.3257 99.3446 23.0209 105.138 25.2096C105.138 25.2096 110.819 35.4882 111.521 45.6662C111.608 46.9753 111.019 59.6575 110.819 60.5235Z" fill="#FFC043"/>
<path opacity="0.5" d="M108.49 46.069C108.209 47.358 106.43 60.1342 106.122 62.3765C105.506 62.2557 105.078 61.967 105.071 61.4702L104.757 46.6061C104.757 46.6061 101.813 39.5836 100.301 35.3406L100.248 34.8773C100.248 34.8773 103.961 43.2493 104.77 43.8535C105.573 44.4577 108.791 44.6591 108.49 46.069Z" fill="#EF9426"/>
</svg>
