<svg width="138" height="133" viewBox="0 0 138 133" fill="none" xmlns="http://www.w3.org/2000/svg">
<path d="M122.681 72.1353L46.1741 116.307L0 89.6483L76.507 45.475L122.681 72.1353Z" fill="#EEDFCF"/>
<path d="M128 71.7408L51.493 115.913L5.31989 89.2537L81.8259 45.0815L128 71.7408Z" fill="#F3F2F2"/>
<path d="M30.0802 98.0617L45.8827 88.9378L41.0266 86.1346L25.2241 95.2575L30.0802 98.0617ZM46.4097 88.9378L30.0802 98.3665L24.6971 95.2575L41.0266 85.8298L46.4097 88.9378Z" fill="#282752"/>
<path d="M46.1467 88.7869L56.0993 83.04L51.2433 80.2359L41.2896 85.9828L46.1467 88.7869ZM56.6263 83.04L46.1467 89.0907L40.7626 85.9828L51.2433 79.9321L56.6263 83.04Z" fill="#282752"/>
<path d="M56.3633 82.8881L66.3159 77.1412L61.4599 74.3371L51.5062 80.084L56.3633 82.8881ZM66.8429 77.1412L56.3633 83.1919L50.9792 80.084L61.4599 74.0323L66.8429 77.1412Z" fill="#282752"/>
<path d="M66.5789 76.9893L76.5326 71.2424L71.6755 68.4383L61.7219 74.1852L66.5789 76.9893ZM77.0585 71.2424L66.5789 77.2931L61.1959 74.1852L71.6755 68.1345L77.0585 71.2424Z" fill="#282752"/>
<path d="M76.7966 71.0905L86.7492 65.3436L81.8922 62.5395L71.9385 68.2864L76.7966 71.0905ZM87.2762 65.3436L76.7966 71.3943L71.4125 68.2864L81.8922 62.2357L87.2762 65.3436Z" fill="#282752"/>
<path d="M87.012 65.1917L96.9656 59.4458L92.1086 56.6417L82.1549 62.3876L87.012 65.1917ZM97.4916 59.4458L87.012 65.4955L81.629 62.3876L92.1086 56.3369L97.4916 59.4458Z" fill="#282752"/>
<path d="M65.4453 65.6627L86.59 53.4543L83.2395 51.5206L62.0958 63.729L65.4453 65.6627ZM87.116 53.4543L65.4453 65.9664L61.5688 63.729L83.2395 51.2169L87.116 53.4543Z" fill="#282752"/>
<path d="M33.6243 100.108L49.4268 90.9846L46.1466 89.0907L30.3441 98.2146L33.6243 100.108ZM49.9538 90.9846L33.6243 100.412L29.8171 98.2146L46.1466 88.7869L49.9538 90.9846Z" fill="#282752"/>
<path d="M49.6897 90.8326L59.6424 85.0857L56.3632 83.1918L46.4095 88.9377L49.6897 90.8326ZM60.1693 85.0857L49.6897 91.1364L45.8826 88.9377L56.3632 82.888L60.1693 85.0857Z" fill="#282752"/>
<path d="M59.9064 84.9339L69.86 79.187L66.5788 77.2931L56.6262 83.04L59.9064 84.9339ZM70.386 79.187L59.9064 85.2377L56.0992 83.04L66.5788 76.9893L70.386 79.187Z" fill="#282752"/>
<path d="M70.123 79.0351L80.0756 73.2882L76.7965 71.3943L66.8428 77.1412L70.123 79.0351ZM80.6026 73.2882L70.123 79.3389L66.3159 77.1412L76.7965 71.0905L80.6026 73.2882Z" fill="#282752"/>
<path d="M80.3387 73.1363L90.2933 67.3904L87.0122 65.4954L77.0585 71.2424L80.3387 73.1363ZM90.8183 67.3904L80.3387 73.441L76.5325 71.2424L87.0122 65.1917L90.8183 67.3904Z" fill="#282752"/>
<path d="M90.5563 67.2375L100.509 61.4916L97.2288 59.5967L87.2761 65.3436L90.5563 67.2375ZM101.036 61.4916L90.5563 67.5413L86.7491 65.3436L97.2288 59.2929L101.036 61.4916Z" fill="#282752"/>
<path d="M37.1674 102.154L52.9699 93.0303L49.6897 91.1364L33.8872 100.26L37.1674 102.154ZM53.4969 93.0303L37.1674 102.458L33.3613 100.26L49.6897 90.8327L53.4969 93.0303Z" fill="#282752"/>
<path d="M53.2329 92.8785L63.1865 87.1316L59.9064 85.2377L49.9537 90.9846L53.2329 92.8785ZM63.7135 87.1316L53.2329 93.1823L49.4268 90.9846L59.9064 84.9339L63.7135 87.1316Z" fill="#282752"/>
<path d="M63.4506 86.9797L73.4033 81.2328L70.1231 79.3389L60.1694 85.0858L63.4506 86.9797ZM73.9292 81.2328L63.4506 87.2834L59.6425 85.0858L70.1231 79.0351L73.9292 81.2328Z" fill="#282752"/>
<path d="M73.6662 81.0809L83.6198 75.334L80.3386 73.4411L70.386 79.187L73.6662 81.0809ZM84.1468 75.334L73.6662 81.3846L69.86 79.187L80.3386 73.1363L84.1468 75.334Z" fill="#282752"/>
<path d="M83.8829 75.1831L93.8355 69.4352L90.5564 67.5413L80.6027 73.2882L83.8829 75.1831ZM94.3625 69.4352L83.8829 75.4858L80.0757 73.2882L90.5564 67.2375L94.3625 69.4352Z" fill="#282752"/>
<path d="M94.0995 69.2832L104.053 63.5373L100.772 61.6434L90.8183 67.3904L94.0995 69.2832ZM104.579 63.5373L94.0995 69.588L90.2933 67.3904L100.772 61.3387L104.579 63.5373Z" fill="#282752"/>
<path d="M40.7117 104.2L56.5142 95.0761L53.233 93.1822L37.4305 102.306L40.7117 104.2ZM57.0402 95.0761L40.7117 104.504L36.9045 102.306L53.233 92.8784L57.0402 95.0761Z" fill="#282752"/>
<path d="M56.7771 94.9243L66.7308 89.1773L63.4506 87.2834L53.497 93.0304L56.7771 94.9243ZM67.2568 89.1773L56.7771 95.228L52.97 93.0304L63.4506 86.9797L67.2568 89.1773Z" fill="#282752"/>
<path d="M66.9928 89.0255L76.9464 83.2796L73.6662 81.3847L63.7136 87.1316L66.9928 89.0255ZM77.4734 83.2796L66.9928 89.3292L63.1866 87.1316L73.6662 81.0809L77.4734 83.2796Z" fill="#282752"/>
<path d="M77.2104 83.1267L87.163 77.3808L83.8829 75.4858L73.9292 81.2328L77.2104 83.1267ZM87.689 77.3808L77.2104 83.4304L73.4033 81.2328L83.8829 75.1831L87.689 77.3808Z" fill="#282752"/>
<path d="M87.4259 77.2278L97.3795 71.4819L94.0993 69.588L84.1467 75.3339L87.4259 77.2278ZM97.9065 71.4819L87.4259 77.5326L83.6198 75.3339L94.0993 69.2833L97.9065 71.4819Z" fill="#282752"/>
<path d="M97.6426 71.33L107.596 65.5831L104.316 63.6892L94.3624 69.4351L97.6426 71.33ZM108.122 65.5831L97.6426 71.6338L93.8354 69.4351L104.316 63.3854L108.122 65.5831Z" fill="#282752"/>
<path d="M44.2547 106.246L60.0572 97.1218L56.7771 95.228L40.9746 104.352L44.2547 106.246ZM60.5832 97.1218L44.2547 106.551L40.4476 104.352L56.7771 94.9242L60.5832 97.1218Z" fill="#282752"/>
<path d="M60.3203 96.9699L70.2739 91.223L66.9928 89.3291L57.0401 95.076L60.3203 96.9699ZM70.8009 91.223L60.3203 97.2737L56.5142 95.076L66.9928 89.0254L70.8009 91.223Z" fill="#282752"/>
<path d="M70.5369 91.0712L80.4906 85.3243L77.2104 83.4304L67.2568 89.1773L70.5369 91.0712ZM81.0165 85.3243L70.5369 91.375L66.7308 89.1773L77.2104 83.1267L81.0165 85.3243Z" fill="#282752"/>
<path d="M80.7534 85.1724L90.7061 79.4255L87.4259 77.5326L77.4733 83.2795L80.7534 85.1724ZM91.2331 79.4255L80.7534 85.4772L76.9463 83.2795L87.4259 77.2278L91.2331 79.4255Z" fill="#282752"/>
<path d="M90.9701 79.2746L100.923 73.5277L97.6426 71.6338L87.6889 77.3807L90.9701 79.2746ZM101.45 73.5277L90.9701 79.5784L87.163 77.3807L97.6426 71.33L101.45 73.5277Z" fill="#282752"/>
<path d="M101.186 73.3758L111.139 67.6289L107.859 65.735L97.9055 71.4819L101.186 73.3758ZM111.665 67.6289L101.186 73.6796L97.3796 71.4819L107.859 65.4312L111.665 67.6289Z" fill="#282752"/>
<path d="M47.7978 108.293L63.6003 99.1677L60.3202 97.2738L44.5187 106.398L47.7978 108.293ZM64.1273 99.1677L47.7978 108.595L43.9917 106.398L60.3202 96.97L64.1273 99.1677Z" fill="#282752"/>
<path d="M63.8644 99.0158L73.818 93.2699L70.5368 91.375L60.5832 97.1219L63.8644 99.0158ZM74.344 93.2699L63.8644 99.3206L60.0572 97.1219L70.5368 91.0712L74.344 93.2699Z" fill="#282752"/>
<path d="M74.081 93.117L84.0336 87.3711L80.7534 85.4772L70.8008 91.2231L74.081 93.117ZM84.5606 87.3711L74.081 93.4218L70.2738 91.2231L80.7534 85.1724L84.5606 87.3711Z" fill="#282752"/>
<path d="M84.2976 87.2192L94.2503 81.4723L90.9701 79.5784L81.0164 85.3243L84.2976 87.2192ZM94.7762 81.4723L84.2976 87.522L80.4905 85.3243L90.9701 79.2747L94.7762 81.4723Z" fill="#282752"/>
<path d="M94.5133 81.3204L104.467 75.5735L101.186 73.6796L91.2332 79.4255L94.5133 81.3204ZM104.994 75.5735L94.5133 81.6241L90.7062 79.4255L101.186 73.3758L104.994 75.5735Z" fill="#282752"/>
<path d="M104.73 75.4216L114.684 69.6747L111.403 67.7808L101.45 73.5277L104.73 75.4216ZM115.21 69.6747L104.73 75.7253L100.924 73.5277L111.403 67.477L115.21 69.6747Z" fill="#282752"/>
<path d="M51.342 110.337L67.1445 101.213L63.8643 99.3205L48.0618 108.443L51.342 110.337ZM67.6705 101.213L51.342 110.642L47.5359 108.443L63.8643 99.0157L67.6705 101.213Z" fill="#282752"/>
<path d="M67.4076 101.063L77.3612 95.3146L74.081 93.4218L64.1274 99.1677L67.4076 101.063ZM77.8872 95.3146L67.4076 101.366L63.6004 99.1677L74.081 93.117L77.8872 95.3146Z" fill="#282752"/>
<path d="M77.6241 95.1638L87.5778 89.4169L84.2976 87.5219L74.344 93.2699L77.6241 95.1638ZM88.1038 89.4169L77.6241 95.4675L73.818 93.2699L84.2976 87.2192L88.1038 89.4169Z" fill="#282752"/>
<path d="M87.8409 89.264L97.7935 83.518L94.5133 81.6242L84.5607 87.3711L87.8409 89.264ZM98.3205 83.518L87.8409 89.5687L84.0337 87.3711L94.5133 81.3204L98.3205 83.518Z" fill="#282752"/>
<path d="M98.0575 83.3662L108.011 77.6193L104.73 75.7254L94.7763 81.4723L98.0575 83.3662ZM108.536 77.6193L98.0575 83.6699L94.2504 81.4723L104.73 75.4216L108.536 77.6193Z" fill="#282752"/>
<path d="M108.273 77.4674L118.227 71.7204L114.947 69.8265L104.994 75.5735L108.273 77.4674ZM118.754 71.7204L108.273 77.7711L104.467 75.5735L114.947 69.5228L118.754 71.7204Z" fill="#282752"/>
<path d="M49.1322 77.8751L21.9928 93.5441L21.2905 93.1394L48.4309 77.4694L49.1322 77.8751Z" fill="#282752"/>
<path d="M89.2047 54.7386L73.1402 64.0144L72.4379 63.6077L88.5034 54.3329L89.2047 54.7386Z" fill="#282752"/>
<path d="M28.1485 85.6677L18.2499 91.3831L17.5476 90.9784L27.4472 85.262L28.1485 85.6677Z" fill="#282752"/>
<path d="M39.4089 89.1967L29.5083 94.912L28.807 94.5063L38.7066 88.791L39.4089 89.1967Z" fill="#282752"/>
<path d="M44.6768 92.2383L34.7771 97.9536L34.0748 97.5479L43.9744 91.8326L44.6768 92.2383Z" fill="#282752"/>
<path d="M44.6961 96.3186L38.3202 99.9994L37.619 99.5947L43.9938 95.913L44.6961 96.3186Z" fill="#282752"/>
<path d="M46.8143 99.188L41.8645 102.045L41.1622 101.64L46.112 98.7823L46.8143 99.188Z" fill="#282752"/>
<path d="M55.3083 98.3756L45.4076 104.092L44.7064 103.686L54.606 97.9699L55.3083 98.3756Z" fill="#282752"/>
<path d="M58.8513 100.421L48.9517 106.138L48.2494 105.732L58.149 100.017L58.8513 100.421Z" fill="#282752"/>
<path d="M59.8208 103.953L52.495 108.183L51.7927 107.778L59.1195 103.549L59.8208 103.953Z" fill="#282752"/>
<path d="M37.3407 92.4096L31.2574 95.9211L30.5551 95.5165L36.6384 92.0039L37.3407 92.4096Z" fill="#282752"/>
<path d="M50.6244 82.7209L45.009 85.9634L44.3077 85.5577L49.9221 82.3152L50.6244 82.7209Z" fill="#282752"/>
<path d="M50.2076 84.9798L46.7572 86.9725L46.0549 86.5668L49.5063 84.5751L50.2076 84.9798Z" fill="#282752"/>
<path d="M55.1024 86.2182L51.652 88.2109L50.9507 87.8053L54.4011 85.8135L55.1024 86.2182Z" fill="#282752"/>
<path d="M58.6464 88.265L55.196 90.2567L54.4937 89.851L57.9441 87.8593L58.6464 88.265Z" fill="#282752"/>
<path d="M62.1897 90.3108L58.7393 92.3025L58.037 91.8978L61.4874 89.9051L62.1897 90.3108Z" fill="#282752"/>
<path d="M65.7328 92.3565L62.2824 94.3483L61.5811 93.9436L65.0315 91.9508L65.7328 92.3565Z" fill="#282752"/>
<path d="M69.277 94.4024L65.8266 96.3951L65.1243 95.9895L68.5747 93.9967L69.277 94.4024Z" fill="#282752"/>
<path d="M65.3526 80.3001L61.9022 82.2928L61.2009 81.8872L64.6513 79.8954L65.3526 80.3001Z" fill="#282752"/>
<path d="M68.8967 82.3458L65.4463 84.3386L64.744 83.9329L68.1944 81.9412L68.8967 82.3458Z" fill="#282752"/>
<path d="M75.9841 86.4374L72.5337 88.4302L71.8314 88.0245L75.2818 86.0328L75.9841 86.4374Z" fill="#282752"/>
<path d="M79.5272 88.4842L76.0769 90.476L75.3755 90.0703L78.826 88.0795L79.5272 88.4842Z" fill="#282752"/>
<path d="M83.0715 90.53L79.6201 92.5217L78.9188 92.1171L82.3681 90.1243L83.0715 90.53Z" fill="#282752"/>
<path d="M75.6039 74.3819L72.1535 76.3737L71.4512 75.969L74.9016 73.9762L75.6039 74.3819Z" fill="#282752"/>
<path d="M79.147 76.4277L75.6967 78.4194L74.9954 78.0148L78.4458 76.022L79.147 76.4277Z" fill="#282752"/>
<path d="M82.6912 78.4734L79.2408 80.4662L78.5395 80.0605L81.9889 78.0677L82.6912 78.4734Z" fill="#282752"/>
<path d="M86.2343 80.5202L82.7849 82.512L82.0816 82.1073L85.533 80.1145L86.2343 80.5202Z" fill="#282752"/>
<path d="M89.7784 82.566L86.327 84.5577L85.6257 84.1521L89.0761 82.1603L89.7784 82.566Z" fill="#282752"/>
<path d="M93.3207 84.6118L89.8713 86.6035L89.169 86.1988L92.6194 84.2061L93.3207 84.6118Z" fill="#282752"/>
<path d="M85.8541 68.4637L82.4047 70.4554L81.7014 70.0508L85.1528 68.058L85.8541 68.4637Z" fill="#282752"/>
<path d="M92.9415 72.5552L89.4911 74.548L88.7888 74.1423L92.2392 72.1505L92.9415 72.5552Z" fill="#282752"/>
<path d="M96.4846 74.601L93.0342 76.5938L92.3329 76.1881L95.7833 74.1963L96.4846 74.601Z" fill="#282752"/>
<path d="M103.572 78.6926L100.122 80.6853L99.4193 80.2796L102.871 78.2879L103.572 78.6926Z" fill="#282752"/>
<path d="M96.1044 62.5456L92.654 64.5374L91.9528 64.1317L95.4021 62.1399L96.1044 62.5456Z" fill="#282752"/>
<path d="M99.6485 64.5913L96.1981 66.583L95.4958 66.1783L98.9462 64.1856L99.6485 64.5913Z" fill="#282752"/>
<path d="M103.192 66.6371L99.7414 68.6288L99.0402 68.2241L102.491 66.2314L103.192 66.6371Z" fill="#282752"/>
<path d="M106.736 68.6829L103.286 70.6757L102.583 70.27L106.034 68.2782L106.736 68.6829Z" fill="#282752"/>
<path d="M110.279 70.7287L106.829 72.7205L106.127 72.3158L109.578 70.324L110.279 70.7287Z" fill="#282752"/>
<path d="M113.823 72.7744L110.372 74.7672L109.671 74.3615L113.12 72.3698L113.823 72.7744Z" fill="#282752"/>
<path d="M61.1561 76.6396L55.5417 79.8821L54.8394 79.4764L60.4538 76.235L61.1561 76.6396Z" fill="#282752"/>
<path d="M60.7402 78.8995L57.2898 80.8912L56.5875 80.4866L60.0379 78.4938L60.7402 78.8995Z" fill="#282752"/>
<path d="M72.4023 71.3626L66.7869 74.6051L66.0856 74.1994L71.701 70.958L72.4023 71.3626Z" fill="#282752"/>
<path d="M79.3438 66.1387L75.928 68.1111L75.2267 67.7054L78.6415 65.734L79.3438 66.1387Z" fill="#282752"/>
<path d="M83.6656 65.6626L77.6761 69.1211L76.9738 68.7154L82.9632 65.2579L83.6656 65.6626Z" fill="#282752"/>
<path d="M91.7366 58.9841L86.1212 62.2266L85.4199 61.8209L91.0343 58.5794L91.7366 58.9841Z" fill="#282752"/>
<path d="M93.4848 59.9931L87.8694 63.2356L87.1671 62.8299L92.7825 59.5885L93.4848 59.9931Z" fill="#282752"/>
<path d="M83.4322 53.7488L73.5326 59.4641L72.8303 59.0594L82.7299 53.3431L83.4322 53.7488Z" fill="#282752"/>
<path d="M71.6224 60.567L65.7104 63.9807L65.0081 63.576L70.9211 60.1623L71.6224 60.567Z" fill="#282752"/>
<path d="M32.6182 81.1278L16.5527 90.4036L15.4998 89.7961L31.5662 80.5203L32.6182 81.1278Z" fill="#282752"/>
<path d="M82.1531 57.8424C78.6242 57.8414 74.9159 57.1584 71.5563 55.8945C74.9149 57.1574 78.6242 57.8414 82.1531 57.8424Z" fill="#C95A60"/>
<path d="M67.0253 50.9498C67.0161 50.9427 67.0069 50.9345 66.9977 50.9264C65.428 49.5788 64.425 48.1416 63.9571 46.7309C64.1548 46.476 64.3771 46.2304 64.6248 45.9939L64.6258 46.0072L67.908 46.9684C68.0364 45.4812 69.1291 44.2927 71.022 43.6179C72.0739 43.2417 73.2777 43.0583 74.556 43.0379C79.5731 43.1531 84.9469 44.9277 88.4432 47.9296C89.2372 48.6105 89.8855 49.3159 90.3931 50.0284L81.8258 45.0816L78.8249 46.8135L76.507 45.4751L67.0253 50.9498Z" fill="#FDFDFD"/>
<path d="M69.0792 52.441C68.3433 51.9844 67.6542 51.4869 67.0253 50.9498L76.507 45.475L78.825 46.8134L69.0792 52.441Z" fill="#EFE3D6"/>
<path d="M81.4057 55.8252C80.9134 55.8252 80.418 55.8089 79.9196 55.7773L83.4321 53.7488L82.7298 53.3431L78.7045 55.6682C78.0094 55.5877 77.3152 55.4776 76.6251 55.339L83.2395 51.5206L86.59 53.4543L82.5341 55.7956C82.161 55.816 81.7849 55.8252 81.4057 55.8252ZM83.1284 55.7569L87.116 53.4543L83.2395 51.2169L76.2388 55.2584C73.6671 54.6999 71.1809 53.7407 69.0791 52.4411L78.8248 46.8134L81.8257 45.0816L90.3931 50.0283C90.8895 50.7235 91.2503 51.4268 91.4817 52.124C90.8069 52.9945 89.8396 53.7631 88.5766 54.3757L88.5032 54.3329L87.9243 54.6672C87.753 54.7376 87.5767 54.8059 87.3963 54.8701C86.0865 55.342 84.641 55.6326 83.1284 55.7569Z" fill="#F3F2F2"/>
<path d="M82.5343 55.7957L86.5901 53.4543L83.2397 51.5206L76.6253 55.339C76.4968 55.3135 76.3674 55.286 76.239 55.2585L83.2397 51.2169L87.1161 53.4543L83.1285 55.7569C82.9318 55.7722 82.733 55.7855 82.5343 55.7957Z" fill="#515072"/>
<path d="M87.9244 54.6672L88.5034 54.3329L88.5768 54.3757C88.3678 54.4777 88.1497 54.5745 87.9244 54.6672Z" fill="#515072"/>
<path d="M79.9197 55.7772C79.516 55.7507 79.1093 55.714 78.7047 55.6681L82.7299 53.3431L83.4322 53.7488L79.9197 55.7772Z" fill="#515072"/>
<path d="M67.9079 46.9683L64.6257 46.0071L64.6247 45.9938C65.4697 45.1896 66.6083 44.5025 68.0394 43.9878C69.8416 43.3385 71.8996 43.0317 74.0371 43.0317C74.2094 43.0317 74.3826 43.0337 74.5559 43.0378C73.2777 43.0582 72.0739 43.2416 71.0219 43.6178C69.1291 44.2926 68.0364 45.4811 67.9079 46.9683Z" fill="#FEFEFE"/>
<path d="M116.957 73.8182L116.728 78.767L117.625 96.3462C115.187 96.4818 114.431 96.5399 113.707 96.4757C112.911 96.4115 112.162 96.2066 111.45 95.8722C111.251 95.7835 111.065 95.6806 110.872 95.5715C110.405 95.2953 109.962 94.9691 109.533 94.5899C107.879 88.6728 107.968 82.4926 106.61 73.8631C106.501 73.1638 106.565 72.4401 106.814 71.7796L107.77 69.215L111.135 60.1818L115.546 61.7006L119.303 62.9962L120.862 63.5343L116.957 73.8182Z" fill="#182B3B"/>
<path d="M107.77 69.215C107.457 68.1661 107.271 67.0785 107.206 66.1122L107.355 66.0266C107.809 66.3059 108.26 66.5291 108.705 66.7054L107.77 69.215Z" fill="#D8C2AA"/>
<path d="M107.206 66.1122C107.202 66.05 107.198 65.9878 107.195 65.9267C107.197 65.9277 107.199 65.9287 107.202 65.9307C107.253 65.9634 107.304 65.995 107.355 66.0266L107.206 66.1122Z" fill="#241F3A"/>
<path d="M110.872 95.5714C110.27 95.4236 109.288 95.18 108.314 94.918L109.533 94.5898C109.962 94.969 110.405 95.2952 110.872 95.5714Z" fill="#241F3A"/>
<path d="M107.062 30.1577C107.198 30.2678 107.296 30.4156 107.385 30.5664C107.647 31.0129 107.831 31.5052 107.923 32.0149C107.959 32.2147 107.981 32.4247 107.923 32.6183C107.864 32.813 107.708 32.9904 107.506 33.0179C107.233 33.0556 107.003 32.8242 106.838 32.6041C106.524 32.1861 106.006 31.5358 105.977 30.9833C105.947 30.4064 106.469 29.6735 107.062 30.1577Z" fill="#FFB2A3"/>
<path d="M83.9579 48.5275C85.8553 50.1561 87.0685 51.8945 87.6331 53.6008C86.579 54.9607 84.9319 56.1159 82.6917 56.9222C75.2561 59.6001 64.2069 57.4647 58.019 52.1522C56.1204 50.5223 54.9072 48.7839 54.3413 47.0776C55.3942 45.7189 57.0401 44.5662 59.279 43.7598C66.722 41.0795 77.7712 43.2162 83.9579 48.5275ZM50.1002 43.1323L49.1003 49.176C48.5677 52.4037 50.1519 56.0456 53.9727 59.3251C61.5599 65.8397 75.1106 68.4634 84.2291 65.1789C88.7637 63.5466 91.3491 60.7652 91.8743 57.5794C91.8743 57.5794 92.7768 51.9031 92.7275 52.1041C93.5757 48.7309 92.0666 44.8399 88.0042 41.3545C80.417 34.8399 66.8675 32.2163 57.7404 35.5032C53.196 37.1392 50.6118 39.9342 50.1002 43.1323Z" fill="#BF343B"/>
<path d="M75.4471 58.08C69.2075 58.08 62.3994 55.9125 58.0177 52.1547C55.7208 50.1796 54.4201 48.0602 54.0737 46.0148C54.1859 43.1582 56.1129 40.7196 59.8177 39.3991C61.7176 38.7211 63.9035 38.3993 66.2214 38.3993C72.9468 38.3993 80.7905 41.0981 86.0512 45.6179C87.2065 46.6091 88.1545 47.6151 88.9263 48.6384C89.4922 52.077 87.3593 55.248 82.6904 56.926C80.5143 57.7088 78.03 58.08 75.4471 58.08ZM73.6483 58.0195C74.2512 58.0578 74.8504 58.0775 75.4459 58.0775C75.9045 58.0775 76.3594 58.0664 76.8107 58.0417C77.0511 58.0294 77.2915 58.0134 77.5295 57.9949C79.3591 57.8445 81.1073 57.4931 82.6916 56.9223C82.9098 56.8446 83.1231 56.762 83.3302 56.6769C83.6027 56.5647 83.8665 56.4476 84.1193 56.3243C85.6468 55.5833 86.8169 54.6537 87.633 53.6008C87.3532 52.7575 86.9167 51.9068 86.3163 51.066C85.7023 50.2042 84.9182 49.3511 83.9578 48.5275C79.7289 44.8966 73.2291 42.7502 67.1608 42.6108C67.2558 42.6084 67.3519 42.6084 67.4493 42.6084C67.5122 42.6084 67.5751 42.6084 67.638 42.6084L65.8848 39.4867C63.8271 39.5224 61.889 39.8196 60.195 40.4237C57.0338 41.5518 55.2387 43.5626 55.1413 46.0839L55.1487 46.1862C54.8492 46.4723 54.5804 46.7694 54.3412 47.0776C54.9071 48.7839 56.1203 50.5223 58.0189 52.1522C58.03 52.1621 58.0411 52.1719 58.0522 52.1805C58.8129 52.8303 59.6463 53.432 60.5365 53.9843C63.0787 55.5562 66.0857 56.7164 69.1963 57.392C69.3517 57.4253 69.5083 57.4586 69.6636 57.4894C70.4983 57.6571 71.3379 57.7902 72.1787 57.8876C72.6682 57.9431 73.1601 57.9875 73.6483 58.0195Z" fill="#C95A60"/>
<path d="M84.9639 42.4483C87.2744 44.4283 88.5763 46.5834 88.9264 48.6386C89.4923 52.0772 87.3594 55.2482 82.6905 56.9261C75.2573 59.6003 64.2118 57.4686 58.0178 52.1548C55.7209 50.1797 54.4202 48.0604 54.0738 46.015C53.4672 42.5568 55.6013 39.3611 60.2814 37.6794C67.7244 35.0004 78.7723 37.1444 84.9639 42.4483ZM54.975 53.2521C57.3052 55.2494 60.2 56.8818 63.3451 58.09C70.4614 60.8135 78.9166 61.3794 85.2314 59.1022C87.8735 58.148 89.8548 56.8041 91.1493 55.2297C94.3364 51.3337 93.3969 45.9879 88.0042 41.351C80.4219 34.8413 66.8663 32.2115 57.7404 35.5034C48.6231 38.7915 47.389 46.7313 54.975 53.2521Z" fill="#EA6C78"/>
<path d="M55.1489 46.1864L55.1415 46.0841C55.2389 43.5628 57.034 41.552 60.1951 40.4239C61.8891 39.8197 63.8272 39.5226 65.8849 39.4868L67.6381 42.6085C67.5752 42.6085 67.5123 42.6085 67.4495 42.6085C67.3521 42.6085 67.2559 42.6085 67.161 42.611C66.9514 42.6061 66.7418 42.6036 66.5334 42.6036C63.9481 42.6036 61.4588 42.9747 59.2791 43.76C57.5481 44.3827 56.171 45.2136 55.1489 46.1864Z" fill="#DF9CA0"/>
<path d="M93.9208 60.3869L98.2064 58.7249L100.151 56.4268L102.629 59.0911L100.072 61.6617L98.644 64.1595L92.5757 61.4841L93.9208 60.3869Z" fill="#FFB2A3"/>
<path d="M108.022 128.953C108.022 128.953 107.77 131.04 112.084 131.573C116.397 132.105 118.578 131.573 118.578 131.573C118.578 131.573 121.873 132.628 123.714 131.81C125.557 130.991 125.073 130.409 125.073 130.409C124.943 128.2 124.32 126.019 123.165 123.867L118.169 122.025L117.451 125.407L113.715 126.762C113.715 126.762 108.57 127.073 108.022 128.953Z" fill="#282752"/>
<path d="M114.515 103.996V113.403C114.243 113.394 113.995 113.379 113.769 113.347C111.296 113.061 111.079 111.821 109.374 111.463C107.504 111.076 107.768 111.51 103.309 110.928C98.8501 110.346 98.0277 107.772 99.9671 106.71C101.905 105.648 105.868 105.935 105.868 105.935L107.992 105.362L109.466 104.965L110.591 102.414L111.971 102.972L114.515 103.996Z" fill="#282752"/>
<path d="M111.534 70.5864C111.534 70.5864 106.753 85.9668 109.336 98.1157C109.336 98.1157 113.991 115.821 115.848 123.304C116.345 125.301 118.126 126.7 120.184 126.723C120.974 126.731 121.813 126.689 122.609 126.554C124.158 126.29 125.247 124.887 125.199 123.316C125.055 118.5 124.304 106.692 120.493 97.2638L124.328 78.6002C127.4 75.5698 128.982 71.4877 126.655 64.6414L111.534 70.5864Z" fill="#34559C"/>
<path d="M98.0055 58.6878C98.9708 59.79 100.064 60.6271 101.527 60.6838C101.527 60.6838 107.537 54.2753 112.935 47.5794L118.166 32.638L107.938 34.406L105.718 43.6095L98.0055 58.6878Z" fill="#EEDFCF"/>
<path d="M126.653 64.6438C126.001 70.2128 121.751 70.2128 118.168 70.8071C114.738 71.6701 110.873 73.0053 106.647 70.3003C106.451 70.177 106.617 69.8294 106.617 69.6038V54.0422C106.406 52.9178 106.233 51.7946 106.095 50.6628C105.652 47.0664 105.594 43.4689 105.949 39.8577C106.203 37.3056 107.081 34.883 108.48 32.7945C109.322 31.5258 110.352 30.3718 111.548 29.4016C112.121 28.922 112.723 28.488 113.369 28.1033L113.477 28.038C114.921 27.4363 116.247 27.2835 117.443 27.4795C123.223 28.4214 126.087 37.3266 125.232 41.4679C124.434 45.3404 124.643 54.6364 126.653 64.6438Z" fill="#EEDFCF"/>
<path d="M111.464 106.248C111.363 106.222 111.236 106.19 111.086 106.152C110.521 105.818 109.985 105.423 109.466 104.964C107.832 99.1193 107.605 93.0621 106.681 85.3504C106.668 85.2369 106.653 85.1211 106.639 85.0076C106.473 83.6453 106.286 82.2312 106.064 80.7578C106.046 80.6457 106.029 80.5335 106.012 80.42C105.985 80.245 105.958 80.0711 105.93 79.8948C105.889 79.6297 105.869 79.3634 105.869 79.0959C105.869 78.509 105.97 77.9234 106.178 77.3748L107.333 74.2728L108.465 71.2374C109.385 71.5999 110.285 71.7947 111.168 71.8699C110.1 75.809 107.199 88.0677 109.336 98.1158C109.336 98.1158 110.268 101.659 111.464 106.248Z" fill="#152229"/>
<path d="M111.738 106.315C111.702 106.306 111.607 106.283 111.464 106.248C110.268 101.659 109.336 98.1158 109.336 98.1158C107.199 88.0677 110.1 75.8091 111.168 71.87C111.472 71.8971 111.776 71.9094 112.077 71.9094C113.875 71.9094 115.59 71.4755 117.214 71.0538L118.166 79.6076L118.004 79.9183L112.925 89.3241L111.971 102.972L111.738 106.315Z" fill="#2E446E"/>
<path d="M112.076 71.9092C111.776 71.9092 111.472 71.8968 111.168 71.8697C110.285 71.7945 109.385 71.5997 108.465 71.2373C107.926 71.024 107.382 70.754 106.832 70.4162C106.77 70.3779 106.708 70.3397 106.647 70.3002C106.643 70.2978 106.641 70.2966 106.638 70.2953C106.626 70.0574 106.62 69.8268 106.62 69.6049L110.361 66.1454V45.8261L116.739 65.1837L116.701 66.4475L116.927 68.4719L117.214 71.0536C115.59 71.4752 113.875 71.9092 112.076 71.9092Z" fill="#D4B291"/>
<path d="M85.9528 64.5146L117.197 88.0493C122.519 91.2857 127.256 81.6112 122.731 78.6288L90.6994 58.2195C89.183 56.8657 83.3871 61.1168 85.9528 64.5146Z" fill="#EA6C78"/>
<path d="M114.751 74.2544C114.627 74.332 114.074 78.4967 114.074 78.4967L112.851 81.7652L112.327 85.2345C112.327 85.2345 113 87.3341 114.364 87.455C114.98 87.7398 115.584 88.3427 116.007 87.9136L116.498 88.4339C117.02 88.9085 118.433 89.2229 118.046 88.7224L117.289 87.9087L118.626 84.4331C118.666 83.7834 118.58 83.1312 118.372 82.5135L117.877 81.0415L117.733 79.0602L116.768 75.1149L114.751 74.2544Z" fill="#FFB2A3"/>
<path d="M110.067 47.1589L113.88 60.42C114.352 65.8903 113.787 72.3457 114.074 78.4966L118.363 79.1575C120.341 74.2653 121.331 67.339 122.179 60.1204L118.562 44.0558C115.805 35.1271 107.559 40.9575 110.067 47.1589Z" fill="#EEDFCF"/>
<path d="M92.1269 60.8332L93.1897 60.1539C94.0133 60.1058 94.684 59.8752 95.727 59.6866L96.013 60.4904L96.4963 60.6741L96.7934 61.8774L94.7395 61.2906C93.6878 61.3054 93.6015 61.097 92.8975 61.4595C91.8471 62.0032 90.9557 60.9663 92.1269 60.8332Z" fill="#FFB2A3"/>
<path d="M109.861 38.3992L109.273 35.5105L108.087 35.4168C108.274 34.9742 108.299 33.2075 108.48 32.7944C109.322 31.5258 110.352 30.3718 111.548 29.4015C112.121 28.9219 112.722 28.4879 113.368 28.1033L113.477 28.038C114.921 27.4363 116.247 27.2834 117.443 27.4795L117.617 27.6101C118.799 28.9084 118.012 34.3627 109.861 38.3992Z" fill="white"/>
<path d="M109.273 34.3504L107.284 28.811L114.507 25.5291L116.148 28.811C116.696 30.7701 110.709 36.074 109.273 35.5106V34.3504Z" fill="#FFB2A3"/>
<path d="M109.621 32.0239L106.241 32.5146C105.483 32.6256 104.723 32.3679 104.195 31.8156C102.809 30.3682 100.75 26.8803 99.983 24.0607C98.8031 19.7258 102.925 16.8248 105.955 16.4944C108.986 16.1627 112.334 17.2304 113.92 20.7319C115.505 24.2333 114.032 28.1341 114.032 28.1341L109.621 32.0239Z" fill="#FFB2A3"/>
<path d="M100.439 25.4442C100.439 25.4442 101.684 26.4885 103.692 26.8164C104.081 26.8805 104.421 27.116 104.652 27.4353L105.487 28.5967L107.239 29.2329L107.761 29.9073C108.253 30.5435 109.081 30.8307 109.854 30.6051C111.031 30.2624 112.841 29.3377 114.862 26.8867C114.862 26.8867 116.426 21.1501 112.179 17.7621C107.933 14.3728 103.277 16.7153 101.856 17.8459C100.434 18.9777 97.2965 22.9045 100.439 25.4442Z" fill="#282752"/>
<path d="M109.273 35.5106L108.798 35.4169L108.645 37.2268C107.244 42.6244 107.168 48.5213 107.448 51.0845L108.769 56.4266L109.068 52.8698C108.197 47.228 108.545 42.9548 109.159 37.6694L109.598 37.1097L109.273 35.5106Z" fill="#EA6C78"/>
</svg>
