<svg width="132" height="132" viewBox="0 0 132 132" fill="none" xmlns="http://www.w3.org/2000/svg">
<path d="M63.4621 117.329V112.951L64.4074 113.54V117.872L63.4621 117.329Z" fill="#C64F1F"/>
<path d="M59.9288 75.7534L29.5728 93.2947L30.5181 93.8894L60.9647 76.3067L59.9288 75.7534Z" fill="#E05F1C"/>
<path d="M60.9648 76.3041L30.5181 93.8841V98.2161L60.9648 80.6361V76.3041Z" fill="#AC401F"/>
<path d="M29.5728 97.6734V93.2947L30.5194 93.8841V98.2161L29.5728 97.6734Z" fill="#C64F1F"/>
<path d="M76.3821 85.0959L46.0261 102.637L46.9714 103.232L77.4168 85.6506L76.3821 85.0959Z" fill="#E05F1C"/>
<path d="M77.4168 85.648L46.9714 103.228V107.56L77.4168 89.98V85.648Z" fill="#AC401F"/>
<path d="M46.0261 107.017V102.637L46.9714 103.228V107.56L46.0261 107.017Z" fill="#C64F1F"/>
<path d="M64.4074 112.216L29.5728 92.1041V93.5041L64.4074 113.617V112.216Z" fill="#C64F1F"/>
<path d="M68.0594 110.175L64.4074 112.216L29.5728 92.1041L33.2061 90.0614L68.0594 110.175Z" fill="#E05F1C"/>
<path d="M71.2007 108.212L36.2674 88.0146V89.4146L71.2007 109.613V108.212Z" fill="#C64F1F"/>
<path d="M74.8541 106.171L71.2007 108.212L36.2674 88.0146L39.9007 85.9719L74.8541 106.171Z" fill="#E05F1C"/>
<path d="M78.1568 104.271L43.1421 84.0294V85.4308L78.1568 105.672V104.271Z" fill="#C64F1F"/>
<path d="M81.8088 102.229L78.1568 104.271L43.1421 84.0294L46.7754 81.9881L81.8088 102.229Z" fill="#E05F1C"/>
<path d="M84.9515 100.268L50.0181 80.1533V81.5546L84.9515 101.668V100.268Z" fill="#C64F1F"/>
<path d="M88.6034 98.2254L84.9515 100.268L50.0181 80.1534L53.6501 78.1134L88.6034 98.2254Z" fill="#E05F1C"/>
<path d="M48.8621 100.639L48.8674 89.7893L33.1301 80.692V91.5173L48.8621 100.639Z" fill="#D9A14E"/>
<path d="M48.8621 100.639L48.8674 89.7893L71.5208 76.7013V87.528L48.8621 100.639Z" fill="#E6AF64"/>
<path d="M71.5208 76.7013L48.8674 89.7893L33.1301 80.6906L55.7888 67.608L71.5208 76.7013Z" fill="#FDDDB6"/>
<path d="M38.9808 89.8014L42.4901 91.8401V86.0908L38.9808 84.0521V89.8014Z" fill="#464648"/>
<path d="M38.9808 84.052L61.6181 70.9773L65.1381 73.0106L42.4901 86.0986L38.9808 84.052Z" fill="#656769"/>
<path d="M47.6901 98.8413V97.8293L42.4061 94.7653V95.792L47.6901 98.8413Z" fill="#464648"/>
<path d="M47.6901 97.0308V96.0188L42.4061 92.9548V93.9814L47.6901 97.0308Z" fill="#464648"/>
<path d="M49.5515 90.2387V95.5L54.7461 92.5V87.232L49.5515 90.2387Z" fill="white"/>
<path d="M50.1888 91.3147V90.4587L54.2741 88.1027V88.9454L50.1888 91.3147Z" fill="#464648"/>
<path d="M66.1407 110.773L66.1461 99.9239L50.4088 90.8252V101.652L66.1407 110.773Z" fill="#D9A14E"/>
<path d="M88.7994 86.8361L66.1461 99.9241L50.4088 90.8254L73.0674 77.7414L88.7994 86.8361Z" fill="#FDDDB6"/>
<path d="M48.8621 88.6694L48.8674 77.8201L33.1301 68.7228V79.5494L48.8621 88.6694Z" fill="#D9A14E"/>
<path d="M48.8621 88.6694L48.8674 77.8201L71.5208 64.7321V75.5588L48.8621 88.6694Z" fill="#E6AF64"/>
<path d="M71.5208 64.7321L48.8674 77.8201L33.1301 68.7214L55.7888 55.6388L71.5208 64.7321Z" fill="#FDDDB6"/>
<path d="M38.9808 77.8333L42.4901 79.8706V74.1226L38.9808 72.0826V77.8333Z" fill="#464648"/>
<path d="M38.9808 72.0827L61.6181 59.008L65.1381 61.0414L42.4901 74.1294L38.9808 72.0827Z" fill="#656769"/>
<path d="M47.6901 86.8733V85.8613L42.4061 82.796V83.824L47.6901 86.8733Z" fill="#464648"/>
<path d="M47.6901 85.0627V84.0494L42.4061 80.9854V82.0134L47.6901 85.0627Z" fill="#464648"/>
<path d="M49.5515 78.2707V83.532L54.7461 80.5306V75.2626L49.5515 78.2707Z" fill="white"/>
<path d="M50.1888 79.3467V78.4907L54.2741 76.1347V76.976L50.1888 79.3467Z" fill="#464648"/>
<path d="M66.1407 98.804L66.1461 87.9559L50.4088 78.8573V89.6839L66.1407 98.804Z" fill="#D9A14E"/>
<path d="M88.7994 74.8679L66.1461 87.9546L50.4088 78.8559L73.0674 65.7732L88.7994 74.8679Z" fill="#FDDDB6"/>
<path d="M65.5861 85.8293L65.5808 72.2213L37.1674 55.8054V69.384L65.5861 85.8293Z" fill="#E6AF64"/>
<path d="M37.1674 55.8055L65.5808 72.2214L85.3208 60.8094L56.8994 44.3988L37.1674 55.8055Z" fill="#FDDDB6"/>
<path d="M77.9808 65.0254L49.5861 48.6254L45.1741 51.1774L73.5795 67.592L77.9808 65.0254Z" fill="#656769"/>
<path d="M41.1568 65.5173V70.1079L37.9874 68.2772V63.6853L41.1568 65.5173Z" fill="#464648"/>
<path d="M45.4808 68.0254V72.6174L42.3115 70.7854V66.1948L45.4808 68.0254Z" fill="#464648"/>
<path d="M49.8635 70.5414V75.1348L46.6942 73.3028V68.7107L49.8635 70.5414Z" fill="#464648"/>
<path d="M43.5395 71.0667L43.5355 63.1013L56.2821 55.732V63.68L43.5395 71.0667Z" fill="#D9A14E"/>
<path d="M43.5394 71.0667L43.5354 63.1013L25.1901 52.5013V60.4493L43.5394 71.0667Z" fill="#E6AF64"/>
<path d="M25.1901 52.5161L43.5354 63.1147L56.2821 55.7467L37.9301 45.1507L25.1901 52.5161Z" fill="#FDDDB6"/>
<path d="M44.4901 69.6133V68.792L48.7688 66.3106V67.1426L44.4901 69.6133Z" fill="#464648"/>
<path d="M44.4901 68.1453V67.3253L48.7688 64.8439V65.6759L44.4901 68.1453Z" fill="#464648"/>
<path d="M28.3581 55.72V59.4187L25.8047 57.9427V54.2454L28.3581 55.72Z" fill="#464648"/>
<path d="M31.8421 57.74V61.4387L29.2888 59.9627V56.2654L31.8421 57.74Z" fill="#464648"/>
<path d="M42.5368 63.944V68.3586L36.0234 64.5946V60.172L42.5368 63.944Z" fill="white"/>
<path d="M41.7394 65.2932V64.2185L36.6141 61.2639V62.3199L41.7394 65.2932Z" fill="#464648"/>
<path d="M53.0608 61.7841L48.6581 64.3401V60.1508L53.0608 57.5934V61.7841Z" fill="#464648"/>
<path d="M53.0608 57.5932L34.7381 46.9959L30.3101 49.5546L48.6581 60.1599L53.0608 57.5932Z" fill="#656769"/>
<path d="M23.9687 65.1013C25.0261 61.512 25.5661 57.56 23.7808 54.656L19.8994 54.7466C19.8994 54.7466 18.3341 58.1533 17.9314 60.6973C17.5287 63.2413 18.1154 64.452 19.1288 65.6573C20.1408 66.8613 23.7461 65.2533 23.8808 65.164L23.9687 65.1013Z" fill="#FABAAC"/>
<path d="M90.1341 84.2612C90.1341 84.2612 89.1328 85.3492 87.7954 86.6532C86.5581 87.8586 86.1754 88.2052 85.0261 89.3279C84.3568 89.9812 84.9087 90.5826 86.1861 90.5332C87.3087 90.4906 89.8541 89.9439 91.2767 89.4319C92.2887 89.0692 94.1407 88.0439 95.0874 87.4465C96.0354 86.8465 96.2194 86.0159 96.2194 86.0159V84.0026L90.1341 84.2612Z" fill="#464648"/>
<path d="M108.419 82.4745C108.419 82.4745 107.781 83.4078 106.443 84.7131C105.206 85.9185 104.841 86.3958 103.746 87.8358C103.495 88.1638 103.35 89.1038 104.629 89.0545C105.751 89.0105 107.462 88.5318 108.887 88.0251C110.514 87.4465 111.886 85.8078 112.833 85.2091C113.779 84.6105 114.197 83.2878 114.197 83.2878L113.542 81.3038L108.419 82.4745Z" fill="#464648"/>
<path d="M107.911 49.8305C108.383 42.4465 104.313 38.5665 104.313 38.5665C104.637 36.0772 93.0955 39.5599 93.0955 39.5599C93.0955 39.5599 90.6261 52.9359 89.5821 59.9785C88.3941 67.9839 89.1128 84.2865 89.1128 84.2865C89.1128 84.2865 89.2621 86.0265 92.2448 86.0145C94.5315 86.0065 96.2195 84.0025 96.2195 84.0025L96.4568 65.4492L99.1075 52.2919C99.1075 52.2919 101.658 62.9852 102.469 66.8225C103.329 70.9039 106.627 82.9825 106.627 82.9825C106.627 82.9825 108.762 85.4345 111.414 84.1105C114.063 82.7852 113.542 81.3039 113.542 81.3039C113.542 81.3039 113.022 72.7385 109.614 65.0705C109.33 59.2492 107.693 53.2212 107.911 49.8305Z" fill="#2B668D"/>
<path d="M94.6754 20.1758C94.6754 20.1758 93.0261 20.0945 91.3208 23.2959C89.6181 26.4972 87.9888 29.9052 87.9888 29.9052C87.9888 29.9052 90.4701 30.2598 93.1674 32.7438C96.8594 29.4078 97.4621 21.7345 94.6754 20.1758Z" fill="#DE1A35"/>
<path d="M94.6754 20.1759C94.6754 20.1759 93.7475 21.9546 92.8955 25.22C92.0421 28.4866 92.3488 43.6706 92.3488 43.6706C92.3488 43.6706 95.8661 46.1586 101.757 45.6706C105.259 45.3813 107.046 43.2133 107.046 43.2133C107.046 43.2133 109.141 28.3426 108.858 26.2133C108.574 24.0826 104.117 19.08 104.117 19.08C104.117 19.08 98.2248 18.7799 94.6754 20.1759Z" fill="#EE253D"/>
<path d="M98.7074 18.0999L98.0234 22.0879C98.0234 22.0879 100.054 24.3666 102.041 22.6626C104.029 20.9599 104.313 20.1759 104.313 20.1759L103.335 14.7386L98.7074 18.0999Z" fill="#F89D8E"/>
<path d="M99.5808 29.3945C99.5808 29.3945 102.146 25.5332 104.177 24.4505C106.206 23.3665 107.302 23.1652 107.302 23.1652C107.302 23.1652 106.562 21.6385 106.067 21.4612C105.206 21.5905 104.65 21.8278 102.822 22.7745C100.995 23.7225 98.9941 26.0212 98.1941 27.4305C96.5874 30.2705 98.4021 31.0332 99.5808 29.3945Z" fill="#2B668D"/>
<path d="M95.4621 19.8293C95.4621 19.8293 93.7888 23.8173 93.5861 25.7333C93.3848 27.6506 93.7688 28.2399 94.5395 28.3079C95.3101 28.3746 95.3528 27.0079 95.5821 25.4826C95.7968 24.0412 97.2048 19.3066 97.2048 19.3066L95.4621 19.8293Z" fill="#2B668D"/>
<path d="M107.335 41.1093C107.335 41.1093 105.462 42.588 103.609 42.3853C101.982 42.208 99.6408 40.6253 99.7648 35.4827C99.8901 30.3387 100.366 27.9693 100.366 27.9693L94.1515 25.2453C94.1515 25.2453 92.4635 29.152 92.1301 36.8173C91.7968 44.4813 91.6555 47.1227 91.6555 47.1227C91.6555 47.1227 98.2888 47.5293 102.214 47.1227C106.138 46.716 107.781 46.2307 107.781 46.2307L107.335 41.1093Z" fill="#2B668D"/>
<path d="M94.8368 26.6533C94.8368 26.9693 94.6608 27.2253 94.4434 27.2253C94.2261 27.2253 94.0501 26.9693 94.0501 26.6533C94.0501 26.3386 94.2261 26.0826 94.4434 26.0826C94.6608 26.0826 94.8368 26.3386 94.8368 26.6533Z" fill="white"/>
<path d="M98.5608 28.392C98.3755 28.648 98.3701 28.9586 98.5461 29.084C98.7234 29.2106 99.0154 29.1066 99.1994 28.8506C99.3834 28.5946 99.3901 28.284 99.2128 28.1573C99.0368 28.0306 98.7448 28.1346 98.5608 28.392Z" fill="white"/>
<path d="M93.6167 29.1387C93.3621 30.424 93.4914 34.4707 95.7847 35.08C97.8621 35.632 98.4007 33.1813 98.8794 31.2853C96.1887 30.6773 93.6167 29.1387 93.6167 29.1387Z" fill="#3A8AAC"/>
<path d="M101.513 8.75181C99.8141 7.45981 95.7941 7.04383 94.3261 11.1985C92.7875 15.5545 96.7301 20.9958 98.8314 20.0718C100.007 19.5545 102.481 17.7158 103.178 15.4211C103.962 12.8398 102.83 9.75581 101.513 8.75181Z" fill="#FABAAC"/>
<path d="M85.2888 56.1733V40.372L98.0234 34.0226V48.9293L85.2888 56.1733Z" fill="#D9A14E"/>
<path d="M85.2888 56.1733V40.372L72.5541 34.0226V48.9293L85.2888 56.1733Z" fill="#E6AF64"/>
<path d="M85.2928 56.3093L85.2888 40.372L98.0234 33.0106V48.9293L85.2928 56.3093Z" fill="#D9A14E"/>
<path d="M85.2928 56.3093L85.2888 40.372L72.5541 33.0106V48.9293L85.2928 56.3093Z" fill="#E6AF64"/>
<path d="M72.5541 33.0106L85.2888 40.372L98.0235 33.0106L85.2928 25.6507L72.5541 33.0106Z" fill="#FDDDB6"/>
<path d="M93.2888 40.3827L90.4488 42.0307V37.38L93.2888 35.7294V40.3827Z" fill="#464648"/>
<path d="M93.2888 35.7292L80.5728 28.3772L77.7261 30.0225L90.4488 37.3852L93.2888 35.7292Z" fill="#656769"/>
<path d="M86.9754 54.0292V53.2092L91.2501 50.7306V51.5612L86.9754 54.0292Z" fill="#464648"/>
<path d="M86.9754 52.5639V51.7439L91.2501 49.2652V50.0959L86.9754 52.5639Z" fill="#464648"/>
<path d="M95.0875 46.596V49.4387L97.1341 48.2546V45.4106L95.0875 46.596Z" fill="#464648"/>
<path d="M75.3568 46.2985V49.2612L73.3101 48.0798V45.1172L75.3568 46.2985Z" fill="#464648"/>
<path d="M78.1448 47.9159V50.8786L76.1008 49.6973V46.736L78.1448 47.9159Z" fill="#464648"/>
<path d="M77.5128 37.6398V41.8972L73.3101 39.4692V35.2065L77.5128 37.6398Z" fill="white"/>
<path d="M76.9981 38.5107V37.8174L73.6928 35.912V36.5934L76.9981 38.5107Z" fill="#464648"/>
<path d="M101.169 33.9279C101.169 33.9279 98.7554 38.9972 97.7581 40.4118C96.7594 41.8252 92.7021 45.0545 91.8674 45.5225C91.0341 45.9918 89.1248 46.5879 88.1274 46.4945C87.1301 46.3985 86.4554 46.8878 87.4168 47.2505C88.3781 47.6145 89.3088 47.7012 89.3088 47.7012C89.3088 47.7012 87.5568 48.9959 86.8621 50.1012C86.3034 50.9905 85.8314 52.6225 87.9888 52.1492C89.7328 51.7678 92.1501 49.0959 92.7848 48.5012C93.9821 47.3772 98.7394 44.8052 99.8128 44.0438C101.334 42.9678 105.638 36.6239 105.638 36.6239C105.638 36.6239 104.313 33.2612 101.169 33.9279Z" fill="#FABAAC"/>
<path d="M108.097 24.3772C106.847 23.3706 104.171 26.7812 102.751 28.9106C101.331 31.0412 100.194 34.2279 100.194 34.2279C100.194 34.2279 101.905 35.4706 103.435 36.4359C104.718 37.2453 106.075 37.8586 106.075 37.8586C106.075 37.8586 112.385 27.8319 108.097 24.3772Z" fill="#DE1A35"/>
<path d="M93.9781 12.5827C94.6795 13.296 95.6995 14.0893 97.8048 13.7413C99.5288 13.4573 100.763 12.6533 100.763 12.6533L101.117 14.9613C101.117 14.9613 101.462 14.8987 101.722 14.7387C101.757 13.8253 102.083 13.5413 102.585 13.8133C103.154 14.12 103.178 15.4213 103.178 15.4213C103.178 15.4213 104.893 13.7653 104.313 11.1627C103.953 9.54 101.762 6.33466 98.7075 6.61866C95.6515 6.90266 93.8755 8.92134 93.4968 10.6693C93.3075 11.5453 93.6621 12.26 93.9781 12.5827Z" fill="#464648"/>
<path d="M93.3608 10.5813C93.3608 10.5813 89.4368 13.344 88.7608 13.9293C88.0848 14.5133 91.8634 17.0627 94.5381 16.2107C97.2141 15.3587 101.241 12.3813 101.241 12.3813L93.3608 10.5813Z" fill="#2B668D"/>
<path d="M93.3608 10.5814C93.3608 10.5814 97.8354 13.3614 100.627 12.5654C103.419 11.7681 104.178 11.0747 104.178 11.0747C104.178 11.0747 103.934 5.2374 98.8034 5.2374C93.6701 5.2374 93.3608 10.5814 93.3608 10.5814Z" fill="#224E78"/>
<path d="M99.0301 5.42666C99.0301 5.66133 98.6874 5.85199 98.2608 5.85199C97.8354 5.85199 97.4901 5.66133 97.4901 5.42666C97.4901 5.19066 97.8354 5 98.2608 5C98.6874 5 99.0301 5.19066 99.0301 5.42666Z" fill="#2B668D"/>
<path d="M93.8167 95.4079L63.4621 112.951L64.4074 113.544L94.8541 95.9626L93.8167 95.4079Z" fill="#E05F1C"/>
<path d="M94.8541 95.96L64.4074 113.54V117.872L94.8541 100.292V95.96Z" fill="#AC401F"/>
<path d="M68.0594 110.175L64.4074 112.216V114.827L68.0594 112.701V110.175Z" fill="#AC401F"/>
<path d="M74.8541 106.171L71.2007 108.212V110.823L74.8541 108.697V106.171Z" fill="#AC401F"/>
<path d="M81.8088 102.229L78.1568 104.271V106.881L81.8088 104.756V102.229Z" fill="#AC401F"/>
<path d="M88.6035 98.2252L84.9515 100.268V102.877L88.6035 100.752V98.2252Z" fill="#AC401F"/>
<path d="M91.2007 96.7558L56.1848 76.5558V77.9558L91.2007 98.1572V96.7558Z" fill="#C64F1F"/>
<path d="M94.8541 94.7147L91.2007 96.756L56.1848 76.556L59.8168 74.5147L94.8541 94.7147Z" fill="#E05F1C"/>
<path d="M94.8541 94.7146L91.2007 96.756V99.3666L94.8541 97.2413V94.7146Z" fill="#AC401F"/>
<path d="M68.3408 84.4439V88.1039L70.8661 86.6439V82.9839L68.3408 84.4439Z" fill="#464648"/>
<path d="M64.8914 86.4426V90.1039L67.4181 88.6439V84.9839L64.8914 86.4426Z" fill="#464648"/>
<path d="M61.3981 88.4492V92.1105L63.9248 90.6505V86.9905L61.3981 88.4492Z" fill="#464648"/>
<path d="M66.1407 110.773L66.1461 99.9238L88.7994 86.8358V97.6625L66.1407 110.773Z" fill="#E6AF64"/>
<path d="M56.2581 99.9372L59.7688 101.975V96.2252L56.2581 94.1866V99.9372Z" fill="#464648"/>
<path d="M56.2581 94.1867L78.8968 81.112L82.4154 83.1453L59.7688 96.2333L56.2581 94.1867Z" fill="#656769"/>
<path d="M64.9674 108.977V107.964L59.6848 104.9V105.927L64.9674 108.977Z" fill="#464648"/>
<path d="M64.9674 107.165V106.153L59.6848 103.089V104.116L64.9674 107.165Z" fill="#464648"/>
<path d="M85.6181 94.5787V98.2387L88.1448 96.78V93.1187L85.6181 94.5787Z" fill="#464648"/>
<path d="M82.1701 96.5773V100.239L84.6968 98.78V95.1187L82.1701 96.5773Z" fill="#464648"/>
<path d="M78.6768 98.5839V102.247L81.2034 100.785V97.1252L78.6768 98.5839Z" fill="#464648"/>
<path d="M66.8301 100.375V105.635L72.0235 102.635V97.3667L66.8301 100.375Z" fill="white"/>
<path d="M67.4661 101.449V100.593L71.5528 98.2372V99.0798L67.4661 101.449Z" fill="#464648"/>
<path d="M68.3408 72.4746V76.1359L70.8661 74.6759V71.0159L68.3408 72.4746Z" fill="#464648"/>
<path d="M64.8914 74.4746V78.1359L67.4181 76.6759V73.0146L64.8914 74.4746Z" fill="#464648"/>
<path d="M61.3981 76.4812V80.1425L63.9248 78.6825V75.0212L61.3981 76.4812Z" fill="#464648"/>
<path d="M66.1407 98.8039L66.1461 87.9559L88.7994 74.8679V85.6946L66.1407 98.8039Z" fill="#E6AF64"/>
<path d="M56.2581 87.968L59.7688 90.0053V84.2573L56.2581 82.2173V87.968Z" fill="#464648"/>
<path d="M56.2581 82.2172L78.8968 69.1425L82.4154 71.1772L59.7688 84.2639L56.2581 82.2172Z" fill="#656769"/>
<path d="M64.9674 97.008V95.996L59.6848 92.932V93.9587L64.9674 97.008Z" fill="#464648"/>
<path d="M64.9674 95.1972V94.1839L59.6848 91.1212V92.1479L64.9674 95.1972Z" fill="#464648"/>
<path d="M85.6181 82.6093V86.2707L88.1448 84.8107V81.1507L85.6181 82.6093Z" fill="#464648"/>
<path d="M82.1701 84.6093V88.2707L84.6968 86.8107V83.1493L82.1701 84.6093Z" fill="#464648"/>
<path d="M78.6768 86.616V90.2773L81.2034 88.8173V85.1573L78.6768 86.616Z" fill="#464648"/>
<path d="M66.8301 88.4054V93.6667L72.0235 90.6654V85.3987L66.8301 88.4054Z" fill="white"/>
<path d="M67.4661 89.4811V88.6252L71.5528 86.2678V87.1105L67.4661 89.4811Z" fill="#464648"/>
<path d="M65.5861 85.8293L65.5807 72.2213L85.3208 60.8093V74.3893L65.5861 85.8293Z" fill="#D9A14E"/>
<path d="M77.9807 72.2372L73.5794 74.7932V67.5825L77.9807 65.0252V72.2372Z" fill="#464648"/>
<path d="M67.0581 83.5759V82.3065L73.6861 78.4626V79.7505L67.0581 83.5759Z" fill="#464648"/>
<path d="M67.0581 81.3054V80.0347L73.6861 76.192V77.48L67.0581 81.3054Z" fill="#464648"/>
<path d="M64.7221 72.7865V79.3852L58.2075 75.6212V69.0145L64.7221 72.7865Z" fill="white"/>
<path d="M63.9234 74.1347V73.0614L58.7994 70.1054V71.1627L63.9234 74.1347Z" fill="#464648"/>
<path d="M34.5941 120.816C34.5941 120.816 38.7621 118.959 40.8234 118.869C42.8861 118.78 43.0848 121.201 40.8234 123.08C38.5634 124.957 36.8314 125.208 34.9807 125.968C33.3127 126.653 32.7141 126.708 31.3834 125.845C29.6074 124.695 31.0301 121.649 31.0301 121.649L34.5941 120.816Z" fill="#464648"/>
<path d="M22.5421 113.675C22.5421 113.675 25.8528 112.292 27.9141 112.203C29.9768 112.113 30.7168 113.896 28.4541 115.772C26.1941 117.651 24.7781 118.067 22.9275 118.828C21.2595 119.513 20.6701 119.552 19.3301 118.703C17.5048 117.547 18.9314 114.501 18.9768 114.508L22.5421 113.675Z" fill="#464648"/>
<path d="M34.8567 72.6119C34.8567 72.6119 38.4954 92.2652 38.4954 98.4372C38.4954 109.32 38.3994 120.78 38.3994 120.78C38.3994 120.78 36.5954 122.673 34.8394 122.677C30.8887 122.688 30.4901 120.7 30.4901 120.7C30.4901 120.7 30.4354 107.731 30.0914 101.84C29.8514 97.7412 29.6114 91.9652 27.966 87.2039C27.918 92.0959 27.9301 93.6639 27.5287 98.9906C27.2327 102.92 25.5954 113.468 25.5061 114.155C24.2541 115.667 20.3714 116.712 18.4034 114.497C18.5567 112.761 19.6501 100.577 19.5074 94.2599C19.3767 88.4559 17.8954 74.7106 21.2154 72.0332C24.0834 69.7186 34.8567 72.6119 34.8567 72.6119Z" fill="#2B668D"/>
<path d="M24.8074 60.0906C24.6288 57.1946 24.1808 55.5039 24.1808 55.5039L26.1154 49.3505C26.1154 49.3505 23.4048 47.9772 21.5714 50.1612C20.8074 51.0706 19.4088 53.8012 18.1901 56.3465C19.1288 57.9785 21.6834 60.1932 24.8074 60.0906Z" fill="#ED801E"/>
<path d="M30.2101 37.2907C28.7608 36.2841 25.9728 36.5987 24.7635 39.1534C24.0942 40.5681 25.0408 44.3721 25.1902 47.0414C25.3102 49.1961 24.5888 50.4414 24.5888 50.4414C24.5888 50.4414 24.5888 50.4414 26.4368 51.2014C28.2835 51.9628 30.2101 51.2014 30.2101 51.2014L30.1501 47.9161C30.1501 47.9161 32.1395 47.6214 32.4875 47.3014C33.3261 46.5334 33.7688 44.2494 33.3808 41.3014C32.8035 36.9134 30.7448 37.6614 30.2101 37.2907Z" fill="#FABAAC"/>
<path d="M35.1955 60.8667C36.2861 58.5387 33.8141 54.3147 33.1208 52.796C32.4261 51.2773 30.2074 50.3533 30.2074 50.3533C30.2074 50.3533 27.1741 49.2533 26.1154 49.0947C25.6541 49.0253 24.0554 48.9253 24.0554 48.9253C24.0554 48.9253 20.5274 54.4773 20.1354 57.5347C19.8608 59.676 21.0288 66.6773 20.1635 73.572C19.7048 77.22 33.4714 76.192 34.6848 74.704C33.9781 71.2533 32.9675 65.6227 35.1955 60.8667Z" fill="#F79931"/>
<path d="M20.2901 62.3654C20.2967 62.7254 20.5301 66.9601 20.0927 69.7081C19.6541 72.4561 19.3887 76.7081 19.3887 76.7081C19.3887 76.7081 23.3021 79.7534 27.8234 79.2241C32.3447 78.6961 35.4754 76.0641 35.4754 76.0641C35.4754 76.0641 33.9727 68.3281 34.0567 67.3774C34.1421 66.4281 34.1421 66.4281 34.1421 66.4281C34.1421 66.4281 32.4074 67.2494 31.3101 66.7894C30.2127 66.3281 28.3781 65.4868 27.8234 62.6868C27.4287 60.6974 27.6874 56.0708 27.7807 54.8348C27.5581 54.8041 21.9434 53.1521 21.9434 53.1521C21.9434 53.1521 20.2247 58.6321 20.2901 62.3654Z" fill="#2B668D"/>
<path d="M32.0008 42.4613C32.2208 41.7253 32.7235 40.016 32.8488 39.328C32.9968 38.528 33.0381 37.34 31.9461 36.2027C30.8541 35.0667 27.0648 34.7013 25.6941 35.4947C24.3235 36.2867 21.4088 37.736 22.4261 42.4613C23.2488 46.28 24.0475 46.708 25.2008 47.6053C26.2088 48.3893 27.9848 48.584 27.9848 48.584C27.9848 48.584 28.9741 47.868 29.1528 46.4213C29.2088 45.9653 29.1528 44.5853 29.1528 44.5853C29.1528 44.5853 28.1421 42.5866 28.9248 41.8746C29.7581 41.1173 30.6101 42.3226 30.8048 42.8093C31.4875 44.5173 32.1661 45.32 32.0008 42.4613Z" fill="#464648"/>
<path d="M50.4607 66.6014C50.4607 66.6014 46.4634 66.8508 42.4461 65.7641C39.7821 65.0441 38.3567 64.1561 37.4154 63.6921C36.8994 62.7828 35.9581 59.9308 35.9581 59.9308L30.9034 61.9921C30.9034 61.9921 32.1781 65.4041 32.9261 66.9601C33.5261 68.2108 34.2767 68.4614 35.4754 68.9028C37.2261 69.5481 42.358 69.7254 44.4007 69.9907C46.4434 70.2547 47.7421 70.0294 48.9074 69.7494C51.3807 69.1521 50.5581 67.2881 50.4607 66.6014Z" fill="#FABAAC"/>
<path d="M30.8915 63.5334C33.2915 64.0481 35.8848 63.3028 37.2261 61.4721C36.2488 57.0521 34.6942 52.2467 32.5635 51.5401C31.4182 51.1614 29.3688 55.1294 29.7168 57.9414C29.8141 58.7361 30.2941 60.9481 30.8915 63.5334Z" fill="#ED801E"/>
<path d="M19.7034 72.9053L19.5248 74.8466C19.5248 74.8466 22.1514 77.1053 27.8234 77.2347C33.4954 77.3627 35.3461 75.424 35.3461 75.424L35.0114 73.4266C35.0114 73.4266 32.0901 75.272 27.6648 75.3373C23.2394 75.404 19.7034 72.9053 19.7034 72.9053Z" fill="#3A8AAC"/>
<path d="M26.1154 55.4293C26.1154 55.4293 26.7421 52.9026 27.9221 51.6866C29.0248 50.552 30.2074 50.3533 30.2074 50.3533C30.2074 50.3533 31.3674 50.6773 31.3514 51.0053C30.7181 51.384 29.5594 51.8106 28.8741 52.9746C28.1901 54.14 27.6794 56.5813 27.6794 56.5813L26.1154 55.4293Z" fill="#2B668D"/>
<path d="M23.8381 48.9254C23.7768 48.9508 22.7475 50.4921 21.9941 52.9747C21.6581 54.0827 21.2955 56.5814 21.2955 56.5814L22.3901 56.7188C22.3901 56.7188 23.4421 52.6534 24.0354 51.1868C24.6314 49.7188 25.0661 48.9948 25.0661 48.9948L23.8381 48.9254Z" fill="#2B668D"/>
<path d="M47.6127 67.1841C47.7314 67.1294 49.0394 65.9387 49.5167 65.3841C49.9927 64.8281 50.3887 64.9681 50.2301 65.5921C50.0714 66.2161 49.2394 67.2881 49.2394 67.2881C49.2394 67.2881 48.0274 67.1841 47.8207 67.1841H47.6127Z" fill="#FABAAC"/>
<path d="M30.1701 36.3173C32.9381 36.6079 34.0328 38.4226 32.6168 40.372C31.2008 42.3226 27.8088 43.6679 25.0421 43.3773C22.2754 43.0866 21.1795 41.2706 22.5955 39.3199C24.0115 37.3719 27.4034 36.0266 30.1701 36.3173Z" fill="#224E78"/>
<path d="M22.0621 41.532C22.0621 41.532 20.4154 35.9173 25.4047 34.2226C28.9901 33.0066 31.6847 34.4267 33.1381 38.1053C34.0261 40.3493 22.0621 41.532 22.0621 41.532Z" fill="#224E78"/>
<path d="M31.1821 41.7346C31.5461 41.5306 33.2367 39.4079 32.7674 37.4773C32.7007 37.2013 32.0727 36.1079 32.0727 36.1079C32.0727 36.1079 32.5741 35.8439 34.6274 36.2773C36.6807 36.7106 37.0634 38.5533 35.4701 39.8466C33.4447 41.4893 31.1821 41.7346 31.1821 41.7346Z" fill="#2B668D"/>
</svg>
