<svg width="132" height="132" viewBox="0 0 132 132" fill="none" xmlns="http://www.w3.org/2000/svg">
<path d="M34.761 118.985L52.4853 108.685L47.3181 105.702L29.5942 116.002L34.761 118.985Z" fill="#4A515A"/>
<path d="M70.2064 98.3867L87.9307 88.0866L82.7635 85.1033L65.0389 95.4033L70.2064 98.3867Z" fill="#4A515A"/>
<path d="M41.4717 115.085L41.4546 109.11L47.3182 105.702L52.4854 108.685L41.4717 115.085Z" fill="#363B41"/>
<path d="M70.2064 98.3867L65.0389 95.4033L82.7635 85.1033L87.9307 88.0866L70.2064 98.3867Z" fill="#363B41"/>
<path d="M41.4868 120.392L11.242 102.816L11.2066 90.1677L41.4506 107.744L41.4868 120.392Z" fill="#202121"/>
<path d="M41.4506 107.744L11.2066 90.1676L87.8299 45.929L118.075 63.5049L41.4506 107.744Z" fill="#202121"/>
<path d="M118.075 63.505L118.11 76.1536L41.4868 120.392L41.4506 107.744L118.075 63.505Z" fill="#99B2C2"/>
<path d="M110.515 75.3256C110 75.0266 109.487 74.7276 108.973 74.4295C107.817 73.7572 106.215 73.8522 104.447 74.8732C100.933 76.9017 98.0961 81.8159 98.1078 85.8538C98.1137 87.8581 98.8217 89.2696 99.9631 89.9329C102.019 91.1272 104.074 92.3219 106.13 93.5162C104.988 92.8525 104.28 91.4418 104.274 89.4374C104.263 85.3991 107.099 80.4857 110.613 78.4569C112.381 77.4362 113.983 77.3408 115.139 78.0127C113.598 77.117 112.056 76.2209 110.515 75.3256Z" fill="#2B2E32"/>
<path d="M110.613 78.4568C114.127 76.4279 116.982 78.0551 116.994 82.093C117.006 86.1278 114.169 91.0442 110.654 93.0727C107.141 95.1016 104.286 93.4714 104.274 89.4373C104.263 85.3991 107.099 80.4857 110.613 78.4568Z" fill="#424A53"/>
<path d="M110.622 81.2907C108.471 82.5329 106.734 85.5412 106.74 88.0138C106.748 90.4834 108.496 91.4795 110.648 90.237C112.797 88.9964 114.534 85.9881 114.527 83.5185C114.52 81.0455 112.772 80.0494 110.622 81.2907ZM110.647 89.6717C108.768 90.7555 107.242 89.8858 107.236 87.7281C107.23 85.5704 108.746 82.9436 110.624 81.8595C112.499 80.7769 114.029 81.645 114.035 83.8031C114.041 85.9604 112.521 88.5892 110.647 89.6717Z" fill="#BCC4C7"/>
<path d="M110.624 81.8594C108.746 82.9435 107.23 85.5703 107.236 87.7281C107.242 89.8858 108.768 90.7554 110.647 89.6717C112.521 88.5891 114.041 85.9604 114.035 83.803C114.029 81.6449 112.499 80.7769 110.624 81.8594ZM110.632 84.5859C110.307 84.7727 110.043 84.6221 110.042 84.2523C110.041 83.8797 110.304 83.4282 110.628 83.2409C110.95 83.0545 111.214 83.2024 111.215 83.5753C111.216 83.9447 110.954 84.3998 110.632 84.5859ZM112.246 85.5088C111.925 85.6941 111.66 85.5439 111.659 85.1737C111.658 84.8011 111.921 84.3461 112.242 84.1608C112.567 83.9731 112.831 84.1238 112.832 84.4967C112.833 84.8665 112.571 85.3212 112.246 85.5088ZM109.025 87.3684C108.701 87.556 108.436 87.4054 108.435 87.0355C108.434 86.663 108.697 86.208 109.021 86.0207C109.343 85.835 109.607 85.9853 109.608 86.3582C109.61 86.7284 109.347 87.1827 109.025 87.3684ZM110.642 88.2898C110.318 88.4774 110.053 88.3268 110.052 87.9569C110.051 87.5844 110.314 87.1294 110.638 86.9421C110.96 86.7564 111.224 86.9071 111.226 87.2796C111.227 87.6498 110.964 88.1041 110.642 88.2898Z" fill="#ECF6FB"/>
<path d="M110.628 83.241C110.304 83.4282 110.041 83.8798 110.042 84.2523C110.043 84.6221 110.307 84.7728 110.632 84.5859C110.954 84.3998 111.216 83.9448 111.215 83.5754C111.214 83.2024 110.95 83.0545 110.628 83.241Z" fill="#2E3136"/>
<path d="M109.021 86.0207C108.697 86.2079 108.434 86.663 108.435 87.0355C108.436 87.4053 108.701 87.556 109.025 87.3684C109.347 87.1827 109.61 86.7284 109.608 86.3582C109.607 85.9853 109.343 85.835 109.021 86.0207Z" fill="#2E3136"/>
<path d="M110.638 86.9422C110.314 87.1294 110.051 87.5844 110.052 87.957C110.053 88.3268 110.318 88.4774 110.642 88.2898C110.964 88.1041 111.227 87.6498 111.226 87.2797C111.224 86.9071 110.96 86.7565 110.638 86.9422Z" fill="#2E3136"/>
<path d="M112.242 84.1608C111.921 84.3461 111.658 84.8012 111.659 85.1737C111.66 85.5439 111.925 85.6942 112.246 85.5089C112.571 85.3213 112.833 84.8666 112.832 84.4968C112.831 84.1239 112.567 83.9732 112.242 84.1608Z" fill="#2E3136"/>
<path d="M95.1432 82.4149C93.9866 81.7427 92.3852 81.8372 90.6179 82.8575C87.1039 84.8864 84.2669 89.7998 84.2782 93.8377C84.2841 95.8428 84.9918 97.2535 86.1339 97.9172L92.3007 101.501C91.1582 100.837 90.4505 99.426 90.4447 97.4209C90.4334 93.3834 93.2704 88.47 96.7839 86.4408C98.5508 85.4209 100.153 85.3259 101.309 85.9982C99.2539 84.8031 97.1985 83.6088 95.1432 82.4149Z" fill="#2B2E32"/>
<path d="M96.784 86.4407C100.295 84.4138 103.153 86.0398 103.164 90.0773C103.176 94.1121 100.336 99.0301 96.8256 101.057C93.3117 103.086 90.456 101.456 90.4447 97.4209C90.4334 93.3834 93.2704 88.47 96.784 86.4407Z" fill="#424A53"/>
<path d="M96.7929 89.275C94.6411 90.5171 92.9049 93.5254 92.9115 95.9981C92.9185 98.4676 94.6667 99.4638 96.8186 98.2216C98.9682 96.9806 100.705 93.9727 100.697 91.5028C100.69 89.0301 98.9425 88.0336 96.7929 89.275ZM96.8167 97.656C94.9388 98.7401 93.4129 97.8705 93.4063 95.7124C93.4001 93.5546 94.9167 90.9278 96.7949 89.8437C98.6704 88.7608 100.199 89.6292 100.205 91.7869C100.212 93.9451 98.6922 96.5734 96.8167 97.656Z" fill="#BCC4C7"/>
<path d="M96.7948 89.8437C94.9166 90.9278 93.4 93.5546 93.4062 95.7124C93.4128 97.8705 94.9388 98.7401 96.8166 97.656C98.6921 96.5734 100.211 93.9451 100.205 91.787C100.199 89.6292 98.6703 88.7608 96.7948 89.8437ZM96.8026 92.5698C96.4779 92.7574 96.2136 92.6068 96.2128 92.237C96.2117 91.864 96.4737 91.4125 96.7983 91.2249C97.1206 91.0392 97.3846 91.1867 97.3857 91.5596C97.3869 91.9294 97.1237 92.3841 96.8026 92.5698ZM98.4173 93.4931C98.095 93.6788 97.831 93.5282 97.8303 93.1584C97.8287 92.7854 98.0911 92.3308 98.413 92.1451C98.7377 91.9575 99.0024 92.1081 99.0031 92.481C99.0035 92.8508 98.7419 93.3059 98.4173 93.4931ZM95.1957 95.3527C94.871 95.5403 94.6071 95.3901 94.6059 95.0199C94.6052 94.6465 94.8675 94.1923 95.1918 94.0046C95.5137 93.8186 95.778 93.9692 95.7788 94.3425C95.7796 94.7123 95.5176 95.167 95.1957 95.3527ZM96.8131 96.2741C96.4888 96.4621 96.2241 96.3115 96.2234 95.9417C96.2222 95.5683 96.4846 95.1141 96.8092 94.9264C97.1311 94.7404 97.3951 94.8914 97.3962 95.2639C97.3978 95.6341 97.1346 96.0884 96.8131 96.2741Z" fill="#ECF6FB"/>
<path d="M96.7984 91.2249C96.4737 91.4125 96.2117 91.8641 96.2129 92.237C96.2137 92.6068 96.478 92.7575 96.8026 92.5698C97.1238 92.3842 97.3869 91.9295 97.3858 91.5597C97.3846 91.1868 97.1207 91.0392 96.7984 91.2249Z" fill="#2E3136"/>
<path d="M95.1918 94.0047C94.8676 94.1923 94.6052 94.6466 94.606 95.0199C94.6071 95.3901 94.8711 95.5404 95.1957 95.3527C95.5176 95.167 95.7796 94.7124 95.7788 94.3426C95.7781 93.9693 95.5137 93.8186 95.1918 94.0047Z" fill="#2E3136"/>
<path d="M96.8092 94.9265C96.4846 95.1141 96.2222 95.5684 96.2234 95.9417C96.2242 96.3115 96.4889 96.4621 96.8131 96.2741C97.1347 96.0884 97.3978 95.6341 97.3963 95.264C97.3951 94.8914 97.1312 94.7404 96.8092 94.9265Z" fill="#2E3136"/>
<path d="M98.4131 92.1451C98.0911 92.3308 97.8288 92.7855 97.8303 93.1584C97.8311 93.5282 98.095 93.6788 98.4174 93.4931C98.742 93.3059 99.0036 92.8509 99.0032 92.481C99.0024 92.1081 98.7377 91.9575 98.4131 92.1451Z" fill="#2E3136"/>
<path d="M57.09 104.384C55.9335 103.712 54.3324 103.807 52.564 104.828C49.0496 106.857 46.213 111.77 46.2247 115.808C46.2305 117.813 46.9386 119.224 48.08 119.887C50.1353 121.082 52.1911 122.277 54.2464 123.471C53.1047 122.807 52.3966 121.396 52.3911 119.391C52.3799 115.354 55.2161 110.44 58.73 108.411C60.4981 107.391 62.0999 107.296 63.2561 107.967C61.2007 106.773 59.1454 105.578 57.09 104.384Z" fill="#2B2E32"/>
<path d="M58.73 108.411C62.244 106.383 65.0997 108.01 65.111 112.048C65.1222 116.083 62.2852 120.999 58.7717 123.028C55.2577 125.057 52.4028 123.426 52.3911 119.391C52.3799 115.354 55.2161 110.44 58.73 108.411Z" fill="#424A53"/>
<path d="M58.7397 111.245C56.5874 112.487 54.8509 115.496 54.8575 117.969C54.8649 120.438 56.6123 121.434 58.7646 120.192C60.9138 118.951 62.6507 115.943 62.6437 113.473C62.6367 111 60.8885 110.004 58.7397 111.245ZM58.763 119.626C56.8852 120.71 55.3585 119.841 55.353 117.682C55.3464 115.525 56.8634 112.898 58.7413 111.814C60.616 110.731 62.1454 111.599 62.1517 113.757C62.1575 115.915 60.6386 118.544 58.763 119.626Z" fill="#BCC4C7"/>
<path d="M58.7413 111.814C56.8634 112.898 55.3464 115.525 55.353 117.682C55.3585 119.841 56.8852 120.71 58.7631 119.626C60.6386 118.543 62.1575 115.915 62.1517 113.757C62.1454 111.599 60.616 110.731 58.7413 111.814ZM58.7483 114.54C58.424 114.727 58.1605 114.577 58.1589 114.207C58.1577 113.834 58.4209 113.383 58.7452 113.196C59.0667 113.009 59.331 113.157 59.3318 113.53C59.333 113.899 59.0706 114.354 58.7483 114.54ZM60.3634 115.463C60.0418 115.649 59.7771 115.499 59.7763 115.129C59.7752 114.756 60.0375 114.301 60.3591 114.115C60.6837 113.928 60.948 114.079 60.9492 114.451C60.9508 114.821 60.6876 115.276 60.3634 115.463ZM57.1421 117.323C56.8175 117.511 56.5532 117.36 56.5524 116.99C56.5512 116.617 56.8136 116.163 57.1382 115.975C57.4602 115.789 57.7241 115.94 57.7253 116.313C57.7264 116.683 57.4641 117.137 57.1421 117.323ZM58.7592 118.245C58.4345 118.432 58.1702 118.281 58.169 117.912C58.1682 117.538 58.431 117.084 58.7557 116.897C59.0772 116.711 59.3419 116.862 59.3427 117.234C59.3435 117.604 59.0811 118.058 58.7592 118.245Z" fill="#ECF6FB"/>
<path d="M58.7452 113.196C58.4209 113.383 58.1578 113.834 58.1589 114.207C58.1605 114.577 58.424 114.727 58.7483 114.54C59.0706 114.354 59.333 113.899 59.3318 113.53C59.331 113.157 59.0667 113.009 58.7452 113.196Z" fill="#2E3136"/>
<path d="M57.1383 115.975C56.8136 116.163 56.5513 116.617 56.5524 116.99C56.5532 117.36 56.8175 117.511 57.1422 117.323C57.4641 117.137 57.7265 116.683 57.7253 116.313C57.7241 115.94 57.4602 115.789 57.1383 115.975Z" fill="#2E3136"/>
<path d="M58.7557 116.897C58.4311 117.084 58.1683 117.538 58.1691 117.912C58.1702 118.282 58.4346 118.432 58.7592 118.245C59.0811 118.058 59.3435 117.604 59.3427 117.234C59.3419 116.862 59.0772 116.711 58.7557 116.897Z" fill="#2E3136"/>
<path d="M60.359 114.115C60.0375 114.301 59.7751 114.756 59.7763 115.129C59.7771 115.499 60.0418 115.649 60.3633 115.463C60.6876 115.276 60.9507 114.821 60.9492 114.451C60.948 114.079 60.6837 113.928 60.359 114.115Z" fill="#2E3136"/>
<path d="M115.381 75.0495L105.397 69.2474L110.443 71.1412L120.427 76.9429L115.381 75.0495Z" fill="#363636"/>
<path d="M91.8955 88.6082L81.9119 82.8065L105.397 69.2475L115.381 75.0495L91.8955 88.6082Z" fill="#545454"/>
<path d="M86.8763 96.3131L76.893 90.511L81.9119 82.8066L91.8955 88.6083L86.8763 96.3131Z" fill="#363636"/>
<path d="M87.8249 97.0729L77.8405 91.2712L76.893 90.5109L86.8763 96.313L87.8249 97.0729Z" fill="#17191B"/>
<path d="M115.38 75.0495L120.427 76.9429L119.486 78.7927L114.853 77.0527L92.4349 89.9959L87.8248 97.0729L86.8762 96.313L91.8954 88.6082L115.38 75.0495Z" fill="#8B8B8B"/>
<path d="M70.0633 98.8784L31.3776 76.3984V36.5803L70.0633 59.0603V98.8784Z" fill="#B59F31"/>
<path d="M70.0633 59.0603L31.3776 36.5803L82.9069 6.82993L121.593 29.3103L70.0633 59.0603Z" fill="#E1C539"/>
<path d="M121.593 29.3103V69.128L70.0632 98.8784V59.0603L121.593 29.3103Z" fill="#F3D01F"/>
<path d="M118.811 34.3046L116.813 35.458C116.46 35.662 116.173 36.1579 116.175 36.5647L116.175 36.8855C116.177 37.295 116.465 37.4589 116.818 37.2549L118.816 36.1019C119.173 35.896 119.459 35.4 119.458 34.9901L119.457 34.6698C119.456 34.2626 119.167 34.0983 118.811 34.3046Z" fill="#F3D01F"/>
<path d="M118.811 66.2548L116.813 67.4082C116.46 67.6126 116.173 68.1085 116.175 68.5157L116.175 68.836C116.177 69.2456 116.465 69.4094 116.818 69.2055L118.816 68.0524C119.173 67.8465 119.459 67.3502 119.458 66.9411L119.457 66.6199C119.456 66.2131 119.167 66.0493 118.811 66.2548Z" fill="#F3D01F"/>
<path d="M33.6364 50.8295C33.3686 50.6741 32.9984 50.696 32.5893 50.9326C29.1929 52.8934 20.8329 57.72 17.4198 59.6908C13.0841 62.1938 6.456 69.1007 5.50813 74.944C4.56026 80.7877 2.98877 93.2339 3.00006 97.2504C3.01174 101.27 3.03276 108.718 3.03393 109.11L37.0951 128.904C37.0939 128.512 37.0729 121.064 37.0612 117.045C37.05 113.028 38.6214 100.582 39.5697 94.7384C40.5172 88.8951 47.1453 81.9882 51.481 79.4848C54.8941 77.5147 63.2545 72.6874 66.6509 70.7263C67.0604 70.4907 67.4306 70.4686 67.698 70.6243L33.6364 50.8295Z" fill="#7D8487"/>
<path d="M13.6622 63.6186C10.2802 66.7818 6.95349 71.2398 6.33066 75.0776C5.63776 79.3526 4.68677 86.6452 4.18228 91.94L4.03864 94.1982C8.95474 100.76 14.6015 105.883 20.2525 109.146C25.904 112.409 31.5612 113.812 36.498 112.938L36.4995 112.387L36.5046 112.39C37.0075 106.783 38.0819 98.7063 38.7468 94.605C39.423 90.4366 42.7691 85.8647 46.2247 82.5419L13.6622 63.6186Z" fill="#2E3136"/>
<path d="M66.6509 70.7263C67.4648 70.2564 68.1239 70.6356 68.1266 71.5679L68.2017 97.8724C68.2037 98.8075 67.5493 99.9418 66.7349 100.412L55.281 107.025C50.8951 109.557 47.3473 115.701 47.3617 120.742L47.3637 121.573C47.3664 122.347 46.823 123.288 46.1503 123.676L37.0951 128.904C37.0939 128.512 37.0729 121.064 37.0612 117.045C37.0499 113.028 38.6214 100.582 39.5697 94.7384C40.5172 88.8951 47.1453 81.9882 51.481 79.4848C54.8941 77.5147 63.2545 72.6874 66.6509 70.7263Z" fill="#454A4D"/>
<path d="M58.9047 88.683L58.8861 82.1787L58.881 80.3966C58.8771 78.8776 57.8039 78.2661 56.4819 79.0295L56.3994 79.0773L52.8457 81.1292L51.6807 81.8015C49.9916 82.7766 47.8526 84.5754 45.9595 86.6775L45.9584 86.6763C44.9389 87.8071 43.9918 89.0271 43.2238 90.2556C43.1856 90.3168 43.1471 90.3783 43.1105 90.4394C42.2611 91.8345 41.6519 93.2339 41.4432 94.5213C41.3899 94.8506 41.3342 95.2025 41.2778 95.5657C41.2646 95.6521 41.2505 95.7447 41.2373 95.8331C41.2505 95.7482 41.2634 95.6591 41.2766 95.5758C40.9465 97.7067 40.5752 100.371 40.2279 103.107C40.1559 103.675 40.0843 104.246 40.0146 104.815L40.0154 104.816C39.8067 106.53 39.6133 108.232 39.4509 109.806C39.3186 111.135 39.4782 111.964 40.7441 111.233L45.865 108.277C46.631 107.835 47.0686 107.26 47.3224 106.346L47.3247 106.344C47.3582 106.204 47.3971 106.053 47.4411 105.895C47.5898 105.358 47.8008 104.728 48.0908 104.059L48.0896 104.056C48.6556 102.754 49.5327 101.308 50.8811 100.126L50.8858 100.131C51.2984 99.7698 51.7511 99.428 52.2544 99.1275L52.2591 99.124L52.3584 99.066C54.1381 98.0387 55.5107 97.2462 56.5318 96.6568C57.8541 95.8938 58.9199 94.0471 58.9153 92.5313L58.9047 88.683Z" fill="#5BAEE4"/>
<path d="M45.9584 86.6763C44.9389 87.8071 43.9918 89.0271 43.2238 90.2556C43.1857 90.3167 43.1471 90.3782 43.1105 90.4393L50.8812 100.126L50.8858 100.131C51.2985 99.7698 51.7512 99.428 52.2545 99.1275L52.2592 99.124L52.3584 99.066C53.2682 98.5408 54.0716 98.0772 54.7762 97.67L45.9584 86.6763Z" fill="#76C4EE"/>
<path d="M56.3995 79.0773L52.8458 81.1292L58.9048 88.683L58.8861 82.1787L56.3995 79.0773Z" fill="#76C4EE"/>
<path d="M41.2778 95.5656C40.9489 97.6981 40.5771 100.367 40.228 103.107C40.156 103.675 40.0843 104.246 40.0146 104.815L40.0154 104.815L43.766 109.488L45.865 108.277C46.6311 107.835 47.0686 107.26 47.3224 106.346L47.3248 106.344C47.3582 106.204 47.3972 106.053 47.4412 105.895C47.5899 105.358 47.8008 104.728 48.0908 104.059L48.0897 104.056L41.2778 95.5656Z" fill="#76C4EE"/>
<path d="M65.7696 84.3858L61.4888 86.8573C61.1781 87.0371 60.9263 87.4704 60.9271 87.8277C60.9282 88.1851 61.1816 88.3268 61.4927 88.1469L65.7731 85.6758C66.0841 85.4964 66.3333 85.0647 66.3325 84.7069C66.3313 84.3492 66.0802 84.2063 65.7696 84.3858Z" fill="#99B2C2"/>
<path d="M65.7618 81.7636L61.4817 84.2343C61.1703 84.4142 60.9188 84.8502 60.9196 85.2079C60.9208 85.5629 61.1742 85.7073 61.4856 85.5275L65.7653 83.0564C66.0767 82.8769 66.3258 82.4421 66.325 82.0875C66.3235 81.7302 66.0728 81.5838 65.7618 81.7636Z" fill="#99B2C2"/>
<path d="M65.754 79.1439L61.4743 81.6154C61.1629 81.7948 60.9115 82.2312 60.9122 82.5854C60.913 82.9432 61.1668 83.0876 61.4782 82.9081L65.7579 80.437C66.0689 80.2576 66.3184 79.8224 66.3176 79.465C66.3165 79.1104 66.0654 78.9644 65.754 79.1439Z" fill="#99B2C2"/>
<path d="M65.747 76.5248L61.4674 78.9959C61.1555 79.175 60.9041 79.6086 60.9048 79.9664C60.9056 80.3237 61.1598 80.465 61.4708 80.2856L65.7505 77.8141C66.0615 77.6346 66.311 77.2033 66.3099 76.8456C66.3087 76.4879 66.0584 76.3454 65.747 76.5248Z" fill="#99B2C2"/>
<path d="M58.5327 97.4516L55.4543 99.2283C55.234 99.3563 55.0592 99.6619 55.06 99.913L55.0619 100.503L58.9317 98.2683L58.9301 97.6786C58.9297 97.4279 58.7507 97.3259 58.5327 97.4516Z" fill="#99B2C2"/>
<path d="M59.8137 74.6738L59.895 104.361L60.004 104.298L59.9211 75.0721V74.6119C59.8853 74.6326 59.8495 74.6536 59.8137 74.6738Z" fill="#E7F2F7"/>
<path d="M42.0692 115.116L40.0715 116.269C39.7176 116.474 39.4307 116.969 39.4327 117.376L39.4335 117.697C39.4342 118.107 39.7227 118.271 40.0765 118.067L42.0739 116.914C42.4305 116.707 42.717 116.211 42.7162 115.802L42.715 115.481C42.7135 115.074 42.4254 114.91 42.0692 115.116Z" fill="#F3D01F"/>
<path d="M7.15319 75.2111C6.43693 79.6293 5.39757 87.579 4.91449 93.0677L35.7969 111.015C36.3267 105.619 37.2792 98.4513 37.9243 94.4714C38.0484 93.7065 38.2567 92.9502 38.516 92.2067L7.40582 74.1274C7.30072 74.4921 7.21119 74.8545 7.15319 75.2111Z" fill="#5BAEE4"/>
<path d="M7.40582 74.1273C7.30072 74.4921 7.21119 74.8545 7.15319 75.2111C6.43693 79.6293 5.39757 87.579 4.91449 93.0677L5.58521 93.4573L9.62544 87.9764C9.62544 87.9764 9.62544 83.9187 9.62544 81.026C9.62544 79.9971 9.9174 78.1255 10.5068 75.9293L7.40582 74.1273Z" fill="#5195C4"/>
<path d="M13.7851 64.6537C11.1688 67.1984 8.36337 70.8007 7.40576 74.1274L38.5159 92.2067C39.9009 88.2392 42.9462 84.6797 44.8661 82.7159L13.7851 64.6537Z" fill="#4A515A"/>
<path d="M36.6327 103.661L9.62544 87.9764C5.66773 89.4864 4.91449 93.0677 4.91449 93.0677L35.7981 111.003C36.0199 108.743 36.3162 106.175 36.6327 103.661Z" fill="#2D597B"/>
<path d="M33.5201 113.187C31.3254 113.187 29.0283 112.796 26.681 112.042L24.744 104.591L33.3647 109.601L34.2928 113.17C34.037 113.181 33.7793 113.187 33.5201 113.187Z" fill="#40464F"/>
<path d="M33.3647 109.601L24.7439 104.591L24.7412 104.582L33.3612 109.587L33.3647 109.601Z" fill="#73D2EE"/>
<path d="M20.1303 109.073C17.6285 107.616 15.1286 105.794 12.6933 103.646L10.8376 96.5096L17.9368 100.635L20.1303 109.073Z" fill="#40464F"/>
<path d="M17.9368 100.635L10.8376 96.5096L10.8369 96.5069L17.9352 100.629L17.9368 100.635ZM30.9641 100.368L22.3445 95.3628L18.4997 80.5744L27.1204 85.5844L30.9641 100.368Z" fill="#73D2EE"/>
<path d="M6.21655 75.7938C6.25509 75.5466 6.29324 75.3076 6.33061 75.0776C6.29324 75.3076 6.25509 75.547 6.21655 75.7938ZM6.33061 75.0776C6.4108 74.5828 6.53614 74.0779 6.70041 73.5672C6.53614 74.0779 6.4108 74.5832 6.33061 75.0776Z" fill="#F3F8FB"/>
<path d="M6.47815 79.7414L5.93512 77.6537C6.03166 76.9974 6.12586 76.3734 6.21656 75.7938C6.2551 75.547 6.29325 75.3076 6.33062 75.0775C6.41081 74.5832 6.53615 74.0779 6.70042 73.5672C7.26097 71.8248 8.27814 70.0108 9.52614 68.2871L9.80135 69.3451C8.73164 70.9061 7.86045 72.5477 7.40578 74.1273C7.30068 74.4921 7.21115 74.8545 7.15314 75.2111C6.948 76.4777 6.71599 78.0348 6.47815 79.7414Z" fill="#40464F"/>
<path d="M15.5381 91.4102L9.62543 87.9765C9.62543 87.9765 9.62543 83.9187 9.62543 81.026C9.62543 79.9972 9.91738 78.1256 10.5067 75.9293L11.6925 76.6187L15.5381 91.4102Z" fill="#73D2EE"/>
<path d="M8.72469 88.3817L6.47821 79.7414C6.71605 78.0348 6.94806 76.4778 7.1532 75.2111C7.21121 74.8545 7.30074 74.4921 7.40584 74.1273L10.5068 75.9297C9.91742 78.1255 9.62546 79.9972 9.62546 81.026C9.62546 83.9187 9.62546 87.9764 9.62546 87.9764C9.30432 88.0986 9.00458 88.2349 8.72469 88.3817Z" fill="#6FC6DC"/>
<path d="M22.7882 68.922L14.1674 63.9125V63.9121L22.7878 68.9216" fill="#F3F8FB"/>
<path d="M23.0833 70.0571L14.4625 65.0472L14.1674 63.912L22.7882 68.9219L23.0833 70.0571Z" fill="#40464F"/>
<path d="M27.1204 85.5844L18.4996 80.5744L14.4625 65.0472L23.0833 70.0571L27.1204 85.5844ZM11.6924 76.6187L10.5067 75.9297L7.40576 74.1273C7.86043 72.5477 8.73162 70.9061 9.80134 69.3452L11.6924 76.6187Z" fill="#6A7782"/>
<path d="M33.3612 109.587L24.7412 104.582L22.3445 95.3628L30.9641 100.368L33.3612 109.587ZM17.9352 100.629L10.8369 96.5069L8.72467 88.3816C9.00456 88.2349 9.3043 88.0986 9.62544 87.9764L15.5381 91.4102L17.9352 100.629Z" fill="#4181B0"/>
<path d="M52.1568 65.2509L38.3591 57.2848C36.9865 56.4923 34.77 56.4923 33.4064 57.2848L26.6915 61.1873C25.3278 61.9794 25.3349 63.2632 26.7078 64.0554L40.5051 72.0214C41.8777 72.814 44.0969 72.8156 45.4605 72.023L52.1755 68.121C53.5395 67.3288 53.5289 66.043 52.1568 65.2509Z" fill="#4A515A"/>
<path d="M34.5797 118.246C34.4936 118.196 34.4103 118.173 34.3411 118.19C31.998 118.769 31.7906 121.31 31.7392 121.675C31.6847 122.039 31.7765 122.514 32.0132 122.651C32.0989 122.701 33.7318 123.643 34.3379 123.993C34.9452 124.344 35.1531 124.179 35.1542 123.784C35.155 123.39 35.1663 119.398 35.1671 119.077C35.1679 118.835 34.8557 118.406 34.5797 118.246Z" fill="#F3D01F"/>
<path d="M4.94607 101.219C4.87755 101.122 4.79464 101.05 4.70744 101C4.43145 100.841 4.11848 100.909 4.1177 101.151C4.11692 101.472 4.10524 105.464 4.10407 105.858C4.10252 106.252 4.30961 106.656 4.91609 107.006C5.52219 107.356 7.15518 108.299 7.24082 108.349C7.47749 108.485 7.57209 108.117 7.51954 107.692C7.47049 107.269 7.27897 104.497 4.94607 101.219Z" fill="#F3D01F"/>
<path d="M28.8313 119.221L10.432 108.599C10.2537 108.496 10.107 108.577 10.1062 108.784C10.1054 108.989 10.2514 109.242 10.4301 109.345L28.829 119.967C29.0072 120.071 29.1536 119.986 29.1548 119.782C29.1556 119.574 29.0092 119.325 28.8313 119.221Z" fill="#2E3136"/>
<path d="M29.3031 118.141L9.96803 106.978C9.78975 106.875 9.6426 106.956 9.64221 107.164C9.64182 107.368 9.78741 107.621 9.96569 107.724L29.3012 118.887C29.4795 118.99 29.6262 118.906 29.6266 118.701C29.6274 118.493 29.4814 118.244 29.3031 118.141Z" fill="#2E3136"/>
<path d="M29.7753 117.06L9.50359 105.357C9.32297 105.252 9.17855 105.334 9.17816 105.542C9.17739 105.747 9.32064 105.998 9.50165 106.102L29.7733 117.806C29.9512 117.909 30.098 117.825 30.0987 117.621C30.0995 117.413 29.9535 117.163 29.7753 117.06Z" fill="#2E3136"/>
<path d="M129 55.0574C128.999 54.7378 128.772 54.6086 128.491 54.7705L115.642 62.1892C115.364 62.35 115.138 62.7404 115.139 63.0604C115.14 63.3831 115.367 63.512 115.645 63.3516L128.494 55.9329C128.775 55.7705 129.001 55.3805 129 55.0574Z" fill="white"/>
<path d="M126.63 40.3986C126.629 40.0791 126.402 39.9498 126.121 40.1118L104.634 52.44C104.356 52.6007 104.13 52.9912 104.131 53.3111C104.132 53.6338 104.359 53.7627 104.637 53.6023L126.124 41.2741C126.405 41.1118 126.631 40.7217 126.63 40.3986Z" fill="#F3D01F"/>
<path d="M77.4909 84.7381C77.4897 84.4185 77.2631 84.2893 76.9817 84.4512L64.1326 91.8699C63.8547 92.0307 63.6285 92.4212 63.6297 92.7411C63.6309 93.0638 63.8574 93.1927 64.1358 93.0323L76.9852 85.6136C77.2662 85.4513 77.492 85.0612 77.4909 84.7381Z" fill="white"/>
<path d="M96.6656 20.9215C96.3845 21.0838 95.9338 21.0838 95.657 20.923C95.3779 20.7611 95.3794 20.4995 95.6609 20.3375L108.51 12.9188C108.788 12.7581 109.239 12.7581 109.518 12.9204C109.795 13.0808 109.793 13.3424 109.515 13.5027L96.6656 20.9215Z" fill="#F3D01F"/>
<path d="M102.378 3.70559L74.9342 19.5501C74.6539 19.712 74.2008 19.7108 73.9241 19.5501C73.645 19.3881 73.6465 19.1269 73.9272 18.9646L101.371 3.12012C101.649 2.95975 102.1 2.95975 102.379 3.12168C102.655 3.28284 102.656 3.54521 102.378 3.70559Z" fill="#F3D01F"/>
<path d="M118.501 22.1259L91.0574 37.9704C90.7771 38.1323 90.324 38.1311 90.0472 37.9704C89.7681 37.8084 89.7697 37.5468 90.0503 37.3849L117.494 21.5404C117.772 21.38 118.223 21.38 118.502 21.542C118.779 21.7027 118.779 21.9655 118.501 22.1259Z" fill="white"/>
<path d="M125.471 34.367L97.3967 50.5759C97.1156 50.7382 96.8902 51.1286 96.891 51.4513C96.8922 51.7709 97.1191 51.9002 97.3998 51.7382L125.474 35.5294C125.755 35.3671 125.981 34.9766 125.98 34.6566C125.979 34.3343 125.752 34.2047 125.471 34.367Z" fill="white"/>
<path d="M115.666 54.3539L87.5913 70.5624C87.3102 70.7247 87.0849 71.1151 87.0856 71.4378C87.0868 71.7578 87.3137 71.887 87.5944 71.7251L115.669 55.5159C115.95 55.3539 116.175 54.9631 116.175 54.6435C116.174 54.3212 115.947 54.1916 115.666 54.3539Z" fill="#F5A213"/>
<path d="M87.7513 60.5621L59.6767 76.7709C59.3956 76.9333 59.1702 77.3233 59.171 77.6464C59.1722 77.966 59.3991 78.0952 59.6798 77.9333L87.7544 61.7241C88.0354 61.5621 88.2608 61.1713 88.26 60.8517C88.2593 60.5294 88.0319 60.3998 87.7513 60.5621Z" fill="white"/>
</svg>
