<svg width="132" height="132" viewBox="0 0 132 132" fill="none" xmlns="http://www.w3.org/2000/svg">
<path d="M107.954 73.0788L80.9426 58.0133V64.0313L107.693 79.4771L108.009 80.5087L107.954 73.0788Z" fill="#2A2221"/>
<path d="M108.173 72.922L81.6513 57.6092L80.9426 58.0133L107.692 73.4623L108.009 74.5081L108.173 72.922Z" fill="#473B38"/>
<path d="M49.9689 88.7401L49.0863 74.3336L51.6611 72.841L52.5481 87.2522L49.9689 88.7401ZM48.0223 56.774L50.6052 55.2862L51.4767 69.6958L48.9112 71.182L48.0223 56.774ZM45.687 91.2088L44.2486 77.1255L46.8265 75.6361L48.2619 89.7304L45.687 91.2088ZM41.4039 93.6885L39.4052 79.9222L41.9801 78.4407L43.9788 92.2038L41.4039 93.6885ZM37.1127 96.1635L34.5552 82.7221L37.1393 81.2326L39.6906 94.6741L37.1127 96.1635ZM32.835 98.6354L29.7192 85.5187L32.296 84.0277L35.4111 97.1444L32.835 98.6354ZM28.5476 101.106L24.8685 88.3107L27.4483 86.826L31.1206 99.6194L28.5476 101.106ZM20.3904 72.7285L22.9658 71.2391L26.6468 84.0277L24.0688 85.5187L20.3904 72.7285ZM28.4925 68.0494L31.6151 81.1661L29.0353 82.6555L25.917 69.5421L28.4925 68.0494ZM34.0197 64.8614L36.5803 78.2934L34.0042 79.786L31.443 66.3445L34.0197 64.8614ZM39.5389 61.6717L41.5443 75.4285L38.9714 76.9164L36.9703 63.1533L39.5389 61.6717ZM45.0724 58.471L46.5078 72.5653L43.9398 74.0484L42.495 59.9668L45.0724 58.471ZM52.0406 51.2979L18.5379 70.6433V74.6854L28.1905 103.405L54.1054 88.4406L55.048 71.9046L52.0406 51.2979Z" fill="#F9EE60"/>
<path d="M97.5564 90.7557L101.112 78.3838L103.682 79.8701L100.127 92.2452L97.5564 90.7557ZM95.9565 106.797L93.3811 105.31L96.9326 92.9328L99.5036 94.4239L95.9565 106.797ZM89.403 103.01L92.5077 90.3818L95.0887 91.8696L91.9816 104.501L89.403 103.01ZM85.4201 100.716L88.0866 87.8212L90.6601 89.3138L87.9931 102.204L85.4201 100.716ZM81.4465 98.4185L83.6604 85.2701L86.2414 86.758L84.02 99.9016L81.4465 98.4185ZM77.4684 96.1209L79.2448 82.7127L81.8196 84.2069L80.0364 97.6103L77.4684 96.1209ZM76.0591 95.3144L73.4843 93.825L74.8186 80.1664L77.393 81.6527L76.0591 95.3144ZM70.5566 75.1657L71.4423 61.2488L74.0116 62.7399L73.1308 76.6551L70.5566 75.1657ZM72.0872 93.0168L69.51 91.5242L70.3945 77.6074L72.9766 79.0984L72.0872 93.0168ZM68.626 74.0597L66.053 72.567L66.4926 58.3967L69.0692 59.8783L68.626 74.0597ZM68.1093 90.7177L65.5225 89.233L65.9757 75.0548L68.5437 76.5426L68.1093 90.7177ZM64.1263 71.4595L61.5478 69.9732V55.5382L64.1263 57.0245V71.4595ZM64.1263 88.417L61.5478 86.9371V72.5005L64.1263 73.9852V88.417ZM76.3865 64.1105L78.9626 65.592L77.6324 79.2506L75.0501 77.769L76.3865 64.1105ZM81.3287 66.9579L83.9042 68.4489L82.134 81.8555L79.5468 80.3676L81.3287 66.9579ZM86.2729 69.8116L88.8528 71.3026L86.6313 84.4541L84.0522 82.9631L86.2729 69.8116ZM93.7927 74.1627L91.1312 87.0527L88.5594 85.5648L91.2179 72.6748L93.7927 74.1627ZM98.7356 77.0132L95.6303 89.6497L93.0648 88.1603L96.1627 75.5301L98.7356 77.0132ZM59.7776 52.4944L60.4651 88.4328L95.8005 108.83L105.217 80.0602L105.01 78.3458L59.7776 52.4944Z" fill="#D56027"/>
<path d="M28.9909 103.871V105.791L64.3324 126.168H69.0636L94.9835 111.415V109.306L60.6242 87.8291H53.8182L28.9909 103.871Z" fill="#F9EE60"/>
<path d="M50.7699 89.2044L49.8935 74.7932L52.4632 73.3086L53.3434 87.7134L50.7699 89.2044ZM48.832 57.2384L51.3988 55.7521L52.285 70.1585L49.7101 71.648L48.832 57.2384ZM46.4861 91.681L45.0507 77.5899L47.6219 76.1036L49.061 90.19L46.4861 91.681ZM42.206 94.1481L40.2013 80.3882L42.7785 78.9066L44.7834 92.6634L42.206 94.1481ZM37.9235 96.6279L35.3623 83.1848L37.9353 81.6922L40.5008 95.1369L37.9235 96.6279ZM33.6373 99.1013L30.5153 85.98L33.092 84.4889L36.2089 97.6135L33.6373 99.1013ZM29.3504 101.573L25.6763 88.775L28.2567 87.2935L31.9252 100.082L29.3504 101.573ZM21.1926 73.1913L23.7675 71.7098L27.4521 84.4984L24.8685 85.9863L21.1926 73.1913ZM29.2935 68.5138L32.4142 81.6289L29.8376 83.1167L26.7248 69.9969L29.2935 68.5138ZM34.8257 65.3258L37.3775 78.7625L34.8033 80.2471L32.2508 66.8105L34.8257 65.3258ZM40.3517 62.1346L42.3472 75.8945L39.7705 77.3776L37.7743 63.6192L40.3517 62.1346ZM45.8789 58.9417L47.3142 73.0218L44.7376 74.5112L43.2985 60.428L45.8789 58.9417ZM52.8415 51.7639L19.3438 71.1108V77.4188L28.9908 103.871L54.9075 88.9066L55.8478 72.3737L52.8415 51.7639Z" fill="#D56027"/>
<path d="M58.9555 51.7638H52.8414L54.9075 88.9065H59.6438L60.2144 71.3785L58.9555 51.7638Z" fill="#F78E38"/>
<path d="M96.732 91.2341L100.285 78.8559L102.853 80.3421L99.3136 92.7188L96.732 91.2341ZM95.1357 107.269L92.5641 105.782L96.1094 93.4081L98.6775 94.8928L95.1357 107.269ZM88.5762 103.489L91.6869 90.857L94.26 92.3417L91.1527 104.972L88.5762 103.489ZM84.5987 101.191L87.2677 88.2964L89.8381 89.7875L87.1742 102.681L84.5987 101.191ZM80.6238 98.8921L82.844 85.7422L85.4146 87.23L83.2029 100.383L80.6238 98.8921ZM76.639 96.593L78.4197 83.1959L80.9952 84.6821L79.2175 98.084L76.639 96.593ZM75.2488 95.7848L72.6678 94.3018L73.998 80.6416L76.5709 82.1311L75.2488 95.7848ZM69.7278 75.6409L70.6166 61.7225L73.1914 63.2167L72.3027 77.1287L69.7278 75.6409ZM71.2615 93.4921L68.6843 92.0026L69.5773 78.0826L72.1566 79.5736L71.2615 93.4921ZM67.8054 74.5333L65.228 73.0518L65.6793 58.8719L68.2485 60.3566L67.8054 74.5333ZM67.2804 91.1961L64.7087 89.7051L65.1549 75.53L67.7242 77.021L67.2804 91.1961ZM63.3018 71.9347L60.7319 70.4468V56.0182L63.3018 57.5061V71.9347ZM63.3018 88.8954L60.7319 87.4075V72.9789L63.3018 74.462V88.8954ZM75.5676 64.581L78.1393 66.0704L76.8024 79.7258L74.2312 78.2427L75.5676 64.581ZM80.5092 67.4315L83.0841 68.9241L81.3053 82.3307L78.7341 80.8381L80.5092 67.4315ZM85.4566 70.29L88.0271 71.7778L85.8044 84.9261L83.2302 83.4383L85.4566 70.29ZM92.9675 74.6347L90.3111 87.5216L87.7307 86.0369L90.3977 73.1484L92.9675 74.6347ZM97.9142 77.4884L94.8084 90.125L92.2366 88.6339L95.337 76.0006L97.9142 77.4884ZM58.9555 51.7638L59.6438 88.9065L94.9835 109.306L104.635 84.0578V78.1349L58.9555 51.7638Z" fill="#EEAC31"/>
<path d="M97.338 73.9216L67.2625 56.5585L80.9426 63.8045V64.0311L91.3329 70.0316L97.338 73.9216Z" fill="#497984"/>
<path d="M91.3329 70.0317L80.9426 64.0312V63.8046L85.2201 66.0704L91.3329 70.0317Z" fill="#1D1817"/>
<path d="M23.6065 68.6486L27.5443 65.8123L42.2959 57.8548L23.6065 68.6486Z" fill="#A19E49"/>
<path d="M57.8804 51.7639H53.7755L55.5055 51.2981L57.8804 51.7639Z" fill="#497984"/>
<path d="M20.3439 72.1914L20.6789 70.7558L23.6065 68.6484L42.2958 57.8547L52.8631 52.152L52.9306 53.3721L20.3439 72.1914Z" fill="#8A411D"/>
<path d="M58.9863 53.4387H58.9852L52.9355 53.369L52.9306 53.3722L52.8631 52.1521L53.3947 51.8653L53.7755 51.7639H57.8804L58.4015 51.8653L58.9629 52.1632L58.9863 53.4387Z" fill="#A86329"/>
<path d="M102.073 78.3157L58.9863 53.4388L58.9629 52.1632L67.2624 56.5587L97.338 73.9218L103.04 77.6153L102.073 78.3157Z" fill="#9A7326"/>
<path d="M103.55 77.5074L103.348 77.3918L103.672 77.1556L103.804 77.2317L103.55 77.5074Z" fill="#497984"/>
<path d="M103.804 77.2318L103.672 77.1557L104.277 76.7184L103.804 77.2318Z" fill="#1D1817"/>
<path d="M103.299 77.7833L103.04 77.6154L103.348 77.392L103.55 77.5076L103.299 77.7833Z" fill="#9A7326"/>
<path d="M58.5655 77.7198L37.1053 72.4624L39.2048 69.9827L60.4212 73.7205L59.4148 75.9404L58.5655 77.7198Z" fill="#F14952"/>
<path d="M63.9653 83.8804L58.3304 76.1939L60.4212 73.7204L67.6896 79.8208L67.4161 81.5733L63.9653 83.8804Z" fill="#A92427"/>
<path d="M72.2624 100.605L65.5968 82.2848L67.6895 79.8208L74.3483 98.1204L72.2624 100.605Z" fill="#831A1D"/>
<path d="M65.5968 82.2849L58.3304 76.1941L37.1053 72.4625L33.5895 76.6536L40.2489 94.95L47.5135 101.057L68.7411 104.806L72.2624 100.605L65.5968 82.2849Z" fill="#C83935"/>
<path d="M62.9434 98.3264L60.1941 97.8431L57.5733 95.6422L56.6177 93.0183L59.447 93.1181L62.0689 95.3174L62.9434 98.3264ZM60.7653 90.3119L56.4364 89.5498L54.9305 91.3418L53.8237 94.0878L55.3681 97.9984L58.1806 100.142L61.6603 101.153L64.8863 99.697L66.391 97.9018L64.8882 93.7709L60.7653 90.3119Z" fill="#C7C8C6"/>
<path d="M62.7083 98.6085L61.4375 100.12L58.6876 99.6369L56.0669 97.4391L55.1112 94.812L56.3807 93.2988L59.1319 93.7837L61.7531 95.983L62.7083 98.6085ZM59.2588 92.1088L54.9305 91.3419L52.9337 93.7235L54.4366 97.8527L58.557 101.315L62.8883 102.079L64.8864 99.6971L63.3835 95.5663L59.2588 92.1088Z" fill="white"/>
<path d="M57.7882 80.7177L56.328 82.5494L56.3027 84.4778L58.1528 84.0579L59.6153 82.2246L57.7882 80.7177Z" fill="#C7C8C6"/>
<path d="M56.328 82.5511L44.7722 97.0368L46.5982 98.5453L58.154 84.058L56.328 82.5511Z" fill="white"/>
<path d="M48.0557 85.8342L45.3069 85.3494L42.6863 83.1501L41.73 80.5245L44.5611 80.6259L47.183 82.8252L48.0557 85.8342ZM45.8789 77.8213L41.5505 77.0576L40.0452 78.8513L38.938 81.594L40.4854 85.5063L43.2985 87.6501L46.7764 88.6626L49.9987 87.2033L51.5046 85.4096L50.0023 81.2803L45.8789 77.8213Z" fill="#C7C8C6"/>
<path d="M47.8223 86.1163L46.5504 87.6295L43.7999 87.1447L41.1799 84.9438L40.2247 82.3182L41.4942 80.8066L44.2448 81.293L46.8667 83.4924L47.8223 86.1163ZM44.3717 79.6166L40.0452 78.8513L38.0486 81.2329L39.5507 85.3605L43.673 88.8195L48.0006 89.5833L49.9987 87.2033L48.497 83.074L44.3717 79.6166Z" fill="white"/>
<path d="M64.0983 112.245L61.5179 110.765V100.504L64.0983 101.992V112.245ZM64.0983 124.252L61.5179 122.763V112.51L64.0983 113.996V124.252ZM57.6463 120.526L57.1017 109.955L59.6704 111.446L60.2207 122.002L57.6463 120.526ZM56.4579 97.5771L59.0378 99.0681L59.5788 109.637L57.0039 108.151L56.4579 97.5771ZM53.7717 118.285L52.6749 107.396L55.2435 108.886L56.3472 119.776L53.7717 118.285ZM51.3906 94.6569L53.9642 96.1431L55.0647 107.026L52.4768 105.541L51.3906 94.6569ZM49.8934 116.043L48.2507 104.842L50.8199 106.335L52.4632 117.533L49.8934 116.043ZM46.015 113.804L43.8282 102.291L46.4 103.78L48.5936 115.3L46.015 113.804ZM42.1416 111.572L39.3973 99.74L41.9721 101.22L44.7152 113.056L42.1416 111.572ZM38.2619 109.331L34.9736 97.1794L37.5557 98.6704L40.8419 110.819L38.2619 109.331ZM34.3849 107.095L30.5425 94.6251L33.131 96.1114L36.9554 108.58L34.3849 107.095ZM30.511 104.855L26.1244 92.0741L28.7035 93.5603L33.0845 106.346L30.511 104.855ZM20.9907 77.1067L23.5724 78.5978L27.9472 91.3785L25.3724 89.8874L20.9907 77.1067ZM28.6349 81.5164L32.4667 93.9834L29.8944 92.494L26.0575 80.0302L28.6349 81.5164ZM33.7053 84.4446L36.9851 96.5931L34.4128 95.1068L31.1205 82.9568L33.7053 84.4446ZM38.7677 87.3633L41.5127 99.1965L38.9213 97.7149L36.1948 85.8786L38.7677 87.3633ZM43.8363 90.2978L46.0243 101.809L43.4463 100.322L41.2578 88.8052L43.8363 90.2978ZM48.9018 93.2181L50.5364 104.422L47.9598 102.931L46.3183 91.7303L48.9018 93.2181ZM18.8256 74.4812L29.8244 106.127L65.1549 126.525L65.2831 101.309L18.8256 74.4812Z" fill="#D56027"/>
<path d="M95.8543 97.9731L100.039 86.4917L102.616 84.9944L98.4291 96.4821L95.8543 97.9731ZM93.2386 110.749L90.6601 112.237L94.8516 100.754L97.4264 99.2661L93.2386 110.749ZM86.4933 114.639L90.0535 103.524L92.6265 102.034L89.0681 113.15L86.4933 114.639ZM82.3333 117.041L85.2542 106.297L87.829 104.807L84.9007 115.563L82.3333 117.041ZM78.1609 119.45L80.4548 109.06L83.0252 107.571L80.7438 117.959L78.1609 119.45ZM74.0041 121.852L75.6566 111.833L78.2321 110.345L76.5758 120.364L74.0041 121.852ZM71.1085 112.258L72.1287 102.595L74.7016 101.11L73.6896 110.771L71.1085 112.258ZM72.414 122.772L69.8305 124.259L70.8549 114.598L73.4353 113.112L72.414 122.772ZM77.7128 99.3739L80.2889 97.8892L78.6401 107.911L76.0522 109.399L77.7128 99.3739ZM83.2989 96.1525L85.8725 94.6694L83.5866 105.056L81.005 106.542L83.2989 96.1525ZM88.8781 92.9328L91.4555 91.4465L88.5376 102.204L85.9504 103.682L88.8781 92.9328ZM97.0409 88.222L93.4831 99.339L90.9133 100.83L94.4548 89.7115L97.0409 88.222ZM70.8919 101.321L68.2602 126.542L94.1775 111.575L105.166 81.5258L70.8919 101.321Z" fill="#EEAC31"/>
<path d="M71.6836 101.781H64.4655L63.8775 113.782L64.3324 127H69.0636L71.2002 113.566L71.6836 101.781Z" fill="#F78E38"/>
<path d="M96.6578 98.4359L100.843 86.9513L103.424 85.4619L99.2363 96.9465L96.6578 98.4359ZM94.0359 111.209L91.4696 112.701L95.6477 101.218L98.2249 99.7337L94.0359 111.209ZM87.2979 115.108L90.8562 103.988L93.4366 102.497L89.8727 113.62L87.2979 115.108ZM83.1362 117.514L86.055 106.763L88.633 105.268L85.7116 116.021L83.1362 117.514ZM78.9693 119.916L81.2595 109.524L83.8311 108.037L81.5455 118.423L78.9693 119.916ZM74.7983 122.315L76.4546 112.294L79.0356 110.806L77.381 120.831L74.7983 122.315ZM71.9176 112.724L72.9382 103.063L75.5081 101.573L74.488 111.236L71.9176 112.724ZM73.2074 123.238L70.6444 124.726L71.6595 115.065L74.2343 113.574L73.2074 123.238ZM78.5113 99.8398L81.091 98.3487L79.4422 108.376L76.8637 109.863L78.5113 99.8398ZM84.101 96.6185L86.6753 95.1306L84.3901 105.519L81.8121 107L84.101 96.6185ZM89.6821 93.3956L92.2569 91.9045L89.3399 102.662L86.7588 104.147L89.6821 93.3956ZM97.8332 88.6864L94.2828 99.8034L91.7066 101.29L95.2626 90.1711L97.8332 88.6864ZM71.6836 101.781L69.0636 127L94.9834 112.039L105.97 81.9839L71.6836 101.781Z" fill="#D56027"/>
<path d="M63.2752 112.724L60.6972 111.236V100.976L63.2752 102.468V112.724ZM63.2752 124.726L60.6972 123.238V112.979L63.2752 114.47V124.726ZM56.8219 120.996L56.2754 110.434L58.849 111.915L59.3993 122.487L56.8219 120.996ZM55.6348 98.0572L58.2122 99.5419L58.7587 110.111L56.1839 108.624L55.6348 98.0572ZM52.9437 118.756L51.8488 107.873L54.4266 109.358L55.5209 120.244L52.9437 118.756ZM50.5644 95.1306L53.1435 96.6185L54.2354 107.509L51.6612 106.016L50.5644 95.1306ZM49.0672 116.52L47.4226 105.322L50.0006 106.81L51.6488 118.006L49.0672 116.52ZM45.1949 114.286L43.0021 102.768L45.5757 104.253L47.7648 115.767L45.1949 114.286ZM41.3122 112.044L38.5784 100.209L41.1489 101.702L43.8896 113.535L41.3122 112.044ZM37.4401 109.806L34.1497 97.6547L36.7277 99.141L40.0175 111.288L37.4401 109.806ZM33.5593 107.566L29.7299 95.1052L32.3047 96.5868L36.1422 109.055L33.5593 107.566ZM29.6809 105.329L25.303 92.5463L27.8711 94.0325L32.2607 106.812L29.6809 105.329ZM20.1657 77.5805L22.7486 79.0684L27.1241 91.8522L24.5493 90.3628L20.1657 77.5805ZM27.8099 81.9918L31.6517 94.4556L29.0713 92.9693L25.2306 80.5055L27.8099 81.9918ZM32.881 84.9121L36.1644 97.0685L33.5883 95.579L30.3055 83.4274L32.881 84.9121ZM37.9434 87.8403L40.6859 99.675L38.1031 98.1935L35.3647 86.3555L37.9434 87.8403ZM43.01 90.7669L45.2055 102.288L42.6258 100.797L40.4322 89.2806L43.01 90.7669ZM48.0824 93.6919L49.7208 104.896L47.1428 103.41L45.4933 92.204L48.0824 93.6919ZM18 74.9613L28.9908 106.601L64.3324 127L64.4655 101.781L18 74.9613Z" fill="#EEAC31"/>
<path d="M71.6835 95.9561L68.7905 95.3856L64.4654 95.9561V101.781H71.6835V95.9561Z" fill="#F78E38"/>
<path d="M58.4016 46.7077L55.5062 46.1467L53.3948 46.7077V52.5387H58.4016V46.7077Z" fill="#F78E38"/>
<path d="M105.971 76.1607L80.115 90.1076L71.6837 95.9561V101.781L105.971 81.9838V76.1607Z" fill="#D56027"/>
<path d="M53.3948 46.7077L27.5449 60.6578L20.6789 65.5983L20.3439 71.6195L53.3948 52.5388V46.7077Z" fill="#D56027"/>
<path d="M64.4655 95.9561L45.7607 84.218L18 69.1318V74.9612L64.4655 101.781V95.9561Z" fill="#EEAC31"/>
<path d="M103.298 72.6304L86.1665 61.7939L58.4015 46.7077V52.5387L102.073 77.7484L104.277 76.1607L103.298 72.6304Z" fill="#EEAC31"/>
<path d="M103.299 72.6304V75.5174L70.58 94.408H65.5721L20.6789 68.4948V65.5983L53.3948 46.7077H58.4016L103.299 72.6304ZM52.2882 45.1628L18 64.9565V69.1318L64.4655 95.9561H71.6836L105.971 76.1607V71.9871L59.5212 45.1628H52.2882Z" fill="#F9EE60"/>
<path d="M85.1954 66.2544L77.9246 54.7334L79.9145 54.5337L87.7307 65.2751L86.3323 65.8297L85.1954 66.2544Z" fill="#F14952"/>
<path d="M84.9533 71.301L85.7445 65.4779L87.7307 65.275L88.3434 71.0934L87.4726 71.7542L84.9533 71.301Z" fill="#A92427"/>
<path d="M81.4761 82.2755L86.3615 71.2917L88.3434 71.0936L83.4654 82.0679L81.4761 82.2755Z" fill="#831A1D"/>
<path d="M86.3615 71.2915L85.7444 65.4778L77.9245 54.7333L74.5679 55.0882L69.6882 66.061L70.299 71.8793L78.1145 82.6318L81.4761 82.2753L86.3615 71.2915Z" fill="#C83935"/>
<path d="M78.3132 77.2761L77.303 75.8817L77.0809 73.7838L77.7809 72.2104L78.9934 73.4654L79.2162 75.5664L78.3132 77.2761ZM80.7815 72.7856L79.1872 70.5942L77.7494 70.7447L76.0831 71.4879L75.0947 73.8868L75.4252 76.0418L76.5361 77.9796L78.5905 78.7133L80.0271 78.5627L81.1282 76.0861L80.7815 72.7856Z" fill="#C7C8C6"/>
<path d="M78.0898 77.2985L76.8791 77.4268L75.8666 76.0324L75.6443 73.9361L76.3443 72.3611L77.555 72.2344L78.5682 73.6256L78.7918 75.7266L78.0898 77.2985ZM79.3425 72.9379L77.7495 70.7449L75.8436 70.9461L74.7432 73.4243L75.0903 76.7233L76.6842 78.9147L78.5905 78.7134L79.691 76.2384L79.3425 72.9379Z" fill="white"/>
<path d="M83.5668 67.2525L82.134 67.4411L81.2965 68.284L82.2981 68.8909L83.7321 68.7039L83.5668 67.2525Z" fill="#C7C8C6"/>
<path d="M82.1322 67.4412L70.8036 68.9227L70.9688 70.3726L82.2992 68.891L82.1322 67.4412Z" fill="white"/>
<path d="M77.0567 65.3574L76.0442 63.9646L75.8218 61.8667L76.5231 60.2917L77.7345 61.5482L77.9573 63.6477L77.0567 65.3574ZM79.5227 60.8685L77.9281 58.6771L76.491 58.8292L74.8253 59.5707L73.8376 61.9697L74.1681 64.1262L75.2772 66.0641L77.3322 66.7961L78.7687 66.6456L79.8717 64.169L79.5227 60.8685Z" fill="#C7C8C6"/>
<path d="M76.8315 65.3795L75.6202 65.5079L74.6075 64.1151L74.386 62.0188L75.0873 60.4437L76.2968 60.317L77.3099 61.7082L77.5327 63.8077L76.8315 65.3795ZM78.0855 61.0205L76.491 58.8291L74.5866 59.0288L73.4843 61.507L73.8333 64.8059L75.4258 66.9973L77.3323 66.7961L78.434 64.3195L78.0855 61.0205Z" fill="white"/>
<path d="M70.8455 97.7117L68.1184 97.5438L65.2497 97.7117V103.719H70.8455V97.7117Z" fill="#1A1516"/>
<path d="M65.2497 97.7117L55.4757 91.5876L38.7207 82.3894V88.4011L65.2497 103.719V97.7117Z" fill="#2A2221"/>
<path d="M108.173 76.1528L88.8292 86.8467L70.8456 97.7117V103.719L108.173 82.1613V76.1528Z" fill="#0A0B0B"/>
<path d="M107.692 73.4622V75.6964L70.0471 97.4328H66.1757L39.4214 81.9837L38.7207 82.3894L65.2497 97.7117H70.8456L108.173 76.1527V72.9219L107.692 73.4622Z" fill="#473B38"/>
<path d="M42.4103 88.9177L43.2409 88.4329V87.0052L41.9609 87.2429L42.4103 88.9177Z" fill="#D56027"/>
<path d="M42.4103 87.4948L43.2409 87.0052L42.3756 85.4919L40.3059 85.2638L42.4103 87.4948Z" fill="#F78E38"/>
<path d="M41.5375 85.9768L42.3756 85.4919L41.1377 84.7757L40.3059 85.2638L41.5375 85.9768Z" fill="#F9EE60"/>
<path d="M39.4239 85.766L40.3059 85.2637L41.5375 85.9768L42.4103 87.4947V88.9176L41.5375 89.4199L40.3059 88.7069L39.4239 87.1984V85.766Z" fill="#EEAC31"/>
<path d="M55.55 30.3475L47.0567 25.4339L53.4084 21.7658L61.9166 26.6794L55.55 30.3475Z" fill="#F14952"/>
<path d="M66.1527 36.4511V21.4014L55.537 15.2725V30.3349L47.0567 25.434L60.8545 57.8992L74.6403 41.3631L66.1527 36.4511Z" fill="#C83935"/>
<path d="M66.1526 21.4015L55.537 15.2726L61.9011 11.6092L72.5069 17.7412L66.1526 21.4015Z" fill="#F14952"/>
<path d="M74.6403 41.363L66.1526 36.451L72.5069 32.7765L81.0124 37.6949L74.6403 41.363Z" fill="#F14952"/>
<path d="M66.1526 36.451V21.4013L72.5069 17.7411V32.7766L66.1526 36.451Z" fill="#831A1D"/>
<path d="M60.8545 57.8992L74.6403 41.3631L81.0124 37.695L67.2024 54.2152L60.8545 57.8992Z" fill="#831A1D"/>
<path d="M107.311 44.8998L93.1606 35.4386L95.3308 34.1979L109.708 42.4945L108.394 43.835L107.311 44.8998Z" fill="#F14952"/>
<path d="M109.597 50.7814L107.542 43.7319L109.708 42.4943L113.363 48.8245L112.704 50.0208L109.597 50.7814Z" fill="#A92427"/>
<path d="M111.198 65.077V50.0558L113.363 48.8247V63.83L111.198 65.077Z" fill="#831A1D"/>
<path d="M111.198 50.0558L107.542 43.732L93.1607 35.4387L89.5095 37.546V52.5499L93.1607 58.8832L107.542 67.1892L111.198 65.077V50.0558Z" fill="#C83935"/>
<path d="M105.051 60.9746L103.188 59.8971L101.869 57.6139V55.4637L103.891 56.2797L105.212 58.5646L105.051 60.9746ZM105.586 54.5969L102.653 52.9031L101.09 53.8047L99.5649 55.5001L99.6541 58.7404L101.125 61.0332L103.378 62.6812L106.097 62.4767L107.66 61.5736V58.1874L105.586 54.5969Z" fill="#C7C8C6"/>
<path d="M104.807 61.1141L103.489 61.8747L101.623 60.7988L100.306 58.5187V56.3653L101.623 55.6047L103.489 56.6806L104.807 58.9639V61.1141ZM104.022 55.4986L101.09 53.8047L99.0171 55.0026V58.3887L101.09 61.9808L104.022 63.6731L106.097 62.4768V59.0907L104.022 55.4986Z" fill="white"/>
<path d="M105.959 46.8662L104.418 47.8074L103.891 49.1954L105.342 49.3809L106.886 48.438L105.959 46.8662Z" fill="#C7C8C6"/>
<path d="M104.418 47.8073L92.2353 55.253L93.1606 56.8232L105.343 49.3808L104.418 47.8073Z" fill="white"/>
<path d="M97.5651 48.0071L95.7007 46.9297L94.3818 44.6479V42.4946L96.4046 43.3154L97.7235 45.5971L97.5651 48.0071ZM98.098 41.631L95.1672 39.9372L93.6038 40.8387L92.08 42.5342L92.1685 45.7729L93.6415 48.0673L95.8915 49.7152L98.6099 49.5092L100.172 48.6076V45.22L98.098 41.631Z" fill="#C7C8C6"/>
<path d="M97.3187 48.1479L96.0004 48.9069L94.1373 47.8342L92.8203 45.5493V43.3975L94.1373 42.6354L96.0004 43.7129L97.3187 45.9961V48.1479ZM96.5352 42.5324L93.6038 40.8385L91.5303 42.0364V45.4226L93.6038 49.0131L96.5352 50.7053L98.6099 49.509V46.1229L96.5352 42.5324Z" fill="white"/>
<path d="M38.6724 42.271L22.6664 31.5707L25.1224 30.1669L41.3835 39.5488L39.8967 41.0683L38.6724 42.271Z" fill="#F14952"/>
<path d="M41.2578 48.926L38.9343 40.9496L41.3835 39.5489L45.5175 46.7109L44.7704 48.0656L41.2578 48.926Z" fill="#A92427"/>
<path d="M43.0707 65.0912V48.1036L45.5175 46.7108V63.681L43.0707 65.0912Z" fill="#831A1D"/>
<path d="M43.0707 48.1038L38.9343 40.9496L22.6664 31.5709L18.5379 33.9556V50.9242L22.6664 58.0878L38.9343 67.4824L43.0707 65.0914V48.1038Z" fill="#C83935"/>
<path d="M36.1163 60.4517L34.0074 59.2332L32.5171 56.6536V54.2182L34.8059 55.1435L36.2976 57.7247L36.1163 60.4517ZM36.7216 53.2389L33.4039 51.3233L31.6356 52.3437L29.9105 54.2609L30.0127 57.9244L31.6765 60.5182L34.2222 62.3832L37.2983 62.1503L39.0655 61.1298V57.3017L36.7216 53.2389Z" fill="#C7C8C6"/>
<path d="M35.8413 60.6118L34.349 61.4722L32.2408 60.2537L30.7492 57.6741V55.2387L32.2408 54.3767L34.349 55.5952L35.8413 58.178V60.6118ZM34.9538 54.2595L31.6355 52.3438L29.2916 53.6986V57.5267L31.6355 61.5894L34.9538 63.5051L37.2983 62.1504V58.3222L34.9538 54.2595Z" fill="white"/>
<path d="M37.1424 44.4958L35.4001 45.559L34.8059 47.1308L36.4455 47.34L38.1903 46.2736L37.1424 44.4958Z" fill="#C7C8C6"/>
<path d="M35.4 45.5604L21.6215 53.979L22.6664 55.7568L36.4461 47.3399L35.4 45.5604Z" fill="white"/>
<path d="M27.6483 45.7855L25.5407 44.5686L24.0497 41.9858V39.5504L26.3362 40.4789L27.8304 43.0601L27.6483 45.7855ZM28.2519 38.5728L24.9367 36.6571L23.1695 37.6759L21.444 39.5948L21.546 43.2582L23.2104 45.8521L25.7575 47.717L28.8312 47.4841L30.5982 46.4637V42.6339L28.2519 38.5728Z" fill="#C7C8C6"/>
<path d="M27.3722 45.9457L25.8806 46.8061L23.7736 45.5891L22.2839 43.0064V40.571L23.7736 39.7122L25.8806 40.9291L27.3722 43.5119V45.9457ZM26.4846 39.5934L23.1695 37.6761L20.8244 39.0308V42.8622L23.1695 46.9249L26.4846 48.8374L28.8311 47.4843L28.8324 43.6545L26.4846 39.5934Z" fill="white"/>
<path d="M33.1167 11.121L25.0233 5.70986L26.2637 5L34.487 9.74562L33.735 10.5125L33.1167 11.121Z" fill="#F14952"/>
<path d="M34.4227 14.4865L33.2473 10.4538L34.487 9.74555L36.5761 13.3662L36.1997 14.0507L34.4227 14.4865Z" fill="#A92427"/>
<path d="M35.3407 22.6594V14.0713L36.5761 13.3662V21.9448L35.3407 22.6594Z" fill="#831A1D"/>
<path d="M35.3406 14.0714L33.2473 10.454L25.0234 5.70995L22.9356 6.91578V15.4959L25.0234 19.1182L33.2473 23.8701L35.3406 22.6595V14.0714Z" fill="#C83935"/>
<path d="M31.8238 20.3127L30.7585 19.698L30.0046 18.3939L30.0033 17.1611L31.1602 17.6302L31.9154 18.9358L31.8238 20.3127ZM32.1294 16.6652L30.4516 15.6986L29.5584 16.2136L28.685 17.1833L28.7376 19.0356L29.5788 20.346L30.8669 21.292L32.421 21.1732L33.3148 20.6582V18.7203L32.1294 16.6652Z" fill="#C7C8C6"/>
<path d="M31.6832 20.3952L30.9306 20.8309L29.8641 20.213L29.1097 18.9089V17.6761L29.8641 17.242L30.9306 17.8583L31.6832 19.164V20.3952ZM31.2351 17.1818L29.5584 16.2136L28.3719 16.8982V18.8344L29.5584 20.8895L31.2351 21.8593L32.421 21.1732L32.4229 19.2369L31.2351 17.1818Z" fill="white"/>
<path d="M32.343 12.2445L31.4611 12.7848L31.1602 13.5786L31.9908 13.6832L32.8716 13.1445L32.343 12.2445Z" fill="#C7C8C6"/>
<path d="M31.4611 12.7849L24.4941 17.0409L25.0234 17.9393L31.9908 13.6833L31.4611 12.7849Z" fill="white"/>
<path d="M27.5424 12.8987L26.4754 12.2823L25.7227 10.9783V9.74549L26.8796 10.2161L27.6334 11.5201L27.5424 12.8987ZM27.8469 9.25114L26.1715 8.28299L25.277 8.79796L24.4043 9.7677L24.4551 11.6216L25.2975 12.932L26.5861 13.8748L28.1404 13.7575L29.0328 13.2425V11.3047L27.8469 9.25114Z" fill="#C7C8C6"/>
<path d="M27.4031 12.9796L26.6487 13.4138L25.5809 12.7974L24.8283 11.4933V10.2622L25.5809 9.82642L26.6487 10.4428L27.4031 11.7485V12.9796ZM26.9531 9.76781L25.277 8.79807L24.0918 9.48259V11.422L25.277 13.4724L26.9531 14.4406L28.1404 13.7576V11.8198L26.9531 9.76781Z" fill="white"/>
</svg>
