<svg width="24" height="24" viewBox="0 0 24 24" fill="none" xmlns="http://www.w3.org/2000/svg">
<g clip-path="url(#clip0_15_2887)">
<path d="M16.5289 23.8746C12.7986 23.9286 8.88507 24.2856 5.20064 23.4816C1.98667 22.7525 0.385816 20.2083 0.141409 17.115C0.0497548 12.8997 -0.384069 8.47429 0.935725 4.40294C2.73825 -0.415465 7.05813 0.196589 11.3658 0.010572C13.4922 0.103579 15.6643 -0.208447 17.7601 0.304598C20.2745 0.679624 22.6177 2.44078 23.3754 4.86498C23.7817 5.85808 23.7817 6.95316 23.8672 8.00026C23.9833 10.4935 24.0353 12.9867 23.9742 15.4799C23.687 20.5113 22.19 23.7726 16.5289 23.8746ZM11.7263 8.6153C9.63358 8.66331 7.605 8.10225 5.97662 6.77913C5.52755 6.29909 4.64462 6.13709 4.74847 7.04018C4.98679 8.03625 5.16702 9.02634 5.46949 10.0104C2.90016 10.1874 6.08968 12.6986 6.92675 13.2447C4.52242 14.0338 7.5103 15.1499 8.35043 15.8069C7.78524 16.2029 7.1559 16.515 6.49906 16.743C5.97051 16.878 4.81265 17.13 5.79333 17.7091C8.01438 18.6692 10.5654 18.3481 12.8323 17.7061C16.8161 16.644 18.6919 13.0437 18.7744 9.20634C18.6308 8.04226 20.8427 7.60121 19.9842 7.02216C19.6237 6.94715 19.2418 7.14818 18.8875 7.21418C19.0616 6.83916 19.2449 6.47312 19.5565 6.17909C19.6818 6.08308 19.6512 5.93008 19.5199 5.83107C19.2113 5.63004 18.2459 6.35311 17.8579 6.46711C15.7835 4.23192 12.5909 5.76207 11.9677 8.4323C11.9279 8.56429 11.876 8.62432 11.7263 8.6153Z" fill="#D8D8D8"/>
</g>
<defs>
<clipPath id="clip0_15_2887">
<rect width="24" height="24" fill="white"/>
</clipPath>
</defs>
</svg>
