<svg width="40" height="40" viewBox="0 0 40 40" fill="none" xmlns="http://www.w3.org/2000/svg">
<path d="M20 37.9999C19.4051 38.005 18.8204 37.844 18.3108 37.5349L11.9423 33.7833C9.55815 32.4402 7.56823 30.487 6.17365 28.1211C4.77908 25.7552 4.02926 23.0604 4 20.3091V10.0581C4.00028 9.36732 4.21058 8.69319 4.6026 8.12639C4.99462 7.5596 5.54957 7.12732 6.19279 6.8877L18.8459 2.20608C19.5911 1.93131 20.4089 1.93131 21.1541 2.20608L33.8072 6.8877C34.4504 7.12732 35.0054 7.5596 35.3974 8.12639C35.7894 8.69319 35.9997 9.36732 36 10.0581V20.3091C35.9707 23.0604 35.2209 25.7552 33.8263 28.1211C32.4318 30.487 30.4419 32.4402 28.0577 33.7833L21.6892 37.5349C21.1796 37.844 20.5949 38.005 20 37.9999ZM20 4.64729C19.9167 4.63202 19.8314 4.63202 19.7482 4.64729L7.09508 9.35005C6.95256 9.40321 6.83026 9.50021 6.74552 9.62729C6.66078 9.75437 6.6179 9.9051 6.62295 10.0581V20.3091C6.65338 22.5984 7.28357 24.839 8.44978 26.8042C9.61598 28.7694 11.2768 30.3895 13.2643 31.5006L19.6328 35.2628C19.7454 35.3247 19.8717 35.3572 20 35.3572C20.1283 35.3572 20.2546 35.3247 20.3672 35.2628L26.7357 31.5006C28.7232 30.3895 30.384 28.7694 31.5502 26.8042C32.7164 24.839 33.3466 22.5984 33.377 20.3091V10.0581C33.3777 9.90867 33.3328 9.76264 33.2483 9.63978C33.1639 9.51692 33.044 9.42316 32.9049 9.37118L20.2518 4.68956C20.1711 4.66011 20.0858 4.64578 20 4.64729Z" fill="#9747FF"/>
<path d="M18.7428 25.5429C18.4056 25.5407 18.0791 25.4238 17.8171 25.2114L12.9371 21.0971C12.6461 20.8531 12.464 20.5035 12.4308 20.1253C12.3976 19.747 12.516 19.371 12.76 19.08C13.004 18.789 13.3536 18.6069 13.7319 18.5737C14.1101 18.5404 14.4861 18.6589 14.7771 18.9029L18.6057 22.1257L25.1428 14.9257C25.3974 14.6438 25.7536 14.4746 26.133 14.4553C26.5123 14.4361 26.8838 14.5683 27.1657 14.8229C27.4476 15.0775 27.6168 15.4336 27.6361 15.813C27.6554 16.1923 27.5232 16.5638 27.2686 16.8457L19.8628 25.0743C19.721 25.2286 19.5475 25.3504 19.3542 25.4313C19.1608 25.5122 18.9523 25.5502 18.7428 25.5429Z" fill="#9747FF"/>
</svg>
