<svg width="40" height="40" viewBox="0 0 40 40" fill="none" xmlns="http://www.w3.org/2000/svg">
<g clip-path="url(#clip0_40_12839)">
<path d="M11.5562 8.76744C11.6962 7.36507 12.1866 6.02043 12.9824 4.85731C13.7782 3.69418 14.8539 2.74994 16.1103 2.11149C17.3667 1.47305 18.7635 1.16092 20.1723 1.20385C21.5809 1.24678 22.9561 1.64338 24.1713 2.35714C25.3865 3.07091 26.4027 4.0789 27.1262 5.28834C27.8497 6.49776 28.2574 7.86976 28.3117 9.27805C28.3659 10.6863 28.0651 12.0856 27.4368 13.3472C26.8203 14.585 25.908 15.6511 24.7813 16.4513" stroke="#9747FF" stroke-width="2.6" stroke-linecap="round" stroke-linejoin="round"/>
<path d="M12.7031 5.36426C14.0033 6.70655 15.5602 7.77363 17.2811 8.50203C19.0021 9.23043 20.852 9.60528 22.7208 9.60426C24.5587 9.60608 26.3784 9.24416 28.075 8.53984" stroke="#9747FF" stroke-width="2.6" stroke-linecap="round" stroke-linejoin="round"/>
<path d="M18.1171 15.6042C17.6426 15.6042 17.1786 15.745 16.7838 16.0088C16.3891 16.2724 16.0815 16.6473 15.8999 17.0859C15.7182 17.5243 15.6707 18.0068 15.7633 18.4724C15.8559 18.938 16.0845 19.3657 16.4201 19.7012C16.7558 20.0369 17.1834 20.2656 17.649 20.3582C18.1146 20.4507 18.5971 20.4032 19.0357 20.2216C19.4742 20.04 19.849 19.7323 20.1126 19.3376C20.3765 18.943 20.5171 18.4788 20.5171 18.0043C20.5171 17.3678 20.2643 16.7572 19.8142 16.3072C19.3642 15.8571 18.7538 15.6042 18.1171 15.6042Z" stroke="#9747FF" stroke-width="2.6" stroke-linecap="round" stroke-linejoin="round"/>
<path d="M8.51718 11.4795V13.2043C8.51718 14.4773 9.02289 15.6982 9.92307 16.5984C10.8232 17.4986 12.0441 18.0043 13.3172 18.0043H15.5944" stroke="#9747FF" stroke-width="2.6" stroke-linecap="round" stroke-linejoin="round"/>
<path d="M35.5208 37.2043C35.521 34.3509 34.7376 31.5523 33.2563 29.1136C31.7811 26.6846 29.6701 24.7054 27.1515 23.3899" stroke="#9747FF" stroke-width="2.6" stroke-linecap="round" stroke-linejoin="round"/>
<path d="M4.32031 37.2043C4.31999 34.3512 5.10281 31.5529 6.58343 29.114C8.05666 26.6875 10.1645 24.7096 12.6792 23.3936" stroke="#9747FF" stroke-width="2.6" stroke-linecap="round" stroke-linejoin="round"/>
</g>
<defs>
<clipPath id="clip0_40_12839">
<rect width="40" height="40" fill="white"/>
</clipPath>
</defs>
</svg>
