<svg width="40" height="40" viewBox="0 0 40 40" fill="none" xmlns="http://www.w3.org/2000/svg">
<path d="M20 22.625C17.125 18 12 15 6.25 15C5.625 15 5.125 15 4.5 15.125C4 16.625 3.75 18.25 3.75 20C3.75 28.375 10.125 35.25 18.25 36.125" stroke="#9747FF" stroke-width="2.6" stroke-miterlimit="10" stroke-linecap="round" stroke-linejoin="round"/>
<path d="M20 22.625C17.125 18 12 15 6.25 15C5.625 15 5.125 15 4.5 15.125" stroke="#9747FF" stroke-width="2.6" stroke-miterlimit="10" stroke-linecap="round" stroke-linejoin="round"/>
<path d="M20 22.625C21.625 25.125 22.5 28.125 22.5 31.25C22.5 33 22.25 34.625 21.75 36.125C29.875 35.25 36.25 28.375 36.25 20C36.25 18.25 36 16.625 35.5 15.125C34.875 15 34.375 15 33.75 15C29.375 15 25.5 16.75 22.5 19.5" stroke="#9747FF" stroke-width="2.6" stroke-miterlimit="10" stroke-linecap="round" stroke-linejoin="round"/>
<path d="M8 15.125C9.625 10 14.375 6.25 20 6.25C24.25 6.25 28 8.375 30.25 11.5" stroke="#9747FF" stroke-width="2.6" stroke-miterlimit="10" stroke-linecap="round" stroke-linejoin="round"/>
<path d="M22.625 6.5C20.375 7.25 18.75 9.375 18.75 11.875C18.75 12.75 19 13.625 19.375 14.375C18.625 14 17.75 13.75 16.875 13.75C15 13.75 13.25 14.75 12.25 16.125" stroke="#9747FF" stroke-width="2.6" stroke-miterlimit="10" stroke-linecap="round" stroke-linejoin="round"/>
</svg>
