<svg width="32" height="32" viewBox="0 0 32 32" fill="none" xmlns="http://www.w3.org/2000/svg">
<path d="M27.5573 4.24512H4.44269C1.98919 4.24512 0 6.2343 0 8.6878V23.3118C0 25.7653 1.98919 27.7545 4.44269 27.7545H27.5573C30.0107 27.7545 32 25.7653 32 23.3118V8.6878C32 6.2343 30.0107 4.24512 27.5573 4.24512ZM11.1354 20.1073L4.91412 25.4148C4.47531 25.7893 3.81562 25.7372 3.44119 25.298C3.06669 24.8592 3.11875 24.1995 3.55806 23.8251L9.77931 18.5176C10.2181 18.1431 10.8777 18.1951 11.2522 18.6344C11.6267 19.0732 11.5746 19.7329 11.1354 20.1073ZM16 18.0896C15.1679 18.0875 14.3612 17.811 13.7306 17.2656L13.7311 17.2661L13.7291 17.2646C13.7296 17.2651 13.7302 17.2651 13.7306 17.2656L4.18512 8.98068C3.74887 8.60205 3.70244 7.94243 4.0805 7.50674C4.45906 7.07049 5.11875 7.02405 5.55438 7.40212L15.1026 15.6891C15.3066 15.8707 15.6429 16.0019 16 15.9998C16.3566 16.0009 16.6872 15.8733 16.9025 15.6856L16.9071 15.6815L26.4456 7.40218C26.8813 7.02412 27.5409 7.07055 27.9195 7.5068C28.2975 7.94243 28.2511 8.60212 27.8149 8.98074L18.2668 17.2682C17.6382 17.8079 16.8326 18.0885 16 18.0896ZM28.5592 25.298C28.1847 25.7372 27.5251 25.7893 27.0864 25.4148L20.8651 20.1073C20.4259 19.7328 20.3738 19.0732 20.7483 18.6344C21.1227 18.1951 21.7824 18.1431 22.2212 18.5176L28.4424 23.8251C28.8817 24.1995 28.9338 24.8592 28.5592 25.298Z" fill="#2B2B2B"/>
</svg>
