<svg width="32" height="32" viewBox="0 0 32 32" fill="none" xmlns="http://www.w3.org/2000/svg">
<path fill-rule="evenodd" clip-rule="evenodd" d="M6.5 7.66667C6.5 4.52397 6.5 2.95262 7.47632 1.97632C8.45262 1 10.024 1 13.1667 1H19.8333C22.976 1 24.5473 1 25.5237 1.97632C26.5 2.95262 26.5 4.52397 26.5 7.66667V24.3333C26.5 27.476 26.5 29.0473 25.5237 30.0237C24.5473 31 22.976 31 19.8333 31H13.1667C10.024 31 8.45262 31 7.47632 30.0237C6.5 29.0473 6.5 27.476 6.5 24.3333V7.66667ZM12.3333 4.33333C12.3333 3.8731 12.7064 3.5 13.1667 3.5H19.8333C20.2935 3.5 20.6667 3.8731 20.6667 4.33333C20.6667 4.79357 20.2935 5.16667 19.8333 5.16667H13.1667C12.7064 5.16667 12.3333 4.79357 12.3333 4.33333ZM16.5 27.6667C17.4205 27.6667 18.1667 26.9205 18.1667 26C18.1667 25.0795 17.4205 24.3333 16.5 24.3333C15.5795 24.3333 14.8333 25.0795 14.8333 26C14.8333 26.9205 15.5795 27.6667 16.5 27.6667Z" fill="#33363F"/>
</svg>
