<svg width="32" height="32" viewBox="0 0 32 32" fill="none" xmlns="http://www.w3.org/2000/svg">
<g clip-path="url(#clip0_138_19)">
<path d="M0.133369 16.4428C0.132593 19.1355 0.865995 21.7647 2.26055 24.0821L0 31.9999L8.44656 29.8753C10.7828 31.0954 13.4003 31.7347 16.0603 31.7349H16.0673C24.8483 31.7349 31.9962 24.8802 32 16.4549C32.0017 12.3722 30.3458 8.53315 27.3374 5.64484C24.3294 2.75679 20.329 1.16544 16.0666 1.16357C7.28456 1.16357 0.137125 8.01789 0.133499 16.4428" fill="#2B2B2B"/>
<path d="M12.0848 9.19662C11.7865 8.53888 11.4726 8.52561 11.189 8.51407C10.9568 8.50415 10.6913 8.5049 10.426 8.5049C10.1605 8.5049 9.72913 8.604 9.36451 8.99904C8.99951 9.39445 7.97101 10.35 7.97101 12.2934C7.97101 14.2369 9.39763 16.1152 9.59651 16.379C9.79563 16.6423 12.3506 20.7582 16.3971 22.3415C19.7601 23.6574 20.4445 23.3957 21.1744 23.3297C21.9044 23.264 23.5299 22.3744 23.8615 21.452C24.1934 20.5297 24.1934 19.7391 24.0939 19.5739C23.9944 19.4093 23.7289 19.3105 23.3308 19.113C22.9326 18.9156 20.9753 17.9598 20.6104 17.8279C20.2454 17.6962 19.98 17.6305 19.7145 18.026C19.449 18.4209 18.6866 19.3105 18.4543 19.5739C18.2221 19.838 17.9898 19.8708 17.5918 19.6733C17.1934 19.4751 15.9113 19.0584 14.3901 17.7128C13.2066 16.6658 12.4076 15.3727 12.1754 14.9772C11.9431 14.5823 12.1505 14.3682 12.3501 14.1714C12.529 13.9944 12.7484 13.7101 12.9476 13.4795C13.1461 13.2488 13.2124 13.0842 13.3451 12.8208C13.478 12.5571 13.4115 12.3264 13.3121 12.1288C13.2124 11.9313 12.4388 9.97764 12.0848 9.19662Z" fill="#D9D9D9"/>
</g>
<defs>
<clipPath id="clip0_138_19">
<rect width="32" height="32" fill="white"/>
</clipPath>
</defs>
</svg>
